<svg width="32" height="32" viewBox="0 0 32 32" fill="none" xmlns="http://www.w3.org/2000/svg">
<path fill-rule="evenodd" clip-rule="evenodd" d="M25.3886 3.19434H6.60233C3.94337 3.19434 1.77783 5.36901 1.77783 8.01883V19.6963C1.77783 22.3553 3.95251 24.5208 6.60233 24.5208H13.236L14.3782 26.4945L15.5021 28.4407C15.7031 28.7971 16.2148 28.7971 16.4249 28.4407L17.5488 26.4945L18.691 24.5208H25.3978C28.0567 24.5208 30.2223 22.3461 30.2223 19.6963V8.02797C30.2223 5.36902 28.0476 3.19434 25.3886 3.19434ZM17.3124 11.7477C15.8596 11.7477 14.6809 12.9081 14.6809 14.3427C14.6809 15.7772 15.8596 16.9377 17.3124 16.9377C18.7653 16.9377 19.944 15.7772 19.944 14.3427C19.944 12.9081 18.7744 11.7477 17.3124 11.7477ZM17.3124 15.5854C16.618 15.5854 16.0515 15.028 16.0515 14.3427C16.0515 13.6574 16.618 13.1 17.3124 13.1C18.0069 13.1 18.5734 13.6574 18.5734 14.3427C18.5734 15.028 18.016 15.5854 17.3124 15.5854ZM7.48076 12.3421C7.89194 11.9675 8.4219 11.7482 8.98842 11.7482C10.3042 11.7482 11.355 12.9178 11.355 14.3523C11.355 15.7869 10.295 16.9473 8.98842 16.9473C8.41276 16.9473 7.89194 16.7189 7.48076 16.3534V16.8194H6.01879V10.1948H7.48076V12.3421ZM7.4899 14.8549C7.69092 15.3209 8.15692 15.6407 8.69602 15.6407C9.42701 15.6407 10.0118 15.065 10.0118 14.3432C10.0118 13.6213 9.42701 13.0457 8.69602 13.0457C8.15692 13.0457 7.69092 13.3655 7.4899 13.8315C7.4168 13.9868 7.38025 14.1604 7.38025 14.3432C7.38025 14.5259 7.42594 14.6995 7.4899 14.8549ZM24.5046 11.8571V12.2683C24.0934 11.9484 23.5817 11.7566 23.0335 11.7566C21.6903 11.7566 20.603 12.8805 20.603 14.2602C20.603 15.6399 21.6903 16.7638 23.0335 16.7638C23.5909 16.7638 24.1026 16.5719 24.5046 16.2521V16.9466C24.5046 16.9466 24.3584 17.6319 23.335 17.6319V18.9202C23.335 18.9202 24.4406 19.0481 25.4275 18.0613C25.4275 18.0613 25.8843 17.577 25.9848 16.9374V11.8571H24.5046ZM23.3076 15.5303C22.5675 15.5303 21.9736 14.9546 21.9736 14.2511C21.9736 13.5475 22.5766 12.9718 23.3076 12.9718C23.8284 12.9718 24.2853 13.2642 24.5046 13.6845C24.596 13.8581 24.6417 14.05 24.6417 14.2511C24.6417 14.4521 24.5868 14.6531 24.5046 14.8176C24.2853 15.247 23.8284 15.5303 23.3076 15.5303ZM11.5189 11.3914V10.0665C11.5189 10.0665 12.4874 9.93858 13.3463 10.9528C13.3463 10.9528 13.7392 11.4462 13.8306 12.1041V12.1407V16.819H12.3229V12.1407C12.195 11.4828 11.5189 11.3914 11.5189 11.3914Z" fill="#111111"/>
</svg>
