<svg width="19" height="19" viewBox="0 0 19 19" fill="none" xmlns="http://www.w3.org/2000/svg">
<path d="M17.7734 9.38673C17.7734 4.95152 14.1922 1.35693 9.77344 1.35693C5.35469 1.35693 1.77344 4.95152 1.77344 9.38673C1.77344 13.1507 4.35781 16.3124 7.84219 17.1813V11.8396H6.19219V9.38673H7.84219V8.32968C7.84219 5.59767 9.07344 4.33047 11.7484 4.33047C12.2547 4.33047 13.1297 4.43084 13.4891 4.53121V6.75195C13.3016 6.73313 12.9734 6.72059 12.5641 6.72059C11.2516 6.72059 10.7453 7.21931 10.7453 8.51475V9.38673H13.3578L12.9078 11.8396H10.7422V17.3569C14.7047 16.877 17.7734 13.4926 17.7734 9.38673Z" fill="black"/>
</svg>
