<svg width="19" height="19" viewBox="0 0 19 19" fill="none" xmlns="http://www.w3.org/2000/svg">
<path d="M10.5958 1.35693C11.4958 1.35933 11.9526 1.36413 12.347 1.37533L12.5022 1.38093C12.6813 1.38733 12.8581 1.39533 13.0717 1.40493C13.9229 1.44493 14.5036 1.57933 15.0132 1.77692C15.5412 1.98012 15.986 2.25531 16.4308 2.6993C16.8377 3.09908 17.1525 3.58286 17.3531 4.11687C17.5507 4.62645 17.6851 5.20724 17.7251 6.05922C17.7347 6.27201 17.7427 6.44881 17.7491 6.62881L17.7539 6.784C17.7659 7.17759 17.7707 7.63438 17.7723 8.53436L17.7731 9.13115V10.1791C17.775 10.7626 17.7689 11.3461 17.7547 11.9295L17.7499 12.0847C17.7435 12.2647 17.7355 12.4415 17.7259 12.6543C17.6859 13.5062 17.5499 14.0862 17.3531 14.5966C17.1525 15.1306 16.8377 15.6144 16.4308 16.0142C16.031 16.4211 15.5472 16.7359 15.0132 16.9366C14.5036 17.1342 13.9229 17.2685 13.0717 17.3085L12.5022 17.3325L12.347 17.3373C11.9526 17.3485 11.4958 17.3541 10.5958 17.3557L9.99908 17.3565H8.95193C8.36817 17.3586 7.78441 17.3525 7.20082 17.3381L7.04563 17.3333C6.85572 17.3262 6.66586 17.3179 6.47606 17.3085C5.6249 17.2685 5.04413 17.1342 4.53375 16.9366C4.00004 16.7358 3.51656 16.421 3.11702 16.0142C2.7098 15.6145 2.39475 15.1307 2.19387 14.5966C1.99628 14.087 1.86189 13.5062 1.82189 12.6543L1.79789 12.0847L1.79389 11.9295C1.77915 11.3461 1.77248 10.7626 1.77389 10.1791V8.53436C1.77168 7.95085 1.77755 7.36735 1.79149 6.784L1.79709 6.62881C1.80349 6.44881 1.81149 6.27201 1.82109 6.05922C1.86109 5.20724 1.99548 4.62725 2.19307 4.11687C2.39442 3.58264 2.71002 3.09884 3.11782 2.6993C3.51713 2.29255 4.00033 1.97778 4.53375 1.77692C5.04413 1.57933 5.6241 1.44493 6.47606 1.40493C6.68884 1.39533 6.86644 1.38733 7.04563 1.38093L7.20082 1.37613C7.78414 1.36192 8.36764 1.35579 8.95113 1.35773L10.5958 1.35693ZM9.77349 5.35684C8.71268 5.35684 7.69531 5.77825 6.9452 6.52838C6.1951 7.27851 5.77369 8.2959 5.77369 9.35674C5.77369 10.4176 6.1951 11.435 6.9452 12.1851C7.69531 12.9352 8.71268 13.3566 9.77349 13.3566C10.8343 13.3566 11.8517 12.9352 12.6018 12.1851C13.3519 11.435 13.7733 10.4176 13.7733 9.35674C13.7733 8.2959 13.3519 7.27851 12.6018 6.52838C11.8517 5.77825 10.8343 5.35684 9.77349 5.35684ZM9.77349 6.9568C10.0886 6.95675 10.4007 7.01877 10.6919 7.13933C10.9831 7.25989 11.2477 7.43662 11.4706 7.65944C11.6935 7.88226 11.8703 8.1468 11.9909 8.43795C12.1116 8.72911 12.1737 9.04118 12.1738 9.35634C12.1738 9.6715 12.1118 9.98359 11.9912 10.2748C11.8707 10.566 11.694 10.8306 11.4711 11.0535C11.2483 11.2764 10.9838 11.4532 10.6927 11.5738C10.4015 11.6945 10.0894 11.7566 9.77429 11.7567C9.1378 11.7567 8.52738 11.5038 8.07732 11.0538C7.62725 10.6037 7.37441 9.99324 7.37441 9.35674C7.37441 8.72024 7.62725 8.1098 8.07732 7.65972C8.52738 7.20965 9.1378 6.9568 9.77429 6.9568M13.9741 4.15687C13.7089 4.15687 13.4545 4.26222 13.267 4.44975C13.0795 4.63728 12.9741 4.89163 12.9741 5.15684C12.9741 5.42205 13.0795 5.6764 13.267 5.86393C13.4545 6.05146 13.7089 6.15682 13.9741 6.15682C14.2393 6.15682 14.4936 6.05146 14.6811 5.86393C14.8687 5.6764 14.974 5.42205 14.974 5.15684C14.974 4.89163 14.8687 4.63728 14.6811 4.44975C14.4936 4.26222 14.2393 4.15687 13.9741 4.15687Z" fill="black"/>
</svg>
