<svg width="34" height="34" viewBox="0 0 34 34" fill="none" xmlns="http://www.w3.org/2000/svg">
<path d="M17 4.25C25.2167 4.25 31.8765 9.44067 31.8765 15.8454C31.8765 22.2488 25.2167 27.4394 17.0015 27.4394C16.1835 27.438 15.3664 27.3859 14.5549 27.2836L8.31021 31.3678C7.60047 31.7433 7.34971 31.7022 7.64155 30.7828L8.90521 25.5723C4.82521 23.5039 2.12646 19.9198 2.12646 15.8454C2.12646 9.44208 8.7848 4.25 17.0015 4.25M25.3711 15.6683L27.4536 13.651C27.5738 13.5262 27.6408 13.3596 27.6406 13.1864C27.6404 13.0132 27.573 12.8468 27.4525 12.7222C27.332 12.5977 27.168 12.5248 26.9948 12.5189C26.8217 12.513 26.653 12.5745 26.5243 12.6905L23.793 15.334V13.1495C23.793 12.9722 23.7225 12.8021 23.5971 12.6767C23.4717 12.5513 23.3016 12.4808 23.1243 12.4808C22.947 12.4808 22.7769 12.5513 22.6515 12.6767C22.5261 12.8021 22.4556 12.9722 22.4556 13.1495V16.7719C22.4321 16.8754 22.4321 16.9829 22.4556 17.0864V19.125C22.4556 19.3023 22.5261 19.4724 22.6515 19.5978C22.7769 19.7232 22.947 19.7937 23.1243 19.7937C23.3016 19.7937 23.4717 19.7232 23.5971 19.5978C23.7225 19.4724 23.793 19.3023 23.793 19.125V17.1941L24.3979 16.609L26.4209 19.4891C26.4714 19.561 26.5356 19.6222 26.6098 19.6693C26.6839 19.7164 26.7667 19.7485 26.8532 19.7636C26.9398 19.7787 27.0285 19.7767 27.1142 19.7575C27.2 19.7384 27.2811 19.7025 27.353 19.652C27.425 19.6015 27.4862 19.5373 27.5333 19.4631C27.5804 19.389 27.6124 19.3062 27.6276 19.2197C27.6427 19.1331 27.6406 19.0444 27.6215 18.9586C27.6023 18.8729 27.5665 18.7917 27.516 18.7198L25.3711 15.6683ZM21.1806 18.394H19.1123V13.1708C19.1044 12.9989 19.0306 12.8367 18.9062 12.7179C18.7818 12.5991 18.6164 12.5329 18.4443 12.5329C18.2723 12.5329 18.1069 12.5991 17.9825 12.7179C17.8581 12.8367 17.7843 12.9989 17.7764 13.1708V19.0627C17.7764 19.431 18.0739 19.7313 18.4436 19.7313H21.1806C21.358 19.7313 21.528 19.6609 21.6535 19.5355C21.7788 19.4101 21.8493 19.24 21.8493 19.0627C21.8493 18.8853 21.7788 18.7152 21.6535 18.5898C21.528 18.4644 21.358 18.394 21.1806 18.394ZM12.8832 16.8484L13.8692 14.4288L14.773 16.847L12.8832 16.8484ZM16.4575 17.5383L16.4603 17.5157C16.4598 17.3472 16.3955 17.1853 16.2804 17.0623L14.7985 13.0957C14.7364 12.9066 14.6181 12.7411 14.4594 12.6211C14.3007 12.5011 14.1091 12.4324 13.9103 12.4242C13.7102 12.4241 13.5148 12.4845 13.3497 12.5975C13.1846 12.7105 13.0575 12.8709 12.9852 13.0574L10.6307 18.8303C10.5636 18.9945 10.5646 19.1786 10.6332 19.3422C10.7019 19.5057 10.8327 19.6352 10.9969 19.7023C11.1611 19.7694 11.3452 19.7685 11.5087 19.6998C11.6723 19.6311 11.8018 19.5003 11.8689 19.3361L12.3392 18.1843H15.2717L15.6939 19.3177C15.7227 19.4024 15.7682 19.4805 15.8277 19.5473C15.8872 19.6141 15.9596 19.6683 16.0404 19.7066C16.1212 19.7449 16.209 19.7667 16.2983 19.7705C16.3877 19.7743 16.477 19.7602 16.5608 19.7289C16.6446 19.6976 16.7213 19.6498 16.7864 19.5883C16.8514 19.5269 16.9034 19.453 16.9393 19.371C16.9753 19.2891 16.9944 19.2008 16.9956 19.1113C16.9968 19.0218 16.98 18.933 16.9462 18.8502L16.4575 17.5383ZM11.7499 13.1778C11.7503 13.09 11.7333 13.003 11.6999 12.9218C11.6665 12.8406 11.6174 12.7668 11.5554 12.7047C11.4934 12.6425 11.4197 12.5933 11.3385 12.5597C11.2574 12.5262 11.1704 12.509 11.0826 12.5092H6.48555C6.30821 12.5092 6.13813 12.5796 6.01273 12.705C5.88733 12.8304 5.81688 13.0005 5.81688 13.1778C5.81688 13.3552 5.88733 13.5253 6.01273 13.6507C6.13813 13.7761 6.30821 13.8465 6.48555 13.8465H8.12888V19.1392C8.12888 19.3165 8.19933 19.4866 8.32473 19.612C8.45013 19.7374 8.62021 19.8078 8.79755 19.8078C8.97489 19.8078 9.14497 19.7374 9.27037 19.612C9.39577 19.4866 9.46622 19.3165 9.46622 19.1392V13.8465H11.0812C11.1691 13.8469 11.2562 13.8298 11.3375 13.7964C11.4188 13.7629 11.4927 13.7137 11.5549 13.6515C11.617 13.5893 11.6663 13.5155 11.6997 13.4342C11.7332 13.3529 11.7503 13.2657 11.7499 13.1778Z" fill="#212121"/>
</svg>
