<svg width="34" height="34" viewBox="0 0 34 34" fill="none" xmlns="http://www.w3.org/2000/svg">
<path d="M16.9999 31.1176C16.9999 31.1176 27.3529 19.647 27.3529 13.4706C27.3529 7.62497 22.7156 2.88232 16.9999 2.88232C11.2842 2.88232 6.64697 7.62497 6.64697 13.4706C6.64697 19.647 16.9999 31.1176 16.9999 31.1176ZM16.9999 9.94115C17.9152 9.94115 18.7929 10.313 19.4401 10.9749C20.0873 11.6368 20.4509 12.5345 20.4509 13.4706C20.4509 14.4066 20.0873 15.3043 19.4401 15.9662C18.7929 16.6281 17.9152 17 16.9999 17C16.0847 17 15.2069 16.6281 14.5597 15.9662C13.9125 15.3043 13.5489 14.4066 13.5489 13.4706C13.5489 12.5345 13.9125 11.6368 14.5597 10.9749C15.2069 10.313 16.0847 9.94115 16.9999 9.94115Z" fill="#212121"/>
</svg>
