<svg width="32" height="32" viewBox="0 0 32 32" fill="none" xmlns="http://www.w3.org/2000/svg">
<path d="M30.0361 5.75L27.1445 3.08333C26.5159 2.41667 25.6358 2 24.672 2H5.43642C3.55058 2 2 3.54167 2 5.41667V26.5C2 27.0833 2.12572 27.5417 2.33526 27.8333C2.41908 27.9583 2.50289 28.0417 2.58671 28.125L5.3526 30.625C5.39451 30.6667 5.43642 30.7083 5.47832 30.75L5.52023 30.7917C5.56214 30.8333 5.60405 30.875 5.64595 30.875C5.81358 30.9583 5.98121 31 6.19075 31C6.69364 31 7.15462 30.7083 7.23844 30.625L10.4653 27.3333C11.1358 26.5 12.9798 26.3333 13.6503 26.3333H27.5636C29.4494 26.3333 31 24.7917 31 22.9167V8.08333C31 7.16667 30.6228 6.375 30.0361 5.75ZM26.935 5.83333V20.2917C26.935 21.5417 25.9292 22.5833 24.6301 22.5833H10.7168C10.4234 22.5833 7.82514 22.625 6.69364 23.9583L6.06503 24.625L4.93353 25.75L3.6763 27.0417C3.59249 27.0833 3.42486 27.1667 3.34104 27.1667C3.34104 27.1667 3.21532 27.0417 3.21532 26.4583V5.41667C3.21532 4.16667 4.2211 3.125 5.52023 3.125H24.7558C25.7616 3.125 26.5997 3.75 26.8931 4.66667C26.9769 4.91667 27.0188 5.125 27.0188 5.41667V5.83333H26.935Z" fill="#212121"/>
<path d="M9.5434 9.125C8.57953 9.125 7.8252 9.875 7.8252 10.8333V14.4167C7.8252 15.375 8.57953 16.125 9.5434 16.125C10.5073 16.125 11.2616 15.375 11.2616 14.4167V10.8333C11.2616 9.91667 10.5073 9.125 9.5434 9.125Z" fill="#212121"/>
<path d="M20.2299 9.125C19.2661 9.125 18.5117 9.875 18.5117 10.8333V14.4167C18.5117 15.375 19.2661 16.125 20.2299 16.125C21.1938 16.125 21.9481 15.375 21.9481 14.4167V10.8333C21.9062 9.91667 21.1519 9.125 20.2299 9.125Z" fill="#212121"/>
</svg>
