<svg width="19" height="19" viewBox="0 0 19 19" fill="none" xmlns="http://www.w3.org/2000/svg">
<path d="M17.424 5.79304C17.2307 5.06267 16.6631 4.48947 15.9421 4.29532C14.6351 3.94092 9.39472 3.94092 9.39472 3.94092C9.39472 3.94092 4.15433 3.94092 2.8473 4.29532C2.12629 4.48947 1.55869 5.06267 1.36539 5.79304C1.01562 7.1151 1.01562 9.87017 1.01562 9.87017C1.01562 9.87017 1.01562 12.6252 1.36539 13.9473C1.55869 14.6777 2.12629 15.2262 2.8473 15.4204C4.15433 15.7748 9.39472 15.7748 9.39472 15.7748C9.39472 15.7748 14.6351 15.7748 15.9421 15.4204C16.6631 15.2262 17.2307 14.6746 17.424 13.9473C17.7738 12.6252 17.7738 9.87017 17.7738 9.87017C17.7738 9.87017 17.7738 7.1151 17.424 5.79304ZM7.68269 12.3725V7.36781L12.0609 9.87017L7.68269 12.3725Z" fill="black"/>
</svg>
