<svg width="26" height="26" viewBox="0 0 26 26" fill="none" xmlns="http://www.w3.org/2000/svg">
<path fill-rule="evenodd" clip-rule="evenodd" d="M19.9804 4.20605H6.47769C4.56657 4.20605 3.01009 5.73361 3.01009 7.59493V15.7975C3.01009 17.6653 4.57314 19.1864 6.47769 19.1864H11.2457L12.0666 20.5728L12.8744 21.9399C13.0189 22.1902 13.3866 22.1902 13.5377 21.9399L14.3455 20.5728L15.1664 19.1864H19.9869C21.898 19.1864 23.4545 17.6588 23.4545 15.7975V7.60134C23.4545 5.73361 21.8915 4.20605 19.9804 4.20605ZM14.1752 10.2151C13.131 10.2151 12.2838 11.0302 12.2838 12.0379C12.2838 13.0456 13.131 13.8607 14.1752 13.8607C15.2194 13.8607 16.0666 13.0456 16.0666 12.0379C16.0666 11.0302 15.226 10.2151 14.1752 10.2151ZM14.1752 12.9108C13.6761 12.9108 13.2689 12.5192 13.2689 12.0379C13.2689 11.5565 13.6761 11.165 14.1752 11.165C14.6743 11.165 15.0815 11.5565 15.0815 12.0379C15.0815 12.5192 14.6809 12.9108 14.1752 12.9108ZM7.1084 10.6318C7.40394 10.3686 7.78485 10.2146 8.19203 10.2146C9.13774 10.2146 9.893 11.0361 9.893 12.0438C9.893 13.0515 9.13117 13.8666 8.19203 13.8666C7.77828 13.8666 7.40394 13.7062 7.1084 13.4494V13.7768H6.05761V9.12347H7.1084V10.6318ZM7.11497 12.3968C7.25945 12.7242 7.59439 12.9488 7.98187 12.9488C8.50727 12.9488 8.92758 12.5444 8.92758 12.0374C8.92758 11.5303 8.50727 11.126 7.98187 11.126C7.59439 11.126 7.25945 11.3506 7.11497 11.678C7.06243 11.7871 7.03616 11.909 7.03616 12.0374C7.03616 12.1658 7.069 12.2877 7.11497 12.3968ZM19.3437 10.2917V10.5805C19.0481 10.3558 18.6804 10.2211 18.2863 10.2211C17.3209 10.2211 16.5394 11.0105 16.5394 11.9797C16.5394 12.9488 17.3209 13.7383 18.2863 13.7383C18.6869 13.7383 19.0547 13.6035 19.3437 13.3789V13.8667C19.3437 13.8667 19.2386 14.348 18.503 14.348V15.253C18.503 15.253 19.2977 15.3429 20.007 14.6497C20.007 14.6497 20.3354 14.3095 20.4076 13.8602V10.2917H19.3437ZM18.4833 12.8718C17.9514 12.8718 17.5245 12.4675 17.5245 11.9733C17.5245 11.4791 17.9579 11.0747 18.4833 11.0747C18.8577 11.0747 19.1861 11.2801 19.3437 11.5753C19.4094 11.6973 19.4422 11.8321 19.4422 11.9733C19.4422 12.1145 19.4028 12.2557 19.3437 12.3712C19.1861 12.6729 18.8577 12.8718 18.4833 12.8718ZM10.0107 9.96418V9.03353C10.0107 9.03353 10.7069 8.94367 11.3242 9.6561C11.3242 9.6561 11.6066 10.0027 11.6723 10.4648V10.4905V13.7767H10.5887V10.4905C10.4967 10.0284 10.0107 9.96418 10.0107 9.96418Z" fill="white"/>
</svg>
