<svg width="19" height="19" viewBox="0 0 19 19" fill="none" xmlns="http://www.w3.org/2000/svg">
<path d="M9.50023 2.75C13.8502 2.75 17.376 5.498 17.376 8.88875C17.376 12.2788 13.8502 15.0267 9.50098 15.0267C9.06794 15.026 8.63536 14.9984 8.20573 14.9443L4.89973 17.1065C4.52398 17.3053 4.39123 17.2835 4.54573 16.7968L5.21473 14.0382C3.05473 12.9433 1.62598 11.0458 1.62598 8.88875C1.62598 5.49875 5.15098 2.75 9.50098 2.75M13.932 8.795L15.0345 7.727C15.0981 7.66093 15.1336 7.57275 15.1335 7.48103C15.1334 7.38932 15.0977 7.30122 15.0339 7.23531C14.9701 7.16939 14.8832 7.1308 14.7916 7.12767C14.6999 7.12453 14.6106 7.1571 14.5425 7.2185L13.0965 8.618V7.4615C13.0965 7.36761 13.0592 7.27757 12.9928 7.21118C12.9264 7.1448 12.8364 7.1075 12.7425 7.1075C12.6486 7.1075 12.5585 7.1448 12.4922 7.21118C12.4258 7.27757 12.3885 7.36761 12.3885 7.4615V9.37925C12.376 9.43405 12.376 9.49095 12.3885 9.54575V10.625C12.3885 10.7189 12.4258 10.8089 12.4922 10.8753C12.5585 10.9417 12.6486 10.979 12.7425 10.979C12.8364 10.979 12.9264 10.9417 12.9928 10.8753C13.0592 10.8089 13.0965 10.7189 13.0965 10.625V9.60275L13.4167 9.293L14.4877 10.8177C14.5145 10.8558 14.5484 10.8882 14.5877 10.9132C14.627 10.9381 14.6708 10.9551 14.7166 10.9631C14.7624 10.9711 14.8094 10.97 14.8548 10.9599C14.9002 10.9497 14.9432 10.9307 14.9812 10.904C15.0193 10.8773 15.0517 10.8433 15.0767 10.804C15.1016 10.7647 15.1185 10.7209 15.1266 10.6751C15.1346 10.6293 15.1335 10.5823 15.1233 10.5369C15.1132 10.4915 15.0942 10.4486 15.0675 10.4105L13.932 8.795ZM11.7135 10.238H10.6185V7.47275C10.6143 7.38178 10.5752 7.29592 10.5093 7.23303C10.4435 7.17014 10.3559 7.13504 10.2649 7.13504C10.1738 7.13504 10.0862 7.17014 10.0204 7.23303C9.9545 7.29592 9.91542 7.38178 9.91123 7.47275V10.592C9.91123 10.787 10.0687 10.946 10.2645 10.946H11.7135C11.8074 10.946 11.8974 10.9087 11.9638 10.8423C12.0302 10.7759 12.0675 10.6859 12.0675 10.592C12.0675 10.4981 12.0302 10.4081 11.9638 10.3417C11.8974 10.2753 11.8074 10.238 11.7135 10.238ZM7.32073 9.41975L7.84273 8.13875L8.32123 9.419L7.32073 9.41975ZM9.21298 9.785L9.21448 9.773C9.21422 9.68383 9.18019 9.59807 9.11923 9.533L8.33473 7.433C8.30184 7.33293 8.2392 7.24527 8.15517 7.18175C8.07114 7.11822 7.96973 7.08185 7.86448 7.0775C7.75855 7.07745 7.65509 7.10945 7.56768 7.16928C7.48027 7.22911 7.41301 7.31399 7.37473 7.41275L6.12823 10.469C6.09272 10.5559 6.0932 10.6534 6.12956 10.74C6.16592 10.8265 6.23518 10.8951 6.3221 10.9306C6.40903 10.9661 6.5065 10.9657 6.59307 10.9293C6.67964 10.8929 6.74822 10.8237 6.78373 10.7368L7.03273 10.127H8.58523L8.80873 10.727C8.82397 10.7718 8.84806 10.8132 8.87958 10.8485C8.91109 10.8839 8.94938 10.9126 8.99218 10.9329C9.03497 10.9532 9.08141 10.9647 9.12874 10.9667C9.17606 10.9688 9.22331 10.9613 9.26769 10.9447C9.31207 10.9281 9.35267 10.9028 9.38709 10.8703C9.42151 10.8377 9.44905 10.7986 9.46808 10.7552C9.48711 10.7119 9.49723 10.6651 9.49786 10.6177C9.49848 10.5704 9.4896 10.5234 9.47173 10.4795L9.21298 9.785ZM6.72073 7.4765C6.72092 7.43002 6.71193 7.38396 6.69425 7.34097C6.67658 7.29798 6.65058 7.25891 6.61775 7.22601C6.58492 7.19311 6.5459 7.16702 6.50295 7.14926C6.46 7.13149 6.41396 7.1224 6.36748 7.1225H3.93373C3.83984 7.1225 3.7498 7.1598 3.68341 7.22618C3.61702 7.29257 3.57973 7.38261 3.57973 7.4765C3.57973 7.57039 3.61702 7.66043 3.68341 7.72682C3.7498 7.7932 3.83984 7.8305 3.93373 7.8305H4.80373V10.6325C4.80373 10.7264 4.84102 10.8164 4.90741 10.8828C4.9738 10.9492 5.06384 10.9865 5.15773 10.9865C5.25161 10.9865 5.34165 10.9492 5.40804 10.8828C5.47443 10.8164 5.51173 10.7264 5.51173 10.6325V7.8305H6.36673C6.41327 7.8307 6.45939 7.82168 6.50243 7.80396C6.54547 7.78624 6.58457 7.76017 6.61749 7.72726C6.6504 7.69435 6.67646 7.65524 6.69418 7.6122C6.7119 7.56917 6.72092 7.52304 6.72073 7.4765Z" fill="#0A0A0A"/>
</svg>
