<svg width="22" height="22" viewBox="0 0 22 22" fill="none" xmlns="http://www.w3.org/2000/svg">
<g clip-path="url(#clip0_12184_5477)">
<path d="M11 22C13.9174 22 16.7153 20.8411 18.7782 18.7782C20.8411 16.7153 22 13.9174 22 11C22 8.08262 20.8411 5.28473 18.7782 3.22183C16.7153 1.15893 13.9174 0 11 0C8.08262 0 5.28473 1.15893 3.22183 3.22183C1.15893 5.28473 0 8.08262 0 11C0 13.9174 1.15893 16.7153 3.22183 18.7782C5.28473 20.8411 8.08262 22 11 22ZM15.8555 8.98047L10.3555 14.4805C9.95156 14.8844 9.29844 14.8844 8.89883 14.4805L6.14883 11.7305C5.74492 11.3266 5.74492 10.6734 6.14883 10.2738C6.55273 9.87422 7.20586 9.86992 7.60547 10.2738L9.625 12.2934L14.3945 7.51953C14.7984 7.11562 15.4516 7.11562 15.8512 7.51953C16.2508 7.92344 16.2551 8.57656 15.8512 8.97617L15.8555 8.98047Z" fill="#A17BD0"/>
</g>
<defs>
<clipPath id="clip0_12184_5477">
<rect width="22" height="22" fill="white"/>
</clipPath>
</defs>
</svg>
