<svg width="18" height="19" viewBox="0 0 18 19" fill="none" xmlns="http://www.w3.org/2000/svg">
<path d="M17 9.5298C17 5.09459 13.4187 1.5 9 1.5C4.58125 1.5 1 5.09459 1 9.5298C1 13.2938 3.58437 16.4555 7.06875 17.3243V11.9826H5.41875V9.5298H7.06875V8.47275C7.06875 5.74074 8.3 4.47353 10.975 4.47353C11.4813 4.47353 12.3562 4.57391 12.7156 4.67428V6.89502C12.5281 6.8762 12.2 6.86365 11.7906 6.86365C10.4781 6.86365 9.97188 7.36238 9.97188 8.65781V9.5298H12.5844L12.1344 11.9826H9.96875V17.5C13.9312 17.0201 17 13.6357 17 9.5298Z" fill="white"/>
</svg>
