<svg width="18" height="18" viewBox="0 0 18 18" fill="none" xmlns="http://www.w3.org/2000/svg">
<path d="M15.75 14.2498V9.20008C15.75 8.79316 15.6672 8.3905 15.5067 8.01659C15.3462 7.64268 15.1113 7.30534 14.8162 7.02508L10.0335 2.48233C9.75473 2.21749 9.38489 2.06982 9.00037 2.06982C8.61586 2.06982 8.24602 2.21749 7.96725 2.48233L3.18375 7.02508C2.88874 7.30534 2.65383 7.64268 2.4933 8.01659C2.33278 8.3905 2.25 8.79316 2.25 9.20008V14.2498C2.25 14.6477 2.40804 15.0292 2.68934 15.3105C2.97064 15.5918 3.35218 15.7498 3.75 15.7498H14.25C14.6478 15.7498 15.0294 15.5918 15.3107 15.3105C15.592 15.0292 15.75 14.6477 15.75 14.2498Z" stroke="#2B2B2B" stroke-linecap="round" stroke-linejoin="round"/>
</svg>
