<svg width="26" height="26" viewBox="0 0 26 26" fill="none" xmlns="http://www.w3.org/2000/svg">
<path d="M13 3.25C19.2833 3.25 24.3761 7.21933 24.3761 12.1171C24.3761 17.0138 19.2833 20.9831 13.0011 20.9831C12.3756 20.982 11.7508 20.9422 11.1302 20.8639L6.35485 23.9872C5.8121 24.2743 5.62035 24.2428 5.84352 23.5398L6.80985 19.5553C3.68985 17.9736 1.6261 15.2328 1.6261 12.1171C1.6261 7.22042 6.71777 3.25 13.0011 3.25M19.4014 11.9817L20.9939 10.439C21.0858 10.3436 21.1371 10.2162 21.1369 10.0837C21.1368 9.95123 21.0852 9.82399 20.9931 9.72878C20.901 9.63357 20.7755 9.57783 20.6431 9.5733C20.5107 9.56877 20.3817 9.61581 20.2833 9.7045L18.1946 11.726V10.0555C18.1946 9.91989 18.1407 9.78983 18.0448 9.69393C17.9489 9.59804 17.8189 9.54417 17.6833 9.54417C17.5477 9.54417 17.4176 9.59804 17.3217 9.69393C17.2258 9.78983 17.1719 9.91989 17.1719 10.0555V12.8256C17.1539 12.9047 17.1539 12.9869 17.1719 13.0661V14.625C17.1719 14.7606 17.2258 14.8907 17.3217 14.9866C17.4176 15.0825 17.5477 15.1363 17.6833 15.1363C17.8189 15.1363 17.9489 15.0825 18.0448 14.9866C18.1407 14.8907 18.1946 14.7606 18.1946 14.625V13.1484L18.6572 12.701L20.2042 14.9034C20.2428 14.9584 20.2919 15.0052 20.3486 15.0413C20.4053 15.0773 20.4686 15.1018 20.5348 15.1133C20.601 15.1249 20.6688 15.1233 20.7344 15.1087C20.8 15.094 20.862 15.0666 20.917 15.028C20.972 14.9894 21.0188 14.9403 21.0549 14.8836C21.0909 14.8268 21.1154 14.7636 21.1269 14.6974C21.1385 14.6312 21.1369 14.5634 21.1223 14.4978C21.1076 14.4322 21.0802 14.3702 21.0416 14.3152L19.4014 11.9817ZM16.1969 14.066H14.6153V10.0718C14.6092 9.94035 14.5528 9.81634 14.4576 9.72549C14.3625 9.63464 14.236 9.58395 14.1045 9.58395C13.9729 9.58395 13.8465 9.63464 13.7513 9.72549C13.6562 9.81634 13.5997 9.94035 13.5937 10.0718V14.5773C13.5937 14.859 13.8212 15.0887 14.1039 15.0887H16.1969C16.3325 15.0887 16.4626 15.0348 16.5585 14.9389C16.6544 14.843 16.7083 14.7129 16.7083 14.5773C16.7083 14.4417 16.6544 14.3117 16.5585 14.2158C16.4626 14.1199 16.3325 14.066 16.1969 14.066ZM9.85185 12.8841L10.6058 11.0338L11.297 12.883L9.85185 12.8841ZM12.5851 13.4117L12.5873 13.3943C12.5869 13.2655 12.5377 13.1417 12.4497 13.0477L11.3165 10.0143C11.269 9.86978 11.1785 9.74317 11.0572 9.65141C10.9358 9.55965 10.7893 9.50712 10.6373 9.50083C10.4843 9.50076 10.3348 9.54698 10.2086 9.6334C10.0823 9.71983 9.98515 9.84242 9.92985 9.98508L8.12935 14.3997C8.07806 14.5252 8.07875 14.666 8.13127 14.7911C8.18379 14.9161 8.28383 15.0152 8.40939 15.0665C8.53495 15.1177 8.67574 15.1171 8.80078 15.0645C8.92583 15.012 9.0249 14.912 9.07618 14.7864L9.43585 13.9057H11.6783L12.0012 14.7723C12.0232 14.8371 12.058 14.8968 12.1035 14.9479C12.149 14.999 12.2043 15.0404 12.2662 15.0698C12.328 15.0991 12.3951 15.1157 12.4634 15.1186C12.5318 15.1216 12.6 15.1107 12.6641 15.0868C12.7282 15.0629 12.7869 15.0263 12.8366 14.9793C12.8863 14.9323 12.9261 14.8758 12.9536 14.8131C12.9811 14.7505 12.9957 14.6829 12.9966 14.6145C12.9975 14.5461 12.9847 14.4782 12.9588 14.4148L12.5851 13.4117ZM8.98518 10.0772C8.98547 10.01 8.97247 9.9435 8.94695 9.8814C8.92142 9.8193 8.88386 9.76287 8.83644 9.71535C8.78901 9.66782 8.73266 9.63015 8.67062 9.60449C8.60857 9.57883 8.54207 9.56569 8.47493 9.56583H4.95952C4.8239 9.56583 4.69384 9.61971 4.59795 9.7156C4.50205 9.81149 4.44818 9.94155 4.44818 10.0772C4.44818 10.2128 4.50205 10.3428 4.59795 10.4387C4.69384 10.5346 4.8239 10.5885 4.95952 10.5885H6.21618V14.6358C6.21618 14.7714 6.27005 14.9015 6.36595 14.9974C6.46184 15.0933 6.5919 15.1472 6.72752 15.1472C6.86313 15.1472 6.99319 15.0933 7.08908 14.9974C7.18498 14.9015 7.23885 14.7714 7.23885 14.6358V10.5885H8.47385C8.54108 10.5888 8.6077 10.5758 8.66987 10.5502C8.73203 10.5246 8.78852 10.4869 8.83606 10.4394C8.88359 10.3918 8.92125 10.3354 8.94684 10.2732C8.97244 10.211 8.98547 10.1444 8.98518 10.0772Z" fill="white"/>
</svg>
