<svg width="24" height="24" viewBox="0 0 24 24" fill="none" xmlns="http://www.w3.org/2000/svg">
<g clip-path="url(#clip0_4284_10100)">
<path d="M8.78571 7.625V9.5H15.2143V7.625C15.2143 5.89844 13.7759 4.5 12 4.5C10.2241 4.5 8.78571 5.89844 8.78571 7.625ZM6.21429 9.5V7.625C6.21429 4.51953 8.8058 2 12 2C15.1942 2 17.7857 4.51953 17.7857 7.625V9.5H18.4286C19.8469 9.5 21 10.6211 21 12V19.5C21 20.8789 19.8469 22 18.4286 22H5.57143C4.15313 22 3 20.8789 3 19.5V12C3 10.6211 4.15313 9.5 5.57143 9.5H6.21429Z" fill="white"/>
</g>
<defs>
<clipPath id="clip0_4284_10100">
<rect width="18" height="20" fill="white" transform="translate(3 2)"/>
</clipPath>
</defs>
</svg>
