<svg width="21" height="21" viewBox="0 0 21 21" fill="none" xmlns="http://www.w3.org/2000/svg">
<path d="M10.5998 19.6002C10.5998 19.6002 16.7331 12.1252 16.7331 8.1002C16.7331 4.29082 13.9859 1.2002 10.5998 1.2002C7.21365 1.2002 4.46643 4.29082 4.46643 8.1002C4.46643 12.1252 10.5998 19.6002 10.5998 19.6002ZM10.5998 5.8002C11.142 5.8002 11.662 6.04252 12.0454 6.47385C12.4288 6.90518 12.6442 7.4902 12.6442 8.1002C12.6442 8.71019 12.4288 9.29521 12.0454 9.72654C11.662 10.1579 11.142 10.4002 10.5998 10.4002C10.0575 10.4002 9.53753 10.1579 9.15412 9.72654C8.77072 9.29521 8.55532 8.71019 8.55532 8.1002C8.55532 7.4902 8.77072 6.90518 9.15412 6.47385C9.53753 6.04252 10.0575 5.8002 10.5998 5.8002Z" fill="white"/>
</svg>
