<svg width="24" height="24" viewBox="0 0 24 24" fill="none" xmlns="http://www.w3.org/2000/svg">
<path d="M20.9685 4.53715L19.0121 2.73295C18.5868 2.28191 17.9914 2 17.3392 2H4.32499C3.04908 2 2 3.04305 2 4.31162V18.576C2 18.9707 2.08506 19.2808 2.22683 19.4781C2.28353 19.5627 2.34024 19.6191 2.39695 19.6755L4.26828 21.3669C4.29663 21.3951 4.32499 21.4233 4.35334 21.4515L4.38169 21.4797C4.41005 21.5078 4.4384 21.536 4.46675 21.536C4.58017 21.5924 4.69358 21.6206 4.83535 21.6206C5.17559 21.6206 5.48748 21.4233 5.54418 21.3669L7.7274 19.1398C8.18106 18.576 9.42861 18.4633 9.88227 18.4633H19.2956C20.5715 18.4633 21.6206 17.4202 21.6206 16.1516V6.11582C21.6206 5.49563 21.3654 4.96001 20.9685 4.53715ZM18.8703 4.59353V14.3756C18.8703 15.2214 18.1898 15.9261 17.3109 15.9261H7.89752C7.69905 15.9261 5.94113 15.9543 5.17559 16.8564L4.75029 17.3075L3.98474 18.0686L3.13414 18.9425C3.07743 18.9707 2.96402 19.0271 2.90731 19.0271C2.90731 19.0271 2.82225 18.9425 2.82225 18.5478V4.31162C2.82225 3.46591 3.50273 2.76114 4.38169 2.76114H17.3959C18.0764 2.76114 18.6435 3.184 18.842 3.80419C18.8987 3.97334 18.927 4.11429 18.927 4.31162V4.59353H18.8703Z" fill="white"/>
<path d="M7.10341 6.82227C6.45128 6.82227 5.94092 7.3297 5.94092 7.97808V10.4025C5.94092 11.0508 6.45128 11.5583 7.10341 11.5583C7.75554 11.5583 8.2659 11.0508 8.2659 10.4025V7.97808C8.2659 7.35789 7.75554 6.82227 7.10341 6.82227Z" fill="white"/>
<path d="M14.3339 6.82227C13.6817 6.82227 13.1714 7.3297 13.1714 7.97808V10.4025C13.1714 11.0508 13.6817 11.5583 14.3339 11.5583C14.986 11.5583 15.4964 11.0508 15.4964 10.4025V7.97808C15.468 7.35789 14.9577 6.82227 14.3339 6.82227Z" fill="white"/>
</svg>
