<svg width="187" height="32" viewBox="0 0 187 32" fill="none" xmlns="http://www.w3.org/2000/svg">
<path d="M39.259 6.44445C39.2549 7.14402 39.3619 7.81895 39.5802 8.46914C39.7983 9.11933 40.1151 9.69754 40.5307 10.2037C40.9503 10.7058 41.4484 11.0823 42.0244 11.3333L41.1972 12.4321C40.5801 12.1317 40.0491 11.6996 39.6047 11.1358C39.1602 10.572 38.8166 9.91566 38.5738 9.16666C38.3228 9.96089 37.9689 10.6605 37.5121 11.2654C37.0553 11.8663 36.5142 12.3251 35.8887 12.642L35.0244 11.5309C35.6129 11.2552 36.1211 10.8519 36.5491 10.321C36.9771 9.79011 37.3022 9.18724 37.5244 8.51236C37.7467 7.83744 37.8598 7.14817 37.864 6.44445V4.66667H39.259V6.44445ZM40.7899 7.37035H43.1357V3.76544H44.4936V14.9383H43.1357V8.4815H40.7899V7.37035ZM50.7802 3.87655C51.6276 3.87655 52.3521 3.95268 52.953 4.10493C53.5535 4.25308 54.0126 4.46914 54.3294 4.75307C54.6463 5.03704 54.8047 5.38272 54.8047 5.79011C54.8047 6.20164 54.6463 6.55143 54.3294 6.83951C54.0126 7.12759 53.5535 7.3457 52.953 7.49385C52.3521 7.63785 51.6276 7.71192 50.7802 7.71603C49.9324 7.71192 49.2078 7.63785 48.6073 7.49385C48.0065 7.3457 47.5474 7.12759 47.2306 6.83951C46.9137 6.55143 46.7553 6.20164 46.7553 5.79011C46.7553 5.38272 46.9137 5.03704 47.2306 4.75307C47.5474 4.46914 48.0065 4.25308 48.6073 4.10493C49.2122 3.95268 49.9363 3.87655 50.7802 3.87655ZM45.706 8.2963H55.8789V9.37039H51.4589V10.2222H54.6072V12.9506H48.2617V13.7778H54.9157V14.8271H46.9157V11.9753H53.2616V11.2346H46.9034V10.2222H50.0888V9.37039H45.706V8.2963ZM48.1996 5.79011C48.1957 6.09466 48.4098 6.32099 48.8416 6.46914C49.2738 6.61729 49.9197 6.69547 50.7802 6.70373C51.6525 6.69547 52.3047 6.61729 52.7369 6.46914C53.1687 6.32099 53.3848 6.09466 53.3848 5.79011C53.3848 5.50207 53.1648 5.28395 52.7243 5.13581C52.2881 4.98355 51.6402 4.90537 50.7802 4.90122C49.9324 4.90537 49.288 4.98355 48.8479 5.13581C48.4118 5.28395 48.1957 5.50207 48.1996 5.79011ZM65.8814 14.9259H64.5726V9.23457H63.3135V14.358H62.0541V3.97531H63.3135V8.13583H64.5726V3.76544H65.8814V14.9259ZM56.622 5.08642H60.795V6.19753H58.0047V11.1605C58.6506 11.1523 59.2353 11.1276 59.758 11.0864C60.2802 11.0453 60.8112 10.9753 61.3505 10.8765L61.4492 12C60.8278 12.1235 60.2166 12.2058 59.6157 12.2469C59.0192 12.2881 58.2721 12.3128 57.375 12.321H56.622V5.08642ZM73.4765 5.92593H66.8592V4.83951H69.4887V3.71605H70.8592V4.83951H73.4765V5.92593ZM67.4269 8.39507C67.4269 7.99179 67.5423 7.6358 67.7726 7.32717C68.0073 7.01851 68.3324 6.77986 68.748 6.61112C69.1636 6.44239 69.6369 6.35805 70.1678 6.35805C70.6984 6.35805 71.1697 6.44239 71.5814 6.61112C71.997 6.77986 72.3197 7.01851 72.5505 7.32717C72.7808 7.6358 72.8961 7.99179 72.8961 8.39507C72.8961 8.79834 72.7808 9.15433 72.5505 9.46296C72.3197 9.77162 71.997 10.0103 71.5814 10.179C71.1697 10.3477 70.6984 10.4321 70.1678 10.4321C69.6369 10.4321 69.1636 10.3477 68.748 10.179C68.3324 10.0103 68.0073 9.77162 67.7726 9.46296C67.5423 9.15433 67.4269 8.79834 67.4269 8.39507ZM68.217 11.2716H75.6493V14.9259H74.2789V12.3704H68.217V11.2716ZM68.7602 8.39507C68.7563 8.70369 68.8795 8.94444 69.1308 9.11728C69.3817 9.28601 69.7191 9.37039 70.143 9.37039C70.5834 9.37039 70.9331 9.28601 71.1922 9.11728C71.4557 8.94855 71.5873 8.70784 71.5873 8.39507C71.5873 8.0823 71.4577 7.83744 71.1986 7.66049C70.9394 7.48354 70.5957 7.39509 70.1678 7.39509C69.7396 7.39509 69.3959 7.48354 69.1367 7.66049C68.8815 7.83744 68.7563 8.0823 68.7602 8.39507ZM74.2789 3.76544H75.6493V6.72838H77.2047V7.85186H75.6493V10.7531H74.2789V3.76544ZM86.5653 5.92593C86.5653 6.55143 86.557 7.09053 86.5404 7.54323C86.5281 7.99589 86.493 8.51647 86.4357 9.10495C86.378 9.68929 86.2852 10.321 86.158 11L84.812 10.8642C84.9807 9.95062 85.0858 9.1317 85.1269 8.40739C85.1723 7.68312 85.1948 6.85598 85.1948 5.92593V5.88887H78.4416V4.79013H86.5653V5.92593ZM77.4172 12.358H79.7011V8.80245H81.0715V12.358H82.491V8.80245H83.837V12.358H87.5901V13.4815H77.4172V12.358ZM99.9776 12.2716H98.6072V10.0741H96.953V8.97533H98.6072V7.7284H96.953V6.61729H98.6072V3.77778H99.9776V12.2716ZM90.6565 5.01235H93.1506V3.76544H94.5206V5.01235H96.891V6.11113H90.6565V5.01235ZM91.2369 8.74074C91.2369 8.32099 91.3459 7.94651 91.564 7.61727C91.786 7.28806 92.0926 7.03088 92.4837 6.84567C92.8748 6.66051 93.3193 6.56791 93.817 6.56791C94.3192 6.56791 94.7675 6.66051 95.1626 6.84567C95.5577 7.03088 95.8686 7.28806 96.095 7.61727C96.3213 7.94651 96.4343 8.32099 96.4343 8.74074C96.4343 9.16461 96.3213 9.54114 96.095 9.87038C95.8725 10.1955 95.562 10.4506 95.1626 10.6358C94.7675 10.821 94.3192 10.9136 93.817 10.9136C93.3193 10.9136 92.8724 10.821 92.4774 10.6358C92.0867 10.4506 91.7821 10.1934 91.564 9.86422C91.3459 9.53498 91.2369 9.1605 91.2369 8.74074ZM92.5208 8.74074C92.5165 9.08231 92.6338 9.35392 92.8724 9.55556C93.1114 9.75309 93.4259 9.85186 93.817 9.85186C94.2081 9.85186 94.525 9.75309 94.7675 9.55556C95.0105 9.35392 95.1338 9.08231 95.1381 8.74074C95.1338 8.40739 95.0105 8.14199 94.7675 7.94446C94.525 7.74693 94.2081 7.64611 93.817 7.642C93.4303 7.64611 93.1154 7.74693 92.8724 7.94446C92.6338 8.14199 92.5165 8.40739 92.5208 8.74074ZM92.6196 11.5432H94.0146V13.5926H100.225V14.7037H92.6196V11.5432ZM110.807 14.9259H109.499V9.23457H108.239V14.358H106.98V3.97531H108.239V8.13583H109.499V3.76544H110.807V14.9259ZM101.548 5.08642H105.721V6.19753H102.931V11.1605C103.577 11.1523 104.161 11.1276 104.684 11.0864C105.206 11.0453 105.737 10.9753 106.276 10.8765L106.375 12C105.754 12.1235 105.143 12.2058 104.542 12.2469C103.945 12.2881 103.198 12.3128 102.301 12.321H101.548V5.08642ZM120.575 7.28395H122.131V8.41976H120.575V12.1111H119.205V3.77778H120.575V7.28395ZM111.785 5.01235H114.415V3.76544H115.785V5.01235H118.402V6.11113H111.785V5.01235ZM112.353 8.70369C112.353 8.27983 112.468 7.9074 112.699 7.58641C112.929 7.26132 113.252 7.0103 113.668 6.83335C114.083 6.6564 114.559 6.56791 115.093 6.56791C115.624 6.56791 116.096 6.6564 116.507 6.83335C116.923 7.0103 117.246 7.26132 117.476 7.58641C117.707 7.9074 117.822 8.27983 117.822 8.70369C117.822 9.12348 117.707 9.49381 117.476 9.81484C117.246 10.1317 116.925 10.3786 116.513 10.5556C116.102 10.7284 115.628 10.8148 115.093 10.8148C114.555 10.8148 114.077 10.7284 113.661 10.5556C113.25 10.3786 112.929 10.1317 112.699 9.81484C112.468 9.49381 112.353 9.12348 112.353 8.70369ZM113.427 11.4568H114.797V13.5926H121.019V14.7037H113.427V11.4568ZM113.686 8.70369C113.682 9.03293 113.806 9.29012 114.056 9.47532C114.312 9.66049 114.651 9.75309 115.075 9.75309C115.511 9.75309 115.859 9.66254 116.118 9.48149C116.382 9.29628 116.513 9.03704 116.513 8.70369C116.513 8.37037 116.384 8.10904 116.125 7.91977C115.865 7.72634 115.522 7.62963 115.093 7.62963C114.666 7.62963 114.322 7.72634 114.063 7.91977C113.808 8.10904 113.682 8.37037 113.686 8.70369ZM131.293 5.12348V5.46916C131.293 5.93415 131.277 6.37859 131.244 6.80249C131.216 7.22221 131.152 7.67491 131.053 8.16048H132.541V9.27163H128.108V11.0123H131.318V14.9259H129.948V12.1111H123.38V11.0123H126.738V9.27163H122.343V8.16048H129.676C129.775 7.642 129.841 7.16666 129.874 6.73458C129.907 6.30246 129.923 5.84775 129.923 5.37039H123.602V4.27161H131.293V5.12348ZM138.666 9.17286H143.086V10.2839H132.914V9.17286H137.308V7.75309H138.666V9.17286ZM133.395 7.28395C134.066 7.2181 134.66 7.09259 135.179 6.90742C135.701 6.71811 136.119 6.48972 136.432 6.22223C136.749 5.95473 136.946 5.66669 137.025 5.35803H133.839V4.25924H142.173V5.35803H138.956C139.035 5.66254 139.23 5.95062 139.543 6.22223C139.86 6.48972 140.279 6.71811 140.802 6.90742C141.329 7.09259 141.93 7.2181 142.605 7.28395L142.111 8.35801C141.103 8.25513 140.238 8.01648 139.518 7.642C138.802 7.26748 138.292 6.79834 137.987 6.23455C137.683 6.80249 137.173 7.27368 136.456 7.64816C135.741 8.01853 134.881 8.25513 133.876 8.35801L133.395 7.28395ZM134.099 12.9506C134.099 12.535 134.253 12.1831 134.561 11.8951C134.87 11.6029 135.315 11.3807 135.895 11.2284C136.479 11.0762 137.177 11 137.987 11C138.794 11 139.485 11.0762 140.061 11.2284C140.638 11.3807 141.08 11.6029 141.389 11.8951C141.697 12.1831 141.851 12.535 141.851 12.9506C141.851 13.3704 141.697 13.7263 141.389 14.0185C141.084 14.3107 140.642 14.5329 140.061 14.6852C139.485 14.8375 138.794 14.9136 137.987 14.9136C137.177 14.9136 136.479 14.8375 135.895 14.6852C135.315 14.5329 134.87 14.3107 134.561 14.0185C134.253 13.7263 134.099 13.3704 134.099 12.9506ZM135.494 12.9506C135.489 13.2552 135.697 13.4856 136.117 13.642C136.541 13.7984 137.164 13.8765 137.987 13.8765C138.794 13.8765 139.409 13.7984 139.833 13.642C140.261 13.4856 140.477 13.2552 140.481 12.9506C140.477 12.6543 140.263 12.4321 139.839 12.284C139.415 12.1317 138.798 12.0535 137.987 12.0494C137.164 12.0535 136.541 12.1317 136.117 12.284C135.697 12.4321 135.489 12.6543 135.494 12.9506ZM152.286 6.51852H153.842V7.65432H152.286V10.2839H150.916V3.76544H152.286V6.51852ZM143.496 4.80245H146.126V3.67902H147.496V4.80245H150.113V5.90124H143.496V4.80245ZM144.064 8.24692C144.064 7.85596 144.179 7.51234 144.41 7.21604C144.64 6.91975 144.961 6.69136 145.373 6.53085C145.788 6.36627 146.265 6.28393 146.805 6.28393C147.336 6.28393 147.807 6.36627 148.218 6.53085C148.634 6.69136 148.957 6.91975 149.187 7.21604C149.418 7.51234 149.533 7.85596 149.533 8.24692C149.533 8.63787 149.418 8.9815 149.187 9.27779C148.957 9.57409 148.634 9.80453 148.218 9.96915C147.807 10.1296 147.336 10.2099 146.805 10.2099C146.265 10.2099 145.788 10.1296 145.373 9.96915C144.961 9.80864 144.64 9.58025 144.41 9.28395C144.179 8.98355 144.064 8.63787 144.064 8.24692ZM145.076 10.7284H146.435V11.6914H150.916V10.7284H152.286V14.7901H145.076V10.7284ZM145.397 8.24692C145.393 8.54321 145.519 8.77571 145.774 8.94444C146.033 9.11317 146.377 9.19752 146.805 9.19752C147.233 9.19752 147.576 9.11317 147.835 8.94444C148.095 8.77571 148.225 8.54321 148.225 8.24692C148.225 7.95473 148.095 7.72429 147.835 7.55556C147.576 7.38272 147.233 7.29632 146.805 7.29632C146.377 7.29632 146.033 7.38272 145.774 7.55556C145.519 7.72429 145.393 7.95473 145.397 8.24692ZM150.916 13.7037V12.7531H146.435V13.7037H150.916ZM163.4 11.9629H162.03V9.19752H159.369C159.101 9.49796 158.776 9.73251 158.393 9.90124C158.011 10.07 157.597 10.1564 157.153 10.1605C156.597 10.1605 156.095 10.037 155.647 9.79011C155.198 9.54319 154.844 9.20372 154.585 8.7716C154.33 8.33541 154.202 7.84775 154.202 7.30865C154.202 6.76133 154.33 6.27161 154.585 5.83949C154.844 5.4033 155.198 5.06173 155.647 4.81482C156.095 4.56791 156.597 4.44445 157.153 4.44445C157.593 4.44856 158.005 4.53294 158.388 4.69752C158.77 4.86215 159.095 5.09464 159.363 5.39505H162.03V3.77778H163.4V11.9629ZM155.511 7.30865C155.511 7.63374 155.581 7.91977 155.721 8.16668C155.861 8.41359 156.054 8.60492 156.301 8.74074C156.552 8.87242 156.836 8.93828 157.153 8.93828C157.458 8.93828 157.731 8.87242 157.974 8.74074C158.221 8.60492 158.414 8.41359 158.554 8.16668C158.698 7.91977 158.77 7.63374 158.77 7.30865C158.77 6.98355 158.698 6.69752 158.554 6.45061C158.414 6.19959 158.221 6.00617 157.974 5.87038C157.731 5.73456 157.458 5.66669 157.153 5.66669C156.836 5.66669 156.552 5.73456 156.301 5.87038C156.054 6.00617 155.861 6.19753 155.721 6.44445C155.581 6.69136 155.511 6.97944 155.511 7.30865ZM156.079 11.1234H157.449V13.5926H163.684V14.7037H156.079V11.1234ZM159.968 6.5062C160.042 6.78191 160.079 7.04941 160.079 7.30865C160.079 7.57203 160.044 7.83127 159.974 8.08644H162.03V6.5062H159.968ZM173.55 5.44443C173.546 6.17695 173.528 6.81482 173.495 7.35803C173.462 7.89713 173.382 8.51441 173.254 9.20988H174.797V10.321H170.365V14.9383H168.982V10.321H164.624V9.20988H171.859C171.995 8.535 172.081 7.92182 172.118 7.37035C172.159 6.81893 172.18 6.21401 172.18 5.55556H165.822V4.44445H173.55V5.44443ZM183.997 6.90126H185.565V8.03706H183.997V11.8395H182.627V3.76544H183.997V6.90126ZM175.664 4.69136H180.664V5.79011H177.022V8.82718C178.108 8.82718 178.983 8.80455 179.645 8.75927C180.312 8.70989 180.968 8.61729 181.614 8.4815L181.763 9.59258C181.051 9.73251 180.323 9.82716 179.577 9.87655C178.833 9.92593 177.828 9.95062 176.565 9.95062H175.664V4.69136ZM176.849 10.9877H178.22V13.5926H184.442V14.7037H176.849V10.9877Z" fill="black"/>
<path d="M38.918 20.9495C38.8884 20.6537 38.7539 20.423 38.5143 20.2573C38.2747 20.0917 37.9686 20.0089 37.5959 20.0089C37.3386 20.0089 37.1123 20.0503 36.9171 20.1331C36.7248 20.213 36.5754 20.3254 36.469 20.4703C36.3625 20.6152 36.3092 20.7779 36.3092 20.9583C36.3092 21.2305 36.4216 21.4405 36.6464 21.5883C36.8712 21.7363 37.1493 21.8487 37.4805 21.9255L38.1017 22.0941C39.3351 22.3929 39.9532 22.9963 39.9564 23.9043C39.9532 24.2681 39.8572 24.592 39.668 24.876C39.4815 25.1599 39.2079 25.3832 38.847 25.5459C38.4892 25.7056 38.0632 25.7855 37.5693 25.7855C37.0931 25.7855 36.6775 25.7101 36.3226 25.5592C35.9706 25.4054 35.694 25.1865 35.4929 24.9026C35.2947 24.6186 35.1853 24.2829 35.1646 23.8955H36.1406C36.1673 24.2327 36.3122 24.49 36.5754 24.6675C36.8417 24.842 37.1729 24.9307 37.5693 24.9336C37.8414 24.9336 38.0839 24.8907 38.2969 24.805C38.5128 24.7162 38.6814 24.5935 38.8027 24.4367C38.9269 24.277 38.989 24.0936 38.989 23.8866C38.989 23.7091 38.9373 23.5597 38.8337 23.4385C38.7302 23.3172 38.5912 23.2181 38.4167 23.1412C38.2451 23.0613 38.0307 22.9874 37.7734 22.9193L37.0102 22.7153C36.4719 22.5674 36.0578 22.3544 35.768 22.0764C35.481 21.7984 35.3361 21.4434 35.3332 21.0116C35.3332 20.6477 35.4322 20.3268 35.6304 20.0488C35.8316 19.7678 36.1052 19.5504 36.4512 19.3966C36.8002 19.2428 37.1907 19.1659 37.6225 19.1659C38.0514 19.1659 38.4344 19.2428 38.7716 19.3966C39.1088 19.5475 39.3735 19.7589 39.5657 20.0311C39.7581 20.3002 39.8588 20.6063 39.8675 20.9495H38.918ZM46.3828 25.679H45.4868L42.2304 20.985H42.177V25.679H41.2008V19.2546H42.1059L45.3624 23.9576H45.4244V19.2546H46.3828V25.679ZM52.9958 19.2546V23.4784C52.9958 23.925 52.8895 24.3228 52.6766 24.6719C52.4664 25.0209 52.1677 25.2945 51.7802 25.4927C51.3958 25.6879 50.9521 25.7855 50.4492 25.7855C49.9404 25.7855 49.4924 25.6879 49.1048 25.4927C48.7177 25.2945 48.4186 25.0209 48.2088 24.6719C47.9986 24.3228 47.8936 23.925 47.8936 23.4784V19.2546H48.8698V23.3985C48.8698 23.6884 48.9334 23.9472 49.0606 24.175C49.1878 24.3998 49.3711 24.5772 49.6109 24.7074C49.8503 24.8346 50.13 24.8981 50.4492 24.8981C50.7688 24.8981 51.0469 24.8346 51.2836 24.7074C51.5198 24.5772 51.702 24.3998 51.8292 24.175C51.9564 23.9472 52.02 23.6884 52.02 23.3985V19.2546H52.9958ZM61.2707 21.3488C61.2206 21.0796 61.1155 20.8474 60.9555 20.6522C60.799 20.457 60.6035 20.3091 60.37 20.2085C60.1393 20.108 59.8864 20.0591 59.6115 20.0621C59.2385 20.0591 58.9059 20.1523 58.6132 20.3416C58.3232 20.528 58.0941 20.803 57.9254 21.1669C57.7598 21.5277 57.6769 21.961 57.6769 22.4668C57.6769 22.9756 57.7598 23.4118 57.9254 23.7756C58.0941 24.1365 58.3232 24.4101 58.6132 24.5965C58.9059 24.7828 59.2385 24.8745 59.6115 24.8715C59.8833 24.8745 60.1349 24.8272 60.3657 24.7296C60.5964 24.629 60.79 24.4826 60.9468 24.2903C61.1064 24.0981 61.2146 23.8688 61.2707 23.6026L62.2556 23.6115C62.1877 24.0315 62.0324 24.4057 61.7899 24.734C61.5501 25.0594 61.2411 25.3137 60.8626 25.4971C60.4869 25.6775 60.067 25.7677 59.6024 25.7677C59.0434 25.7677 58.5452 25.6346 58.1071 25.3685C57.6694 25.1022 57.3265 24.7207 57.078 24.2238C56.8326 23.7239 56.7098 23.1382 56.7098 22.4668C56.7098 21.7954 56.8338 21.2112 57.0823 20.7143C57.3308 20.2144 57.6741 19.8314 58.1118 19.5652C58.5496 19.299 59.0465 19.1659 59.6024 19.1659C60.0551 19.1659 60.4692 19.2531 60.8449 19.4277C61.2206 19.5992 61.5311 19.8492 61.7764 20.1775C62.0249 20.5058 62.1845 20.8962 62.2556 21.3488H61.2707ZM65.4703 25.7766C65.0207 25.7766 64.624 25.6731 64.2811 25.466C63.941 25.259 63.6779 24.9691 63.4914 24.5965C63.3081 24.2208 63.2164 23.786 63.2164 23.292C63.2164 22.7981 63.3081 22.3633 63.4914 21.9876C63.6779 21.609 63.941 21.3162 64.2811 21.1092C64.624 20.9021 65.0207 20.7986 65.4703 20.7986C65.9167 20.7986 66.3102 20.9021 66.6503 21.1092C66.9904 21.3162 67.2524 21.609 67.4357 21.9876C67.6218 22.3633 67.715 22.7981 67.715 23.292C67.715 23.786 67.6218 24.2208 67.4357 24.5965C67.2524 24.9691 66.9904 25.259 66.6503 25.466C66.3102 25.6731 65.9167 25.7766 65.4703 25.7766ZM64.1658 23.292C64.1658 23.6085 64.2144 23.8955 64.3123 24.1528C64.4099 24.4071 64.5561 24.6098 64.7512 24.7606C64.9464 24.9114 65.1862 24.9869 65.4703 24.9869C65.748 24.9869 65.9834 24.9114 66.1754 24.7606C66.3706 24.6098 66.5156 24.4071 66.6104 24.1528C66.708 23.8955 66.757 23.6085 66.757 23.292C66.757 22.9756 66.708 22.6887 66.6104 22.4313C66.5156 22.171 66.3706 21.964 66.1754 21.8102C65.9834 21.6564 65.748 21.5795 65.4703 21.5795C65.1862 21.5795 64.9464 21.6564 64.7512 21.8102C64.5561 21.964 64.4099 22.171 64.3123 22.4313C64.2144 22.6887 64.1658 22.9756 64.1658 23.292ZM69.7938 25.679H68.8445V20.8607H69.7583V21.6504H69.8116C69.9269 21.3813 70.1043 21.1728 70.3441 21.0249C70.5867 20.874 70.8822 20.7986 71.2314 20.7986C71.5625 20.7986 71.8509 20.8681 72.0966 21.0071C72.3451 21.1462 72.5355 21.3517 72.6687 21.6239C72.805 21.896 72.8729 22.2272 72.8729 22.6177V25.679H71.9323V22.733C71.9295 22.381 71.8379 22.1075 71.6573 21.9122C71.4799 21.7141 71.2314 21.615 70.9118 21.615C70.693 21.615 70.4994 21.6623 70.3307 21.757C70.162 21.8516 70.0304 21.9906 69.9356 22.174C69.8412 22.3544 69.7938 22.5703 69.7938 22.8218V25.679ZM76.4779 21.615H75.493V24.2592C75.4957 24.5077 75.5475 24.6778 75.6482 24.7695C75.7486 24.8582 75.8892 24.9041 76.0698 24.907C76.2116 24.907 76.3712 24.8981 76.549 24.8804V25.7056C76.3771 25.7293 76.1792 25.7411 75.9544 25.7411C75.6968 25.7411 75.4618 25.6938 75.2488 25.5992C75.0359 25.5045 74.866 25.361 74.7388 25.1688C74.6116 24.9736 74.5492 24.7355 74.5523 24.4545V21.615H73.8424V20.8607H74.5523V19.7072H75.493V20.8607H76.4779V21.615ZM79.6214 25.7766C79.154 25.7766 78.7475 25.6746 78.4014 25.4705C78.0553 25.2664 77.7906 24.978 77.6069 24.6053C77.4236 24.2326 77.332 23.7978 77.332 23.3009C77.332 22.8099 77.4236 22.3751 77.6069 21.9965C77.7906 21.6179 78.0506 21.3236 78.388 21.1136C78.725 20.9036 79.1157 20.7986 79.5593 20.7986C79.9469 20.7986 80.3017 20.8829 80.624 21.0515C80.9464 21.2201 81.2052 21.4863 81.4003 21.8501C81.5986 22.211 81.6978 22.668 81.6978 23.2211V23.5582H78.2726C78.2813 23.8599 78.3437 24.1188 78.4591 24.3347C78.5745 24.5506 78.7325 24.7147 78.9336 24.8272C79.1346 24.9396 79.3669 24.9958 79.6301 24.9958C79.8845 24.9958 80.1006 24.9484 80.278 24.8538C80.4585 24.7562 80.5916 24.629 80.6774 24.4722H81.6358C81.5647 24.7325 81.4375 24.9617 81.2542 25.1599C81.0708 25.3551 80.8401 25.5075 80.562 25.6169C80.2839 25.7234 79.9702 25.7766 79.6214 25.7766ZM80.7659 22.8484C80.7659 22.6058 80.7157 22.3884 80.6153 22.1962C80.5178 22.0009 80.3771 21.8501 80.1938 21.7436C80.0133 21.6342 79.8047 21.5795 79.568 21.5795C79.3227 21.5795 79.1038 21.6371 78.9114 21.7525C78.7222 21.8649 78.5729 22.0187 78.4634 22.2139C78.354 22.4091 78.292 22.6206 78.277 22.8484H80.7659ZM82.836 20.8607H83.7498V21.6504H83.8031C83.9066 21.3813 84.0721 21.1728 84.3001 21.0249C84.5276 20.874 84.7998 20.7986 85.1163 20.7986C85.4327 20.7986 85.7022 20.8726 85.9238 21.0204C86.1458 21.1684 86.3082 21.3783 86.4117 21.6504H86.465C86.5804 21.3872 86.7637 21.1802 87.0153 21.0293C87.2698 20.8755 87.5684 20.7986 87.9113 20.7986C88.2072 20.7986 88.466 20.8607 88.688 20.985C88.9128 21.1062 89.087 21.2911 89.2115 21.5396C89.3387 21.788 89.4023 22.0912 89.4023 22.4491V25.679H88.4526V22.5378C88.4526 22.2272 88.3684 21.9965 88.1997 21.8457C88.0314 21.6919 87.8138 21.615 87.5475 21.615C87.3496 21.615 87.1781 21.6579 87.0331 21.7436C86.8881 21.8264 86.7771 21.9433 86.7001 22.0941C86.6262 22.245 86.5895 22.4166 86.5895 22.6088V25.679H85.6488V22.4846C85.6488 22.31 85.6117 22.1577 85.5378 22.0276C85.4639 21.8945 85.3604 21.7924 85.2273 21.7214C85.0942 21.6504 84.9417 21.615 84.7702 21.615C84.5928 21.615 84.4285 21.6623 84.278 21.757C84.127 21.8486 84.0073 21.9773 83.9185 22.1429C83.8296 22.3086 83.7853 22.4964 83.7853 22.7064V25.679H82.836V20.8607ZM90.7443 20.8607H91.6672V21.6416H91.747C91.83 21.4966 91.92 21.365 92.0176 21.2467C92.1183 21.1284 92.2602 21.0249 92.4439 20.9361C92.63 20.8444 92.8591 20.7986 93.1313 20.7986C93.522 20.7986 93.8693 20.8977 94.1739 21.0959C94.4816 21.2941 94.7214 21.581 94.8929 21.9566C95.0671 22.3293 95.1544 22.7715 95.1544 23.2832C95.1544 23.789 95.0687 24.2311 94.8972 24.6098C94.7258 24.9854 94.4875 25.2738 94.1829 25.4749C93.8784 25.6731 93.5307 25.7737 93.1404 25.7766C92.7587 25.7737 92.4628 25.6894 92.2531 25.5237C92.0429 25.3581 91.8742 25.1584 91.747 24.9248H91.6941V27.4892H90.7443V20.8607ZM91.6763 23.2654C91.6763 23.6056 91.7249 23.9043 91.8224 24.1617C91.92 24.416 92.0623 24.6142 92.2483 24.7562C92.438 24.8981 92.6639 24.9691 92.9274 24.9691C93.1965 24.9691 93.4256 24.8952 93.6148 24.7473C93.8072 24.5994 93.9522 24.3983 94.0498 24.1439C94.1474 23.8866 94.1964 23.5938 94.1964 23.2654C94.1964 22.943 94.1474 22.6576 94.0498 22.4091C93.955 22.1577 93.8132 21.961 93.6239 21.8191C93.4347 21.6771 93.2024 21.6061 92.9274 21.6061C92.6612 21.6061 92.4332 21.6741 92.244 21.8102C92.0575 21.9433 91.9157 22.1355 91.8181 22.387C91.7233 22.6354 91.6763 22.9282 91.6763 23.2654ZM98.3335 25.7766C97.8839 25.7766 97.4876 25.6731 97.1443 25.466C96.8042 25.259 96.5411 24.9691 96.3546 24.5965C96.1713 24.2208 96.0796 23.786 96.0796 23.292C96.0796 22.7981 96.1713 22.3633 96.3546 21.9876C96.5411 21.609 96.8042 21.3162 97.1443 21.1092C97.4876 20.9021 97.8839 20.7986 98.3335 20.7986C98.7803 20.7986 99.1738 20.9021 99.5139 21.1092C99.8541 21.3162 100.116 21.609 100.299 21.9876C100.485 22.3633 100.579 22.7981 100.579 23.292C100.579 23.786 100.485 24.2208 100.299 24.5965C100.116 24.9691 99.8541 25.259 99.5139 25.466C99.1738 25.6731 98.7803 25.7766 98.3335 25.7766ZM97.029 23.292C97.029 23.6085 97.078 23.8955 97.1755 24.1528C97.2731 24.4071 97.4197 24.6098 97.6148 24.7606C97.81 24.9114 98.0494 24.9869 98.3335 24.9869C98.6116 24.9869 98.8466 24.9114 99.039 24.7606C99.2342 24.6098 99.3792 24.4071 99.4736 24.1528C99.5716 23.8955 99.6202 23.6085 99.6202 23.292C99.6202 22.9756 99.5716 22.6887 99.4736 22.4313C99.3792 22.171 99.2342 21.964 99.039 21.8102C98.8466 21.6564 98.6116 21.5795 98.3335 21.5795C98.0494 21.5795 97.81 21.6564 97.6148 21.8102C97.4197 21.964 97.2731 22.171 97.1755 22.4313C97.078 22.6887 97.029 22.9756 97.029 23.292ZM101.708 20.8607H102.622V21.6239H102.675C102.764 21.3695 102.917 21.1669 103.136 21.016C103.358 20.8651 103.608 20.7897 103.886 20.7897C104.025 20.7897 104.163 20.7957 104.299 20.8075V21.7126C104.246 21.7007 104.169 21.6889 104.068 21.6771C103.971 21.6653 103.879 21.6593 103.793 21.6593C103.577 21.6593 103.384 21.7067 103.212 21.8013C103.04 21.893 102.904 22.0217 102.804 22.1873C102.706 22.35 102.657 22.5348 102.657 22.7419V25.679H101.708V20.8607ZM104.931 24.3214C104.928 23.8215 105.095 23.4651 105.432 23.2521C105.772 23.0392 106.206 22.9135 106.732 22.875C107.416 22.8365 107.837 22.8144 107.997 22.8085L107.992 22.4224C107.995 22.1474 107.913 21.9359 107.744 21.788C107.578 21.6371 107.336 21.5617 107.017 21.5617C106.747 21.5617 106.527 21.6179 106.355 21.7303C106.184 21.8398 106.073 21.9876 106.023 22.174H105.082C105.112 21.9078 105.211 21.6711 105.379 21.4641C105.548 21.2541 105.776 21.0914 106.062 20.9761C106.349 20.8578 106.679 20.7986 107.052 20.7986C107.357 20.7986 107.649 20.8459 107.93 20.9406C108.214 21.0323 108.454 21.2038 108.649 21.4552C108.844 21.7037 108.942 22.0439 108.942 22.4757V25.679H108.019V25.0224H107.984C107.874 25.2324 107.7 25.4128 107.46 25.5637C107.22 25.7116 106.919 25.7855 106.555 25.7855C106.247 25.7855 105.969 25.7278 105.721 25.6124C105.475 25.4971 105.282 25.33 105.14 25.1111C105.001 24.8893 104.931 24.626 104.931 24.3214ZM105.854 24.3302C105.854 24.555 105.937 24.7281 106.102 24.8493C106.271 24.9677 106.493 25.0283 106.768 25.0313C107.017 25.0313 107.234 24.981 107.42 24.8804C107.606 24.7798 107.75 24.6467 107.851 24.4811C107.951 24.3125 108.001 24.1321 108.001 23.9398L107.997 23.5006L106.866 23.576C106.543 23.5997 106.293 23.6736 106.116 23.7978C105.941 23.9221 105.854 24.0996 105.854 24.3302ZM110.284 20.8607H111.198V21.6239H111.251C111.34 21.3695 111.494 21.1669 111.713 21.016C111.935 20.8651 112.185 20.7897 112.462 20.7897C112.602 20.7897 112.739 20.7957 112.875 20.8075V21.7126C112.822 21.7007 112.745 21.6889 112.645 21.6771C112.547 21.6653 112.455 21.6593 112.37 21.6593C112.154 21.6593 111.96 21.7067 111.788 21.8013C111.617 21.893 111.481 22.0217 111.38 22.1873C111.282 22.35 111.234 22.5348 111.234 22.7419V25.679H110.284V20.8607ZM114.519 27.4892C114.262 27.4833 114.093 27.4744 114.013 27.4626V26.6728C114.06 26.6758 114.203 26.6817 114.439 26.6906C114.563 26.6876 114.664 26.6743 114.741 26.6507C114.821 26.63 114.899 26.5737 114.976 26.4821C115.056 26.3933 115.131 26.2528 115.202 26.0606L115.318 25.7411L113.552 20.8607H114.563L115.779 24.5965H115.832L117.048 20.8607H118.068L116.081 26.3179C115.939 26.7054 115.741 26.9967 115.486 27.1919C115.232 27.3871 114.909 27.4862 114.519 27.4892ZM121.534 19.2546H122.51V22.316H122.59L125.278 19.2546H126.503L123.912 22.1474L126.512 25.679H125.332L123.264 22.8129L122.51 23.6825V25.679H121.534V19.2546ZM129.114 25.7766C128.664 25.7766 128.268 25.6731 127.925 25.466C127.585 25.259 127.322 24.9691 127.135 24.5965C126.952 24.2208 126.86 23.786 126.86 23.292C126.86 22.7981 126.952 22.3633 127.135 21.9876C127.322 21.609 127.585 21.3162 127.925 21.1092C128.268 20.9021 128.664 20.7986 129.114 20.7986C129.561 20.7986 129.954 20.9021 130.294 21.1092C130.635 21.3162 130.896 21.609 131.079 21.9876C131.266 22.3633 131.359 22.7981 131.359 23.292C131.359 23.786 131.266 24.2208 131.079 24.5965C130.896 24.9691 130.635 25.259 130.294 25.466C129.954 25.6731 129.561 25.7766 129.114 25.7766ZM127.81 23.292C127.81 23.6085 127.858 23.8955 127.956 24.1528C128.054 24.4071 128.2 24.6098 128.395 24.7606C128.59 24.9114 128.83 24.9869 129.114 24.9869C129.392 24.9869 129.627 24.9114 129.819 24.7606C130.015 24.6098 130.16 24.4071 130.254 24.1528C130.352 23.8955 130.401 23.6085 130.401 23.292C130.401 22.9756 130.352 22.6887 130.254 22.4313C130.16 22.171 130.015 21.964 129.819 21.8102C129.627 21.6564 129.392 21.5795 129.114 21.5795C128.83 21.5795 128.59 21.6564 128.395 21.8102C128.2 21.964 128.054 22.171 127.956 22.4313C127.858 22.6887 127.81 22.9756 127.81 23.292ZM132.488 20.8607H133.402V21.6239H133.456C133.544 21.3695 133.698 21.1669 133.917 21.016C134.139 20.8651 134.389 20.7897 134.666 20.7897C134.806 20.7897 134.943 20.7957 135.079 20.8075V21.7126C135.026 21.7007 134.949 21.6889 134.849 21.6771C134.751 21.6653 134.659 21.6593 134.574 21.6593C134.358 21.6593 134.164 21.7067 133.992 21.8013C133.821 21.893 133.685 22.0217 133.584 22.1873C133.486 22.35 133.438 22.5348 133.438 22.7419V25.679H132.488V20.8607ZM137.903 25.7766C137.436 25.7766 137.029 25.6746 136.683 25.4705C136.337 25.2664 136.073 24.978 135.889 24.6053C135.706 24.2326 135.614 23.7978 135.614 23.3009C135.614 22.8099 135.706 22.3751 135.889 21.9965C136.073 21.6179 136.333 21.3236 136.67 21.1136C137.007 20.9036 137.398 20.7986 137.841 20.7986C138.229 20.7986 138.584 20.8829 138.906 21.0515C139.229 21.2201 139.487 21.4863 139.683 21.8501C139.881 22.211 139.98 22.668 139.98 23.2211V23.5582H136.555C136.564 23.8599 136.626 24.1188 136.741 24.3347C136.856 24.5506 137.015 24.7147 137.216 24.8272C137.417 24.9396 137.649 24.9958 137.912 24.9958C138.167 24.9958 138.382 24.9484 138.56 24.8538C138.74 24.7562 138.874 24.629 138.959 24.4722H139.918C139.847 24.7325 139.719 24.9617 139.536 25.1599C139.353 25.3551 139.122 25.5075 138.844 25.6169C138.566 25.7234 138.252 25.7766 137.903 25.7766ZM139.048 22.8484C139.048 22.6058 138.998 22.3884 138.897 22.1962C138.8 22.0009 138.659 21.8501 138.476 21.7436C138.295 21.6342 138.087 21.5795 137.85 21.5795C137.605 21.5795 137.386 21.6371 137.193 21.7525C137.004 21.8649 136.855 22.0187 136.745 22.2139C136.636 22.4091 136.574 22.6206 136.559 22.8484H139.048ZM140.896 24.3214C140.893 23.8215 141.06 23.4651 141.398 23.2521C141.738 23.0392 142.171 22.9135 142.697 22.875C143.381 22.8365 143.802 22.8144 143.962 22.8085L143.958 22.4224C143.96 22.1474 143.877 21.9359 143.709 21.788C143.543 21.6371 143.301 21.5617 142.981 21.5617C142.712 21.5617 142.492 21.6179 142.32 21.7303C142.149 21.8398 142.038 21.9876 141.987 22.174H141.047C141.076 21.9078 141.176 21.6711 141.344 21.4641C141.513 21.2541 141.74 21.0914 142.027 20.9761C142.314 20.8578 142.644 20.7986 143.017 20.7986C143.322 20.7986 143.614 20.8459 143.895 20.9406C144.179 21.0323 144.419 21.2038 144.614 21.4552C144.809 21.7037 144.907 22.0439 144.907 22.4757V25.679H143.984V25.0224H143.948C143.839 25.2324 143.664 25.4128 143.425 25.5637C143.185 25.7116 142.884 25.7855 142.52 25.7855C142.212 25.7855 141.934 25.7278 141.686 25.6124C141.44 25.4971 141.247 25.33 141.104 25.1111C140.965 24.8893 140.896 24.626 140.896 24.3214ZM141.819 24.3302C141.819 24.555 141.902 24.7281 142.067 24.8493C142.236 24.9677 142.458 25.0283 142.733 25.0313C142.981 25.0313 143.199 24.981 143.385 24.8804C143.572 24.7798 143.715 24.6467 143.815 24.4811C143.916 24.3125 143.966 24.1321 143.966 23.9398L143.962 23.5006L142.83 23.576C142.508 23.5997 142.258 23.6736 142.081 23.7978C141.906 23.9221 141.819 24.0996 141.819 24.3302ZM147.199 25.679H146.249V20.8607H147.163V21.6504H147.216C147.332 21.3813 147.509 21.1728 147.749 21.0249C147.991 20.874 148.287 20.7986 148.636 20.7986C148.967 20.7986 149.256 20.8681 149.501 21.0071C149.75 21.1462 149.94 21.3517 150.074 21.6239C150.209 21.896 150.278 22.2272 150.278 22.6177V25.679H149.337V22.733C149.334 22.381 149.242 22.1075 149.062 21.9122C148.884 21.7141 148.636 21.615 148.317 21.615C148.098 21.615 147.904 21.6623 147.736 21.757C147.567 21.8516 147.435 21.9906 147.34 22.174C147.246 22.3544 147.199 22.5703 147.199 22.8218V25.679ZM157.621 20.9495C157.591 20.6537 157.456 20.423 157.217 20.2573C156.977 20.0917 156.671 20.0089 156.298 20.0089C156.041 20.0089 155.815 20.0503 155.62 20.1331C155.427 20.213 155.278 20.3254 155.171 20.4703C155.065 20.6152 155.012 20.7779 155.012 20.9583C155.012 21.2305 155.124 21.4405 155.349 21.5883C155.574 21.7363 155.852 21.8487 156.183 21.9255L156.804 22.0941C158.038 22.3929 158.656 22.9963 158.659 23.9043C158.656 24.2681 158.56 24.592 158.37 24.876C158.184 25.1599 157.91 25.3832 157.55 25.5459C157.192 25.7056 156.766 25.7855 156.272 25.7855C155.796 25.7855 155.38 25.7101 155.025 25.5592C154.673 25.4054 154.397 25.1865 154.196 24.9026C153.997 24.6186 153.888 24.2829 153.867 23.8955H154.843C154.87 24.2327 155.015 24.49 155.278 24.6675C155.544 24.842 155.875 24.9307 156.272 24.9336C156.544 24.9336 156.786 24.8907 156.999 24.805C157.215 24.7162 157.384 24.5935 157.505 24.4367C157.629 24.277 157.691 24.0936 157.691 23.8866C157.691 23.7091 157.64 23.5597 157.536 23.4385C157.433 23.3172 157.294 23.2181 157.119 23.1412C156.948 23.0613 156.733 22.9874 156.476 22.9193L155.713 22.7153C155.175 22.5674 154.761 22.3544 154.471 22.0764C154.184 21.7984 154.039 21.4434 154.036 21.0116C154.036 20.6477 154.135 20.3268 154.333 20.0488C154.534 19.7678 154.808 19.5504 155.154 19.3966C155.503 19.2428 155.893 19.1659 156.325 19.1659C156.754 19.1659 157.137 19.2428 157.474 19.3966C157.811 19.5475 158.076 19.7589 158.268 20.0311C158.461 20.3002 158.561 20.6063 158.57 20.9495H157.621ZM162.077 21.615H161.093V24.2592C161.095 24.5077 161.147 24.6778 161.248 24.7695C161.348 24.8582 161.489 24.9041 161.669 24.907C161.811 24.907 161.971 24.8981 162.148 24.8804V25.7056C161.977 25.7293 161.779 25.7411 161.554 25.7411C161.296 25.7411 161.061 25.6938 160.848 25.5992C160.635 25.5045 160.465 25.361 160.338 25.1688C160.211 24.9736 160.149 24.7355 160.152 24.4545V21.615H159.442V20.8607H160.152V19.7072H161.093V20.8607H162.077V21.615ZM166.259 20.8607H167.2V25.679H166.277V24.8449H166.224C166.108 25.1141 165.926 25.3315 165.678 25.4971C165.432 25.6598 165.135 25.7411 164.786 25.7411C164.473 25.7411 164.196 25.6716 163.956 25.5326C163.717 25.3936 163.53 25.188 163.397 24.9159C163.264 24.6408 163.198 24.3095 163.198 23.9221V20.8607H164.147V23.8067C164.147 24.0226 164.189 24.2119 164.271 24.3746C164.354 24.5373 164.468 24.663 164.613 24.7517C164.761 24.8375 164.931 24.8804 165.123 24.8804C165.309 24.8804 165.49 24.836 165.665 24.7473C165.839 24.6556 165.981 24.5195 166.091 24.3391C166.203 24.1557 166.259 23.9339 166.259 23.6736V20.8607ZM170.352 25.7766C169.964 25.7737 169.618 25.6731 169.314 25.4749C169.009 25.2738 168.77 24.9854 168.595 24.6098C168.424 24.2311 168.338 23.789 168.338 23.2832C168.338 22.7715 168.425 22.3293 168.6 21.9566C168.774 21.581 169.014 21.2941 169.318 21.0959C169.626 20.8977 169.974 20.7986 170.361 20.7986C170.636 20.7986 170.865 20.8444 171.049 20.9361C171.235 21.0249 171.377 21.1284 171.474 21.2467C171.575 21.3621 171.668 21.4937 171.754 21.6416H171.798V19.2546H172.748V25.679H171.825V24.9248H171.754C171.671 25.0697 171.577 25.2028 171.47 25.3241C171.367 25.4424 171.222 25.5474 171.035 25.6391C170.849 25.7308 170.621 25.7766 170.352 25.7766ZM169.305 23.2654C169.302 23.5938 169.349 23.8866 169.447 24.1439C169.545 24.3983 169.688 24.5994 169.877 24.7473C170.067 24.8952 170.296 24.9691 170.565 24.9691C170.828 24.9691 171.054 24.8981 171.244 24.7562C171.433 24.6142 171.577 24.4145 171.674 24.1572C171.775 23.8999 171.825 23.6026 171.825 23.2654C171.825 22.9282 171.776 22.6354 171.679 22.387C171.581 22.1385 171.438 21.9462 171.248 21.8102C171.059 21.6741 170.831 21.6061 170.565 21.6061C170.293 21.6061 170.062 21.6771 169.873 21.8191C169.684 21.961 169.54 22.1577 169.443 22.4091C169.348 22.6576 169.302 22.943 169.305 23.2654ZM174.179 20.8607H175.128V25.679H174.179V20.8607ZM174.649 20.1154C174.543 20.1154 174.444 20.0902 174.352 20.0399C174.263 19.9896 174.191 19.9216 174.134 19.8358C174.081 19.7501 174.055 19.6569 174.055 19.5563C174.055 19.4558 174.081 19.3626 174.134 19.2768C174.191 19.191 174.265 19.123 174.356 19.0727C174.451 19.0225 174.552 18.9973 174.658 18.9973C174.764 18.9973 174.864 19.0225 174.955 19.0727C175.047 19.123 175.119 19.191 175.173 19.2768C175.226 19.3626 175.252 19.4558 175.252 19.5563C175.252 19.6598 175.224 19.7545 175.168 19.8403C175.115 19.926 175.043 19.9941 174.951 20.0444C174.859 20.0917 174.759 20.1154 174.649 20.1154ZM178.556 25.7766C178.089 25.7766 177.682 25.6746 177.336 25.4705C176.989 25.2664 176.725 24.978 176.541 24.6053C176.358 24.2326 176.267 23.7978 176.267 23.3009C176.267 22.8099 176.358 22.3751 176.541 21.9965C176.725 21.6179 176.985 21.3236 177.322 21.1136C177.659 20.9036 178.05 20.7986 178.493 20.7986C178.881 20.7986 179.236 20.8829 179.559 21.0515C179.881 21.2201 180.14 21.4863 180.335 21.8501C180.533 22.211 180.632 22.668 180.632 23.2211V23.5582H177.207C177.216 23.8599 177.278 24.1188 177.393 24.3347C177.509 24.5506 177.667 24.7147 177.868 24.8272C178.069 24.9396 178.301 24.9958 178.565 24.9958C178.819 24.9958 179.035 24.9484 179.212 24.8538C179.393 24.7562 179.526 24.629 179.612 24.4722H180.57C180.499 24.7325 180.372 24.9617 180.189 25.1599C180.005 25.3551 179.774 25.5075 179.497 25.6169C179.218 25.7234 178.905 25.7766 178.556 25.7766ZM179.7 22.8484C179.7 22.6058 179.65 22.3884 179.549 22.1962C179.452 22.0009 179.312 21.8501 179.128 21.7436C178.948 21.6342 178.739 21.5795 178.503 21.5795C178.257 21.5795 178.038 21.6371 177.846 21.7525C177.657 21.8649 177.507 22.0187 177.398 22.2139C177.289 22.4091 177.226 22.6206 177.211 22.8484H179.7ZM184.477 22.174C184.432 21.9758 184.332 21.822 184.175 21.7126C184.021 21.6002 183.817 21.544 183.563 21.544C183.385 21.544 183.227 21.5721 183.088 21.6283C182.949 21.6845 182.84 21.7614 182.76 21.859C182.68 21.9566 182.64 22.0661 182.64 22.1873C182.64 22.3322 182.699 22.4565 182.817 22.56C182.939 22.6635 183.131 22.7448 183.394 22.804L184.157 22.9815C184.601 23.082 184.931 23.2403 185.147 23.4562C185.366 23.6692 185.477 23.9457 185.479 24.2859C185.477 24.5758 185.395 24.8346 185.235 25.0623C185.079 25.2871 184.852 25.4631 184.556 25.5903C184.261 25.7145 183.912 25.7766 183.51 25.7766C182.936 25.7766 182.48 25.6553 182.143 25.4128C181.806 25.1673 181.608 24.8183 181.548 24.3657H182.516C182.601 24.7976 182.924 25.0135 183.483 25.0135C183.796 25.0135 184.045 24.9558 184.228 24.8405C184.415 24.7222 184.509 24.5609 184.512 24.3569C184.509 24.2001 184.447 24.0714 184.326 23.9709C184.208 23.8673 184.021 23.786 183.767 23.7269L183.013 23.5671C182.581 23.4725 182.252 23.3127 182.028 23.088C181.803 22.8602 181.69 22.5792 181.69 22.245C181.69 21.961 181.767 21.7096 181.921 21.4907C182.078 21.2719 182.297 21.1018 182.578 20.9805C182.862 20.8593 183.187 20.7986 183.554 20.7986C183.906 20.7986 184.215 20.8548 184.481 20.9672C184.747 21.0796 184.957 21.2393 185.111 21.4464C185.265 21.6534 185.358 21.896 185.391 22.174H184.477Z" fill="black"/>
<mask id="mask0_25_107" style="mask-type:luminance" maskUnits="userSpaceOnUse" x="0" y="0" width="31" height="32">
<path d="M30.3552 0H0V31.647H30.3552V0Z" fill="white"/>
</mask>
<g mask="url(#mask0_25_107)">
<path d="M17.7606 3.84343C17.2644 2.73129 15.5965 3.4918 15.5965 3.4918C17.004 4.39131 17.7606 3.84343 17.7606 3.84343ZM15.0107 3.67988C15.1816 3.67988 15.328 3.54086 15.328 3.36096C15.328 3.18105 15.1897 3.04203 15.0107 3.04203C14.8317 3.04203 14.6934 3.18105 14.6934 3.36096C14.6934 3.54086 14.8317 3.67988 15.0107 3.67988ZM18.8265 3.95793C18.8265 3.95793 18.2244 3.94974 17.6712 4.27682L19.4448 4.30135L19.5099 4.25229C19.5099 4.25229 18.6231 1.84812 16.2718 1.55373C16.2718 1.55373 16.8332 3.33642 18.8265 3.95793ZM20.0713 4.42402C20.0713 4.29318 19.9655 4.1869 19.8353 4.1869C19.7051 4.1869 19.5994 4.29318 19.5994 4.42402C19.5994 4.55486 19.7051 4.66118 19.8353 4.66118C19.9655 4.66118 20.0713 4.55486 20.0713 4.42402ZM10.5929 4.30135L12.3665 4.27682C11.8133 3.94156 11.2112 3.95793 11.2112 3.95793C13.1964 3.33642 13.7659 1.55373 13.7659 1.55373C11.4146 1.84812 10.5278 4.25229 10.5278 4.25229L10.5929 4.30135ZM10.0234 4.55486C10.0234 4.68571 10.1291 4.79202 10.2593 4.79202C10.3895 4.79202 10.4953 4.68571 10.4953 4.55486C10.4953 4.42402 10.3895 4.31771 10.2593 4.31771C10.1291 4.31771 10.0234 4.42402 10.0234 4.55486ZM10.1698 6.45207C8.89246 5.53616 7.02121 6.24762 7.02121 6.24762C8.68094 4.98011 8.66467 2.95208 8.66467 2.95208C6.55745 4.0397 6.54931 6.60745 6.54931 6.60745C9.12843 7.37612 10.1698 6.45207 10.1698 6.45207ZM10.8776 5.95322L10.8939 5.08642C9.93388 4.8002 8.96571 4.98829 8.96571 4.98829C10.8125 4.03153 11.1543 2.02802 11.1543 2.02802C8.89246 2.73129 8.43688 5.24998 8.43688 5.24998C9.47826 5.78149 10.2918 5.93687 10.8776 5.95322ZM21.1045 4.84109C21.1045 4.84109 20.3316 4.60393 19.3635 4.93922V5.83056C19.9574 5.82238 20.5594 5.67518 21.6415 5.0946C21.6415 5.0946 21.1289 2.58409 18.8509 1.93807C18.8428 1.93807 19.2251 3.92521 21.1045 4.84109ZM12.2689 3.94974C12.2689 3.94974 13.0499 4.46491 14.4168 3.51633C14.4168 3.51633 12.7245 2.82124 12.2689 3.94974ZM24.1311 15.987H23.1385V17.2464H24.1311V15.987ZM21.4625 7.34341L20.9499 7.9567L23.7243 10.7452L24.2857 10.181L21.4625 7.34341ZM26.8567 7.26163L24.3182 4.71024L22.0402 7.19621L24.481 9.61675L26.8567 7.26163ZM6.14251 6.97541C6.14251 7.10625 6.24827 7.21256 6.37845 7.21256C6.50862 7.21256 6.61442 7.10625 6.61442 6.97541C6.61442 6.84456 6.50862 6.73825 6.37845 6.73825C6.24827 6.73825 6.14251 6.84456 6.14251 6.97541ZM24.9529 9.66582C25.3922 9.78848 25.9292 9.88662 26.58 9.91115C26.58 9.91115 26.8811 9.01981 26.7509 7.93217L25.8966 8.75812C25.9861 8.97892 26.1081 9.19968 26.2546 9.41231C26.2546 9.41231 26.0187 9.21604 25.6363 9.00346L24.9529 9.66582ZM24.1881 22.1611H23.1955V23.4204H24.1881V22.1611ZM22.7398 5.8142L23.3175 5.22544C23.0734 4.39949 22.5772 3.40185 21.3567 2.80489C21.3486 2.80489 21.2998 4.57122 22.7398 5.8142ZM27.8981 14.6377C27.8981 14.7686 28.0038 14.8749 28.134 14.8749C28.2642 14.8749 28.37 14.7686 28.37 14.6377C28.37 14.5069 28.2642 14.4006 28.134 14.4006C28.0038 14.4006 27.8981 14.5069 27.8981 14.6377ZM24.8064 2.91937C25.5468 3.28736 26.1488 2.90302 26.1488 2.90302C26.9787 2.49414 27.5726 3.05839 27.5726 3.05839C28.1503 3.50815 28.0526 4.10513 28.0526 4.10513C28.0526 4.56304 27.9225 4.59575 27.9225 4.59575C27.6458 4.78384 27.7191 4.46491 27.7191 4.46491L27.7842 4.24411C27.8899 3.21376 26.9706 3.06657 26.9706 3.06657C25.9942 2.89484 25.7502 3.80254 25.7502 3.80254C25.6851 4.05606 25.6851 4.27682 25.7095 4.47309L24.4891 3.24647L24.546 4.285L27.2716 7.02447H28.2479L27.2553 6.01865C27.776 6.1822 28.2316 6.19856 28.2316 6.19856C29.6229 6.11678 29.7693 4.77566 29.7693 4.77566C30.1354 3.37731 28.8174 2.24881 28.8174 2.24881C27.9387 1.48831 26.6126 1.43106 26.6126 1.43106C24.725 1.21027 24.0498 0 24.0498 0C23.8301 0.556069 23.887 1.36565 23.887 1.36565C24.0172 2.62498 24.8064 2.91937 24.8064 2.91937ZM28.2316 14.2534C28.2316 14.2534 29.8181 12.2417 28.8419 10.0665C28.8419 10.0665 27.5726 11.6448 28.0771 13.6728C28.0771 13.6728 27.06 11.9473 25.4898 11.8574C25.498 11.8574 25.742 13.2312 28.2316 14.2534ZM26.6288 10.5572C26.759 10.5572 26.8648 10.4508 26.8648 10.32C26.8648 10.1892 26.759 10.0829 26.6288 10.0829C26.4987 10.0829 26.3929 10.1892 26.3929 10.32C26.3929 10.459 26.4987 10.5572 26.6288 10.5572ZM21.8856 6.73007L22.6015 5.98594C21.9914 5.84691 20.8523 5.64247 19.933 6.3294C19.933 6.33758 20.4048 6.87727 21.8856 6.73007ZM27.5971 12.0128C27.5971 12.0128 28.8093 9.75577 27.475 7.78501C27.475 7.78501 26.4987 9.55951 27.3448 11.4649C27.3448 11.4649 26.0431 9.94386 24.4891 10.132C24.4891 10.132 24.9691 11.4404 27.5971 12.0128ZM19.2821 29.251C19.2821 29.3818 19.3879 29.4881 19.518 29.4881C19.6482 29.4881 19.754 29.3818 19.754 29.251C19.754 29.1201 19.6482 29.0138 19.518 29.0138C19.3879 29.0138 19.2821 29.1201 19.2821 29.251ZM20.4618 29.022C20.4618 29.022 21.7961 27.869 21.8042 26.4379L21.3324 26.4542C20.9012 26.8304 20.2747 27.64 19.9248 29.2673C19.9248 29.2673 22.1704 30.4858 24.1311 29.1447C24.123 29.1528 22.3656 28.1715 20.4618 29.022ZM18.2651 29.7579C18.2651 29.7579 19.9818 28.7358 20.0713 27.1575C20.0713 27.1575 18.7045 27.4028 17.6874 29.9051C17.6874 29.9051 19.6889 31.4998 21.8531 30.5185C21.8531 30.5267 20.2828 29.251 18.2651 29.7579ZM15.9626 30.2486C17.7444 29.4227 18.1431 28.0243 18.1431 28.0243C16.76 28.1225 15.5721 30.2159 15.5721 30.2159C17.1261 31.8105 19.1356 31.6061 19.1356 31.6061C18.2081 30.3876 15.9626 30.2486 15.9626 30.2486ZM14.97 29.5208V30.1096C14.7015 29.6843 13.6439 28.1306 12.4479 28.0489C12.4479 28.0489 12.8547 29.4391 14.6446 30.2568C14.6446 30.2568 12.3991 30.404 11.4879 31.6388C11.4879 31.6388 13.4405 31.8187 14.9781 30.2895V31.2463H15.5721V30.2159V29.5208H14.97ZM23.1955 24.0828V25.3421L28.8093 30.0196H29.9321L24.2206 24.0828H23.1955ZM22.4958 27.918C22.4958 27.918 23.0084 27.3047 23.2524 26.4379L22.2924 26.4215C22.1378 26.8958 22.0239 27.4928 21.9995 28.2533C21.9995 28.2533 24.066 28.9402 25.7176 27.7381L25.083 27.2229C24.3833 27.1821 23.4152 27.2883 22.4958 27.918ZM11.3658 29.3409C11.3658 29.2101 11.26 29.1038 11.1299 29.1038C10.9997 29.1038 10.8939 29.2101 10.8939 29.3409C10.8939 29.4718 10.9997 29.5781 11.1299 29.5781C11.26 29.5781 11.3658 29.4718 11.3658 29.3409ZM27.0519 22.7416C27.0519 22.7416 27.3774 20.7627 26.2302 19.6833C26.2302 19.6833 25.5386 20.8936 26.7916 23.2814C26.7916 23.2814 29.2893 22.7662 29.9402 20.4765C29.9402 20.4765 27.9632 20.8608 27.0519 22.7416ZM24.7413 26.9286L23.9114 26.2498C23.9277 26.4624 23.9603 26.6832 23.9928 26.9204C23.9928 26.9204 24.2938 26.9613 24.7413 26.9286ZM23.4884 27.2311C23.6185 27.2311 23.7243 27.1248 23.7243 26.994C23.7243 26.8631 23.6185 26.7568 23.4884 26.7568C23.3582 26.7568 23.2524 26.8631 23.2524 26.994C23.2524 27.1248 23.3582 27.2311 23.4884 27.2311ZM3.8075 23.7802C3.8075 23.911 3.91326 24.0173 4.04343 24.0173C4.17361 24.0173 4.2794 23.911 4.2794 23.7802C4.2794 23.6493 4.17361 23.5431 4.04343 23.5431C3.91326 23.5431 3.8075 23.6493 3.8075 23.7802ZM2.09081 19.2008C4.04343 17.3363 3.76682 15.9707 3.76682 15.9707C2.34303 16.6249 2.01759 18.6039 2.01759 18.6039C1.75724 16.5267 -0.000128533 15.5209 -0.000128533 15.5209C-0.114032 17.9087 2.09081 19.2008 2.09081 19.2008ZM2.09895 19.5279C2.09895 19.6587 2.20472 19.7651 2.33489 19.7651C2.46507 19.7651 2.57083 19.6587 2.57083 19.5279C2.57083 19.3971 2.46507 19.2907 2.33489 19.2907C2.20472 19.2907 2.09895 19.3971 2.09895 19.5279ZM5.45096 4.75113L3.62851 2.90302C2.49761 1.77452 1.16331 2.51867 1.16331 2.51867L4.75127 6.1086C4.9872 5.19273 5.45096 4.75113 5.45096 4.75113ZM4.05157 5.8878L0.959913 2.78035C0.959913 2.78035 -0.333702 3.71259 0.675157 5.8878H4.05157ZM2.70914 21.4496C4.31192 19.2744 3.8075 17.9742 3.8075 17.9742C2.51388 18.8737 2.53829 20.8772 2.53829 20.8772C1.91996 18.8819 0.0242794 18.195 0.0242794 18.195C0.309038 20.5583 2.70914 21.4496 2.70914 21.4496ZM4.14109 27.6073C4.14109 27.6073 4.5072 27.3865 5.03603 27.3129L4.45023 27.1739L1.8386 29.9379C1.8386 29.9379 1.5457 30.3713 1.82233 30.6493C1.82233 30.6493 2.08267 30.8619 2.44879 30.6166L4.99533 28.376C4.73499 28.2451 4.17361 27.779 4.14109 27.6073ZM9.09588 26.487H8.76229C8.74601 27.9753 10.1698 29.1447 10.1698 29.1447C8.24973 28.3351 6.50862 29.3573 6.50862 29.3573C8.50194 30.6493 10.7149 29.3818 10.7149 29.3818C10.2837 27.5746 9.52709 26.7977 9.09588 26.487ZM3.70173 23.5513C4.90585 21.1307 4.18174 19.9449 4.18174 19.9449C3.06713 21.0489 3.43324 23.0197 3.43324 23.0197C2.48134 21.1634 0.488028 20.82 0.488028 20.82C1.18772 23.0933 3.70173 23.5513 3.70173 23.5513ZM10.5197 27.272C10.6499 28.8421 12.3828 29.8234 12.3828 29.8234C10.357 29.3655 8.81926 30.6739 8.81926 30.6739C10.9997 31.5979 12.9686 29.9624 12.9686 29.9624C11.8865 27.4846 10.5197 27.272 10.5197 27.272ZM4.92213 8.26746C7.59887 8.57821 8.46125 7.48243 8.46125 7.48243C7.04563 6.80367 5.32892 7.8259 5.32892 7.8259C6.74459 6.28851 6.37845 4.29318 6.37845 4.29318C4.49092 5.7406 4.92213 8.26746 4.92213 8.26746ZM5.04416 25.4566C5.80892 22.8643 4.88958 21.8176 4.88958 21.8176C3.97837 23.1015 4.6862 24.9741 4.6862 24.9741C3.42511 23.3059 1.40739 23.3223 1.40739 23.3223C2.49761 25.4402 5.04416 25.4566 5.04416 25.4566ZM24.5949 23.3304C24.5949 23.3304 24.4321 23.5104 24.3752 23.772L24.8715 24.2872C24.8389 23.9683 24.7576 23.6412 24.5949 23.3304ZM7.96497 12.9532L8.88432 13.7628H10.9509C10.8532 13.5992 10.8858 12.9695 10.8858 12.9695L7.96497 12.9532ZM13.0906 6.8691V5.70789H16.6867V7.36794H17.8746V8.56186H16.7193V9.09337H17.8746V10.3854H16.7193V14.2697H15.7267L14.3598 12.8877L13.1069 14.1471L12.2038 13.2394L14.2866 11.146L15.3606 12.2254V6.8691H13.0906ZM11.2437 12.4298C11.2437 15.1856 12.9605 16.4531 15.0758 16.4531C17.1993 16.4531 18.916 15.1856 18.916 12.4298V4.5794H11.2437C11.2437 4.5794 11.2437 9.68217 11.2437 12.4298ZM8.41246 7.89946C8.41246 7.89946 8.18463 8.24292 7.29783 8.43101L8.41246 9.46955V7.89946ZM18.2244 19.3643C18.4766 19.3643 18.4766 19.1763 18.4766 18.98V17.1891H18.9892V19.0863C18.9892 19.3643 18.9567 19.8305 18.2163 19.8305C17.7363 19.8305 17.4515 19.6097 17.4515 19.119V17.1891H17.9641V18.8737C17.9722 19.0618 17.9478 19.3643 18.2244 19.3643ZM19.5425 20.3538V20.8363H19.0217V21.4005H19.4773V21.883H19.0217V22.4718H19.5506V22.9543H18.5173V20.3538H19.5425ZM19.4041 17.181H19.9818L20.1282 17.5407C20.1689 17.6716 20.2259 17.8024 20.2502 17.9333H20.2584C20.2828 17.8024 20.3316 17.6716 20.3723 17.5407L20.5269 17.181H21.0801L20.5269 18.4403L21.1208 19.7814H20.5269L20.3642 19.3725C20.3154 19.2417 20.2828 19.1108 20.2502 18.98H20.2421C20.2015 19.1108 20.177 19.2335 20.1282 19.3725L19.9736 19.7814H19.396L19.9411 18.4403L19.4041 17.181ZM20.9581 22.9543L20.8605 22.5127H20.3398L20.2502 22.9543H19.7458L20.3479 20.3538H20.8849L21.5032 22.9543H20.9581ZM17.6874 22.9543L17.5654 21.0816H17.5573L17.4759 21.7276L17.2562 22.9624H16.8576L16.6054 21.7195L16.5158 21.1389V21.0898L16.4426 22.9624H15.8975L16.1253 20.362H16.8006L17.0528 21.8994H17.061L17.2644 20.362H17.9478L18.2163 22.9624H17.6874V22.9543ZM16.0277 17.181H16.5403V19.2989H17.0772V19.7814H16.0277V17.181ZM15.3687 16.7802V25.6038C15.3687 25.6038 15.865 25.1049 16.5565 25.1049H21.9995V14.1634H19.0624C19.0706 14.1634 18.2326 16.7475 15.3687 16.7802ZM13.172 17.9169C13.172 17.7288 13.0825 17.5816 12.8221 17.5898H12.757V18.2849L12.8466 18.2931C13.0743 18.2931 13.172 18.1295 13.172 17.9169ZM20.6001 21.0244L20.535 21.4169L20.4293 22.112H20.7873L20.657 21.4169L20.6001 21.0244ZM6.81779 9.42866C6.72831 9.50226 6.06931 10.0992 5.07672 10.2219L5.41841 10.5408L8.98198 10.5244L7.87549 9.41231L7.31411 8.84808C7.31411 8.85626 6.92355 9.36324 6.81779 9.42866ZM26.7021 23.5104C26.7021 23.3795 26.5963 23.2732 26.4661 23.2732C26.336 23.2732 26.2302 23.3795 26.2302 23.5104C26.2302 23.6412 26.336 23.7475 26.4661 23.7475C26.5963 23.7475 26.7021 23.6412 26.7021 23.5104ZM28.0771 19.4707C28.2072 19.4707 28.313 19.3643 28.313 19.2335C28.313 19.1027 28.2072 18.9963 28.0771 18.9963C27.9469 18.9963 27.8411 19.1027 27.8411 19.2335C27.8411 19.3643 27.9469 19.4707 28.0771 19.4707ZM26.5638 17.7043C26.5638 17.7043 26.0919 19.0127 27.7435 21.1552C27.7435 21.1552 30.1192 20.2066 30.3551 17.8351C30.3551 17.8351 28.4757 18.563 27.9062 20.5746C27.9062 20.5746 27.8736 18.5711 26.5638 17.7043ZM28.3618 18.3013C28.3618 18.3013 27.9957 16.3305 26.5475 15.709C26.5475 15.709 26.3034 17.0828 28.3048 18.8982C28.3048 18.8982 30.4772 17.5571 30.3063 15.1774C30.3063 15.1693 28.5815 16.216 28.3618 18.3013ZM25.563 21.5723C25.563 21.5723 24.6681 22.6435 25.498 25.2113C25.498 25.2113 28.0526 25.1377 29.0778 22.9952C29.0778 22.9952 27.06 23.0279 25.8397 24.7288C25.8397 24.7288 26.4987 22.8316 25.563 21.5723ZM28.4269 15.9707C28.4269 15.9707 27.7272 14.098 26.1977 13.7301C26.1977 13.7301 26.1977 15.1284 28.4757 16.5676C28.4757 16.5676 30.3877 14.8667 29.8019 12.5525C29.8019 12.5525 28.2805 13.8854 28.4269 15.9707ZM26.7916 26.2907C27.1821 26.0454 27.5564 25.7183 27.8655 25.2603C27.8655 25.2603 27.0113 25.1458 26.0187 25.4893L26.7916 26.2907ZM11.9353 21.4005L11.8784 21.008H11.8702L11.8133 21.4005L11.7075 22.0956H12.0655L11.9353 21.4005ZM4.35261 6.02682C2.74169 7.76865 3.6041 10.1892 3.6041 10.1892C6.28896 10.0256 6.95611 8.79901 6.95611 8.79901C5.44282 8.38195 3.92954 9.68217 3.92954 9.68217C5.0523 7.92399 4.35261 6.02682 4.35261 6.02682ZM14.433 26.9204H15.9789C15.9789 26.9204 16.0846 26.2416 16.5158 26.2416H22.9433V14.8749L22.3005 14.1961V25.4648H16.5403C16.5403 25.4648 15.7674 25.5302 15.1572 26.2743C15.1572 26.2743 14.6853 25.5629 13.6764 25.4975H8.07073V14.2943L7.37918 14.9894V26.2416H13.6601C13.6601 26.2416 14.433 26.2743 14.433 26.9204ZM2.39998 14.9485C2.39998 14.8177 2.29421 14.7113 2.16403 14.7113C2.03386 14.7113 1.92809 14.8177 1.92809 14.9485C1.92809 15.0793 2.03386 15.1856 2.16403 15.1856C2.29421 15.1856 2.39998 15.0793 2.39998 14.9485ZM2.18844 13.9753C2.64406 11.931 1.34231 10.3936 1.34231 10.3936C0.422941 12.5852 2.05013 14.5641 2.05013 14.5641C4.51533 13.4847 4.72685 12.1109 4.72685 12.1109C3.16476 12.2336 2.18844 13.9753 2.18844 13.9753ZM0.455487 12.9041C-0.0733521 15.2265 1.87114 16.8866 1.87114 16.8866C4.11668 15.3901 4.08412 13.9999 4.08412 13.9999C2.5627 14.4006 1.90368 16.2896 1.90368 16.2896C2.00132 14.1961 0.455487 12.9041 0.455487 12.9041ZM3.01017 8.26746C3.01017 8.26746 2.87186 7.42519 3.75055 6.16585H0.797195C0.797195 6.16585 0.927372 6.50931 3.01017 8.26746ZM10.8125 12.6588V12.3317L9.28298 10.7943H5.68689L7.72091 12.6588H10.8125ZM7.11069 25.7183C7.11883 25.8246 7.14325 25.6937 7.14325 25.6937V24.1564L6.89104 24.4426C7.02935 24.8187 7.07814 25.383 7.11069 25.7183ZM3.32748 10.598C3.32748 10.7289 3.43324 10.8352 3.56342 10.8352C3.69359 10.8352 3.79936 10.7289 3.79936 10.598C3.79936 10.4672 3.69359 10.3609 3.56342 10.3609C3.43324 10.3609 3.32748 10.4672 3.32748 10.598ZM7.09442 27.4355C7.22459 27.4355 7.33039 27.3292 7.33039 27.1984C7.33039 27.0676 7.22459 26.9613 7.09442 26.9613C6.96424 26.9613 6.85849 27.0676 6.85849 27.1984C6.85849 27.3292 6.96424 27.4355 7.09442 27.4355ZM8.73787 9.81302L10.8207 11.8737V10.2791L8.73787 8.18568V9.81302ZM7.11883 22.0384H6.12624V23.2977H7.11883V22.0384ZM20.9012 8.50461L19.2821 10.271L19.2983 13.1004C19.2983 13.1004 19.2496 13.5665 19.1519 13.7955H20.1933L23.1629 10.8107L20.9012 8.50461ZM12.1387 17.1646V17.6471H11.618V18.2113H12.0736V18.6938H11.618V19.2826H12.1469V19.7651H11.1136V17.1728L10.3976 19.7732H9.98267L9.23419 17.1728H9.7793L10.0885 18.4239C10.1373 18.5711 10.1535 18.7183 10.178 18.8655H10.1861C10.2105 18.7102 10.2268 18.5711 10.2674 18.4158L10.5766 17.1728H12.1387V17.1646ZM12.7814 22.9379H12.2363L12.1387 22.4963H11.618L11.5204 22.9379H11.016L11.618 20.3375H12.155L12.7814 22.9379ZM12.2445 17.1646H12.757C13.0825 17.1646 13.6683 17.1973 13.6683 17.9087C13.6683 18.195 13.5544 18.4403 13.3021 18.5793L13.7496 19.7651H13.2127L12.7652 18.563H12.757V19.7651H12.2445V17.1646ZM13.8554 17.1646H14.368V19.7651H13.8554V17.1646ZM13.473 22.9788C13.3266 22.9788 13.1476 22.9379 13.0337 22.848V22.3573C13.1557 22.4391 13.2696 22.4963 13.4242 22.4963C13.5869 22.4963 13.7171 22.3819 13.7171 22.2101C13.7171 22.0139 13.5544 21.9321 13.4161 21.8258C13.1232 21.6295 12.936 21.4332 12.936 21.0571C12.936 20.6482 13.172 20.2884 13.6113 20.2884C13.774 20.2884 13.9205 20.3375 14.0669 20.4192V20.9181C13.9612 20.8281 13.8391 20.7545 13.7008 20.7545C13.5381 20.7545 13.4405 20.8527 13.4405 21.008C13.4405 21.4332 14.2215 21.4578 14.2215 22.1611C14.2134 22.6272 13.953 22.9788 13.473 22.9788ZM10.9265 20.82H10.5197V22.9379H10.0071V20.82H9.60843V20.3375H10.9265V20.82ZM8.37177 14.1634V25.1131H13.7659C14.3761 25.1295 15.0026 25.612 15.0026 25.612V16.8457C11.7319 16.7721 11.0729 14.1634 11.0729 14.1634H8.37177ZM8.6077 28.4087C8.55891 27.5746 8.40432 26.9694 8.21718 26.4788H7.25714C7.51749 27.3946 8.10329 28.0816 8.10329 28.0816C6.35407 26.9531 4.45837 27.6563 4.45837 27.6563C6.20762 29.2755 8.6077 28.4087 8.6077 28.4087ZM5.36148 10.8761L4.88144 10.4263C3.718 10.7207 2.87186 11.7592 2.87186 11.7592C3.41697 10.4508 3.12408 9.21604 2.88 8.57003L2.53015 8.28381C1.5213 10.2056 2.63592 12.3153 2.63592 12.3153C4.18988 11.931 4.97906 11.3095 5.36148 10.8761ZM2.74982 25.6201C4.18174 27.5173 6.69576 27.0839 6.69576 27.0839C7.00493 24.3935 5.92286 23.5267 5.92286 23.5267C5.24758 24.9496 6.26455 26.675 6.26455 26.675C4.73499 25.2603 2.74982 25.6201 2.74982 25.6201ZM7.08628 16.0852H6.09369V17.3445H7.08628V16.0852Z" fill="#001A70"/>
</g>
</svg>
