<svg width="187" height="32" viewBox="0 0 187 32" fill="none" xmlns="http://www.w3.org/2000/svg">
<g clip-path="url(#clip0_77_148)">
<path d="M39.7592 6.44445C39.7551 7.14402 39.8621 7.81895 40.0804 8.46914C40.2985 9.11933 40.6153 9.69754 41.031 10.2037C41.4505 10.7058 41.9487 11.0823 42.5247 11.3333L41.6974 12.4321C41.0803 12.1317 40.5494 11.6996 40.1049 11.1358C39.6605 10.572 39.3169 9.91566 39.0741 9.16666C38.823 9.96089 38.4691 10.6605 38.0123 11.2654C37.5556 11.8663 37.0144 12.3251 36.3889 12.642L35.5247 11.5309C36.1131 11.2552 36.6214 10.8519 37.0494 10.321C37.4774 9.79011 37.8025 9.18724 38.0247 8.51236C38.2469 7.83744 38.3601 7.14817 38.3642 6.44445V4.66667H39.7592V6.44445ZM41.2901 7.37035H43.636V3.76544H44.9938V14.9383H43.636V8.4815H41.2901V7.37035ZM51.2804 3.87655C52.1278 3.87655 52.8524 3.95268 53.4533 4.10493C54.0538 4.25308 54.5128 4.46914 54.8297 4.75307C55.1465 5.03704 55.3049 5.38272 55.3049 5.79011C55.3049 6.20164 55.1465 6.55143 54.8297 6.83951C54.5128 7.12759 54.0538 7.3457 53.4533 7.49385C52.8524 7.63785 52.1278 7.71192 51.2804 7.71603C50.4326 7.71192 49.7081 7.63785 49.1076 7.49385C48.5067 7.3457 48.0476 7.12759 47.7308 6.83951C47.414 6.55143 47.2555 6.20164 47.2555 5.79011C47.2555 5.38272 47.414 5.03704 47.7308 4.75307C48.0476 4.46914 48.5067 4.25308 49.1076 4.10493C49.7124 3.95268 50.4366 3.87655 51.2804 3.87655ZM46.2063 8.2963H56.3791V9.37039H51.9591V10.2222H55.1074V12.9506H48.7619V13.7778H55.4159V14.8271H47.4159V11.9753H53.7618V11.2346H47.4037V10.2222H50.5891V9.37039H46.2063V8.2963ZM48.6999 5.79011C48.6959 6.09466 48.9101 6.32099 49.3419 6.46914C49.7741 6.61729 50.42 6.69547 51.2804 6.70373C52.1527 6.69547 52.805 6.61729 53.2372 6.46914C53.669 6.32099 53.8851 6.09466 53.8851 5.79011C53.8851 5.50207 53.665 5.28395 53.2245 5.13581C52.7884 4.98355 52.1405 4.90537 51.2804 4.90122C50.4326 4.90537 49.7883 4.98355 49.3482 5.13581C48.912 5.28395 48.6959 5.50207 48.6999 5.79011ZM66.3817 14.9259H65.0728V9.23457H63.8138V14.358H62.5543V3.97531H63.8138V8.13583H65.0728V3.76544H66.3817V14.9259ZM57.1222 5.08642H61.2952V6.19753H58.5049V11.1605C59.1509 11.1523 59.7355 11.1276 60.2582 11.0864C60.7805 11.0453 61.3114 10.9753 61.8507 10.8765L61.9495 12C61.328 12.1235 60.7169 12.2058 60.116 12.2469C59.5194 12.2881 58.7724 12.3128 57.8752 12.321H57.1222V5.08642ZM73.9767 5.92593H67.3594V4.83951H69.989V3.71605H71.3594V4.83951H73.9767V5.92593ZM67.9271 8.39507C67.9271 7.99179 68.0425 7.6358 68.2728 7.32717C68.5075 7.01851 68.8326 6.77986 69.2482 6.61112C69.6638 6.44239 70.1371 6.35805 70.6681 6.35805C71.1987 6.35805 71.67 6.44239 72.0816 6.61112C72.4972 6.77986 72.82 7.01851 73.0507 7.32717C73.281 7.6358 73.3964 7.99179 73.3964 8.39507C73.3964 8.79834 73.281 9.15433 73.0507 9.46296C72.82 9.77162 72.4972 10.0103 72.0816 10.179C71.67 10.3477 71.1987 10.4321 70.6681 10.4321C70.1371 10.4321 69.6638 10.3477 69.2482 10.179C68.8326 10.0103 68.5075 9.77162 68.2728 9.46296C68.0425 9.15433 67.9271 8.79834 67.9271 8.39507ZM68.7173 11.2716H76.1496V14.9259H74.7791V12.3704H68.7173V11.2716ZM69.2605 8.39507C69.2565 8.70369 69.3798 8.94444 69.6311 9.11728C69.8819 9.28601 70.2193 9.37039 70.6432 9.37039C71.0837 9.37039 71.4333 9.28601 71.6925 9.11728C71.956 8.94855 72.0875 8.70784 72.0875 8.39507C72.0875 8.0823 71.958 7.83744 71.6988 7.66049C71.4396 7.48354 71.0959 7.39509 70.6681 7.39509C70.2398 7.39509 69.8961 7.48354 69.637 7.66049C69.3818 7.83744 69.2565 8.0823 69.2605 8.39507ZM74.7791 3.76544H76.1496V6.72838H77.7049V7.85186H76.1496V10.7531H74.7791V3.76544ZM87.0655 5.92593C87.0655 6.55143 87.0572 7.09053 87.0406 7.54323C87.0284 7.99589 86.9932 8.51647 86.9359 9.10495C86.8783 9.68929 86.7854 10.321 86.6582 11L85.3122 10.8642C85.4809 9.95062 85.586 9.1317 85.6271 8.40739C85.6725 7.68312 85.695 6.85598 85.695 5.92593V5.88887H78.9419V4.79013H87.0655V5.92593ZM77.9175 12.358H80.2013V8.80245H81.5718V12.358H82.9912V8.80245H84.3372V12.358H88.0903V13.4815H77.9175V12.358ZM100.478 12.2716H99.1074V10.0741H97.4533V8.97533H99.1074V7.7284H97.4533V6.61729H99.1074V3.77778H100.478V12.2716ZM91.1568 5.01235H93.6508V3.76544H95.0209V5.01235H97.3912V6.11113H91.1568V5.01235ZM91.7371 8.74074C91.7371 8.32099 91.8462 7.94651 92.0642 7.61727C92.2863 7.28806 92.5928 7.03088 92.9839 6.84567C93.3751 6.66051 93.8195 6.56791 94.3173 6.56791C94.8194 6.56791 95.2678 6.66051 95.6628 6.84567C96.0579 7.03088 96.3688 7.28806 96.5952 7.61727C96.8216 7.94651 96.9346 8.32099 96.9346 8.74074C96.9346 9.16461 96.8216 9.54114 96.5952 9.87038C96.3728 10.1955 96.0623 10.4506 95.6628 10.6358C95.2678 10.821 94.8194 10.9136 94.3173 10.9136C93.8195 10.9136 93.3727 10.821 92.9776 10.6358C92.5869 10.4506 92.2823 10.1934 92.0642 9.86422C91.8462 9.53498 91.7371 9.1605 91.7371 8.74074ZM93.0211 8.74074C93.0167 9.08231 93.1341 9.35392 93.3727 9.55556C93.6117 9.75309 93.9262 9.85186 94.3173 9.85186C94.7084 9.85186 95.0252 9.75309 95.2678 9.55556C95.5107 9.35392 95.634 9.08231 95.6384 8.74074C95.634 8.40739 95.5107 8.14199 95.2678 7.94446C95.0252 7.74693 94.7084 7.64611 94.3173 7.642C93.9305 7.64611 93.6156 7.74693 93.3727 7.94446C93.1341 8.14199 93.0167 8.40739 93.0211 8.74074ZM93.1198 11.5432H94.5148V13.5926H100.725V14.7037H93.1198V11.5432ZM111.307 14.9259H109.999V9.23457H108.739V14.358H107.48V3.97531H108.739V8.13583H109.999V3.76544H111.307V14.9259ZM102.048 5.08642H106.221V6.19753H103.431V11.1605C104.077 11.1523 104.661 11.1276 105.184 11.0864C105.707 11.0453 106.237 10.9753 106.776 10.8765L106.875 12C106.254 12.1235 105.643 12.2058 105.042 12.2469C104.445 12.2881 103.698 12.3128 102.801 12.321H102.048V5.08642ZM121.075 7.28395H122.631V8.41976H121.075V12.1111H119.705V3.77778H121.075V7.28395ZM112.285 5.01235H114.915V3.76544H116.285V5.01235H118.902V6.11113H112.285V5.01235ZM112.853 8.70369C112.853 8.27983 112.968 7.9074 113.199 7.58641C113.429 7.26132 113.752 7.0103 114.168 6.83335C114.584 6.6564 115.059 6.56791 115.594 6.56791C116.125 6.56791 116.596 6.6564 117.007 6.83335C117.423 7.0103 117.746 7.26132 117.977 7.58641C118.207 7.9074 118.322 8.27983 118.322 8.70369C118.322 9.12348 118.207 9.49381 117.977 9.81484C117.746 10.1317 117.425 10.3786 117.014 10.5556C116.602 10.7284 116.129 10.8148 115.594 10.8148C115.055 10.8148 114.577 10.7284 114.162 10.5556C113.75 10.3786 113.429 10.1317 113.199 9.81484C112.968 9.49381 112.853 9.12348 112.853 8.70369ZM113.927 11.4568H115.297V13.5926H121.52V14.7037H113.927V11.4568ZM114.187 8.70369C114.182 9.03293 114.306 9.29012 114.557 9.47532C114.812 9.66049 115.151 9.75309 115.575 9.75309C116.012 9.75309 116.359 9.66254 116.619 9.48149C116.882 9.29628 117.014 9.03704 117.014 8.70369C117.014 8.37037 116.884 8.10904 116.625 7.91977C116.365 7.72634 116.022 7.62963 115.594 7.62963C115.166 7.62963 114.822 7.72634 114.563 7.91977C114.308 8.10904 114.182 8.37037 114.187 8.70369ZM131.794 5.12348V5.46916C131.794 5.93415 131.777 6.37859 131.744 6.80249C131.716 7.22221 131.652 7.67491 131.553 8.16048H133.041V9.27163H128.609V11.0123H131.819V14.9259H130.448V12.1111H123.88V11.0123H127.238V9.27163H122.843V8.16048H130.177C130.275 7.642 130.341 7.16666 130.374 6.73458C130.407 6.30246 130.424 5.84775 130.424 5.37039H124.103V4.27161H131.794V5.12348ZM139.167 9.17286H143.587V10.2839H133.414V9.17286H137.808V7.75309H139.167V9.17286ZM133.895 7.28395C134.566 7.2181 135.16 7.09259 135.679 6.90742C136.202 6.71811 136.619 6.48972 136.932 6.22223C137.249 5.95473 137.447 5.66669 137.525 5.35803H134.339V4.25924H142.673V5.35803H139.457C139.535 5.66254 139.73 5.95062 140.043 6.22223C140.36 6.48972 140.78 6.71811 141.302 6.90742C141.829 7.09259 142.43 7.2181 143.105 7.28395L142.611 8.35801C141.603 8.25513 140.739 8.01648 140.018 7.642C139.303 7.26748 138.792 6.79834 138.488 6.23455C138.183 6.80249 137.673 7.27368 136.957 7.64816C136.241 8.01853 135.381 8.25513 134.377 8.35801L133.895 7.28395ZM134.599 12.9506C134.599 12.535 134.753 12.1831 135.062 11.8951C135.371 11.6029 135.815 11.3807 136.395 11.2284C136.98 11.0762 137.677 11 138.488 11C139.294 11 139.986 11.0762 140.562 11.2284C141.138 11.3807 141.58 11.6029 141.889 11.8951C142.198 12.1831 142.352 12.535 142.352 12.9506C142.352 13.3704 142.198 13.7263 141.889 14.0185C141.584 14.3107 141.142 14.5329 140.562 14.6852C139.986 14.8375 139.294 14.9136 138.488 14.9136C137.677 14.9136 136.98 14.8375 136.395 14.6852C135.815 14.5329 135.371 14.3107 135.062 14.0185C134.753 13.7263 134.599 13.3704 134.599 12.9506ZM135.994 12.9506C135.99 13.2552 136.197 13.4856 136.617 13.642C137.041 13.7984 137.665 13.8765 138.488 13.8765C139.294 13.8765 139.909 13.7984 140.333 13.642C140.761 13.4856 140.977 13.2552 140.982 12.9506C140.977 12.6543 140.763 12.4321 140.34 12.284C139.916 12.1317 139.298 12.0535 138.488 12.0494C137.665 12.0535 137.041 12.1317 136.617 12.284C136.197 12.4321 135.99 12.6543 135.994 12.9506ZM152.786 6.51852H154.342V7.65432H152.786V10.2839H151.416V3.76544H152.786V6.51852ZM143.996 4.80245H146.626V3.67902H147.996V4.80245H150.614V5.90124H143.996V4.80245ZM144.564 8.24692C144.564 7.85596 144.679 7.51234 144.91 7.21604C145.14 6.91975 145.461 6.69136 145.873 6.53085C146.288 6.36627 146.766 6.28393 147.305 6.28393C147.836 6.28393 148.307 6.36627 148.718 6.53085C149.134 6.69136 149.457 6.91975 149.688 7.21604C149.918 7.51234 150.033 7.85596 150.033 8.24692C150.033 8.63787 149.918 8.9815 149.688 9.27779C149.457 9.57409 149.134 9.80453 148.718 9.96915C148.307 10.1296 147.836 10.2099 147.305 10.2099C146.766 10.2099 146.288 10.1296 145.873 9.96915C145.461 9.80864 145.14 9.58025 144.91 9.28395C144.679 8.98355 144.564 8.63787 144.564 8.24692ZM145.577 10.7284H146.935V11.6914H151.416V10.7284H152.786V14.7901H145.577V10.7284ZM145.898 8.24692C145.893 8.54321 146.019 8.77571 146.274 8.94444C146.533 9.11317 146.877 9.19752 147.305 9.19752C147.733 9.19752 148.076 9.11317 148.336 8.94444C148.595 8.77571 148.725 8.54321 148.725 8.24692C148.725 7.95473 148.595 7.72429 148.336 7.55556C148.076 7.38272 147.733 7.29632 147.305 7.29632C146.877 7.29632 146.533 7.38272 146.274 7.55556C146.019 7.72429 145.893 7.95473 145.898 8.24692ZM151.416 13.7037V12.7531H146.935V13.7037H151.416ZM163.9 11.9629H162.53V9.19752H159.869C159.602 9.49796 159.276 9.73251 158.894 9.90124C158.511 10.07 158.098 10.1564 157.653 10.1605C157.098 10.1605 156.596 10.037 156.147 9.79011C155.698 9.54319 155.344 9.20372 155.085 8.7716C154.83 8.33541 154.702 7.84775 154.702 7.30865C154.702 6.76133 154.83 6.27161 155.085 5.83949C155.344 5.4033 155.698 5.06173 156.147 4.81482C156.596 4.56791 157.098 4.44445 157.653 4.44445C158.093 4.44856 158.505 4.53294 158.888 4.69752C159.271 4.86215 159.595 5.09464 159.863 5.39505H162.53V3.77778H163.9V11.9629ZM156.011 7.30865C156.011 7.63374 156.081 7.91977 156.221 8.16668C156.361 8.41359 156.555 8.60492 156.801 8.74074C157.052 8.87242 157.336 8.93828 157.653 8.93828C157.958 8.93828 158.231 8.87242 158.474 8.74074C158.721 8.60492 158.914 8.41359 159.054 8.16668C159.198 7.91977 159.271 7.63374 159.271 7.30865C159.271 6.98355 159.198 6.69752 159.054 6.45061C158.914 6.19959 158.721 6.00617 158.474 5.87038C158.231 5.73456 157.958 5.66669 157.653 5.66669C157.336 5.66669 157.052 5.73456 156.801 5.87038C156.555 6.00617 156.361 6.19753 156.221 6.44445C156.081 6.69136 156.011 6.97944 156.011 7.30865ZM156.579 11.1234H157.949V13.5926H164.184V14.7037H156.579V11.1234ZM160.468 6.5062C160.542 6.78191 160.579 7.04941 160.579 7.30865C160.579 7.57203 160.544 7.83127 160.474 8.08644H162.53V6.5062H160.468ZM174.051 5.44443C174.047 6.17695 174.028 6.81482 173.995 7.35803C173.962 7.89713 173.882 8.51441 173.754 9.20988H175.297V10.321H170.865V14.9383H169.483V10.321H165.125V9.20988H172.359C172.495 8.535 172.581 7.92182 172.619 7.37035C172.66 6.81893 172.68 6.21401 172.68 5.55556H166.322V4.44445H174.051V5.44443ZM184.498 6.90126H186.065V8.03706H184.498V11.8395H183.127V3.76544H184.498V6.90126ZM176.164 4.69136H181.164V5.79011H177.522V8.82718C178.608 8.82718 179.483 8.80455 180.146 8.75927C180.812 8.70989 181.469 8.61729 182.115 8.4815L182.263 9.59258C181.551 9.73251 180.823 9.82716 180.078 9.87655C179.333 9.92593 178.329 9.95062 177.065 9.95062H176.164V4.69136ZM177.349 10.9877H178.72V13.5926H184.942V14.7037H177.349V10.9877Z" fill="white"/>
<path d="M39.4182 20.9495C39.3886 20.6537 39.254 20.423 39.0144 20.2573C38.7748 20.0917 38.4687 20.0089 38.096 20.0089C37.8387 20.0089 37.6124 20.0503 37.4172 20.1331C37.2249 20.213 37.0756 20.3254 36.9691 20.4703C36.8626 20.6152 36.8094 20.7779 36.8094 20.9583C36.8094 21.2305 36.9218 21.4405 37.1466 21.5883C37.3713 21.7363 37.6494 21.8487 37.9806 21.9255L38.6018 22.0941C39.8352 22.3929 40.4533 22.9963 40.4565 23.9043C40.4533 24.2681 40.3573 24.592 40.1681 24.876C39.9816 25.1599 39.708 25.3832 39.3472 25.5459C38.9893 25.7056 38.5634 25.7855 38.0694 25.7855C37.5932 25.7855 37.1776 25.7101 36.8227 25.5592C36.4707 25.4054 36.1941 25.1865 35.993 24.9026C35.7948 24.6186 35.6854 24.2829 35.6647 23.8955H36.6408C36.6674 24.2327 36.8123 24.49 37.0756 24.6675C37.3418 24.842 37.6731 24.9307 38.0694 24.9336C38.3415 24.9336 38.5841 24.8907 38.797 24.805C39.0129 24.7162 39.1816 24.5935 39.3028 24.4367C39.427 24.277 39.4891 24.0936 39.4891 23.8866C39.4891 23.7091 39.4374 23.5597 39.3339 23.4385C39.2303 23.3172 39.0913 23.2181 38.9168 23.1412C38.7452 23.0613 38.5308 22.9874 38.2735 22.9193L37.5104 22.7153C36.9721 22.5674 36.5579 22.3544 36.2681 22.0764C35.9812 21.7984 35.8362 21.4434 35.8333 21.0116C35.8333 20.6477 35.9324 20.3268 36.1305 20.0488C36.3317 19.7678 36.6053 19.5504 36.9514 19.3966C37.3003 19.2428 37.6908 19.1659 38.1226 19.1659C38.5515 19.1659 38.9346 19.2428 39.2717 19.3966C39.6089 19.5475 39.8737 19.7589 40.0658 20.0311C40.2582 20.3002 40.3589 20.6063 40.3676 20.9495H39.4182ZM46.883 25.679H45.987L42.7305 20.985H42.6771V25.679H41.7009V19.2546H42.606L45.8625 23.9576H45.9245V19.2546H46.883V25.679ZM53.4959 19.2546V23.4784C53.4959 23.925 53.3896 24.3228 53.1767 24.6719C52.9665 25.0209 52.6679 25.2945 52.2803 25.4927C51.8959 25.6879 51.4522 25.7855 50.9493 25.7855C50.4405 25.7855 49.9925 25.6879 49.6049 25.4927C49.2178 25.2945 48.9187 25.0209 48.7089 24.6719C48.4988 24.3228 48.3937 23.925 48.3937 23.4784V19.2546H49.3699V23.3985C49.3699 23.6884 49.4335 23.9472 49.5607 24.175C49.6879 24.3998 49.8712 24.5772 50.111 24.7074C50.3504 24.8346 50.6301 24.8981 50.9493 24.8981C51.2689 24.8981 51.5471 24.8346 51.7837 24.7074C52.02 24.5772 52.2021 24.3998 52.3293 24.175C52.4565 23.9472 52.5201 23.6884 52.5201 23.3985V19.2546H53.4959ZM61.7709 21.3488C61.7207 21.0796 61.6156 20.8474 61.4556 20.6522C61.2992 20.457 61.1036 20.3091 60.8701 20.2085C60.6394 20.108 60.3866 20.0591 60.1116 20.0621C59.7387 20.0591 59.406 20.1523 59.1133 20.3416C58.8233 20.528 58.5942 20.803 58.4255 21.1669C58.26 21.5277 58.177 21.961 58.177 22.4668C58.177 22.9756 58.26 23.4118 58.4255 23.7756C58.5942 24.1365 58.8233 24.4101 59.1133 24.5965C59.406 24.7828 59.7387 24.8745 60.1116 24.8715C60.3834 24.8745 60.6351 24.8272 60.8658 24.7296C61.0965 24.629 61.2901 24.4826 61.4469 24.2903C61.6065 24.0981 61.7148 23.8688 61.7709 23.6026L62.7558 23.6115C62.6878 24.0315 62.5325 24.4057 62.29 24.734C62.0502 25.0594 61.7412 25.3137 61.3628 25.4971C60.9871 25.6775 60.5671 25.7677 60.1025 25.7677C59.5435 25.7677 59.0453 25.6346 58.6072 25.3685C58.1695 25.1022 57.8266 24.7207 57.5781 24.2238C57.3327 23.7239 57.2099 23.1382 57.2099 22.4668C57.2099 21.7954 57.3339 21.2112 57.5824 20.7143C57.8309 20.2144 58.1742 19.8314 58.612 19.5652C59.0497 19.299 59.5467 19.1659 60.1025 19.1659C60.5553 19.1659 60.9693 19.2531 61.345 19.4277C61.7207 19.5992 62.0312 19.8492 62.2765 20.1775C62.525 20.5058 62.6846 20.8962 62.7558 21.3488H61.7709ZM65.9704 25.7766C65.5208 25.7766 65.1242 25.6731 64.7812 25.466C64.4411 25.259 64.178 24.9691 63.9915 24.5965C63.8082 24.2208 63.7165 23.786 63.7165 23.292C63.7165 22.7981 63.8082 22.3633 63.9915 21.9876C64.178 21.609 64.4411 21.3162 64.7812 21.1092C65.1242 20.9021 65.5208 20.7986 65.9704 20.7986C66.4168 20.7986 66.8103 20.9021 67.1504 21.1092C67.4906 21.3162 67.7525 21.609 67.9358 21.9876C68.1219 22.3633 68.2151 22.7981 68.2151 23.292C68.2151 23.786 68.1219 24.2208 67.9358 24.5965C67.7525 24.9691 67.4906 25.259 67.1504 25.466C66.8103 25.6731 66.4168 25.7766 65.9704 25.7766ZM64.6659 23.292C64.6659 23.6085 64.7145 23.8955 64.8124 24.1528C64.91 24.4071 65.0562 24.6098 65.2514 24.7606C65.4465 24.9114 65.6863 24.9869 65.9704 24.9869C66.2481 24.9869 66.4836 24.9114 66.6756 24.7606C66.8707 24.6098 67.0157 24.4071 67.1105 24.1528C67.2081 23.8955 67.2571 23.6085 67.2571 23.292C67.2571 22.9756 67.2081 22.6887 67.1105 22.4313C67.0157 22.171 66.8707 21.964 66.6756 21.8102C66.4836 21.6564 66.2481 21.5795 65.9704 21.5795C65.6863 21.5795 65.4465 21.6564 65.2514 21.8102C65.0562 21.964 64.91 22.171 64.8124 22.4313C64.7145 22.6887 64.6659 22.9756 64.6659 23.292ZM70.2939 25.679H69.3446V20.8607H70.2584V21.6504H70.3117C70.4271 21.3813 70.6044 21.1728 70.8443 21.0249C71.0868 20.874 71.3823 20.7986 71.7316 20.7986C72.0626 20.7986 72.351 20.8681 72.5967 21.0071C72.8452 21.1462 73.0357 21.3517 73.1688 21.6239C73.3051 21.896 73.373 22.2272 73.373 22.6177V25.679H72.4324V22.733C72.4296 22.381 72.338 22.1075 72.1574 21.9122C71.9801 21.7141 71.7316 21.615 71.412 21.615C71.1931 21.615 70.9995 21.6623 70.8308 21.757C70.6621 21.8516 70.5306 21.9906 70.4358 22.174C70.3413 22.3544 70.2939 22.5703 70.2939 22.8218V25.679ZM76.978 21.615H75.9931V24.2592C75.9959 24.5077 76.0476 24.6778 76.1483 24.7695C76.2487 24.8582 76.3893 24.9041 76.5699 24.907C76.7117 24.907 76.8713 24.8981 77.0491 24.8804V25.7056C76.8772 25.7293 76.6793 25.7411 76.4545 25.7411C76.1969 25.7411 75.9619 25.6938 75.7489 25.5992C75.536 25.5045 75.3661 25.361 75.2389 25.1688C75.1117 24.9736 75.0493 24.7355 75.0524 24.4545V21.615H74.3425V20.8607H75.0524V19.7072H75.9931V20.8607H76.978V21.615ZM80.1215 25.7766C79.6541 25.7766 79.2476 25.6746 78.9015 25.4705C78.5555 25.2664 78.2908 24.978 78.1071 24.6053C77.9238 24.2326 77.8321 23.7978 77.8321 23.3009C77.8321 22.8099 77.9238 22.3751 78.1071 21.9965C78.2908 21.6179 78.5507 21.3236 78.8881 21.1136C79.2251 20.9036 79.6158 20.7986 80.0595 20.7986C80.447 20.7986 80.8018 20.8829 81.1242 21.0515C81.4465 21.2201 81.7053 21.4863 81.9004 21.8501C82.0988 22.211 82.1979 22.668 82.1979 23.2211V23.5582H78.7727C78.7814 23.8599 78.8439 24.1188 78.9592 24.3347C79.0746 24.5506 79.2326 24.7147 79.4337 24.8272C79.6348 24.9396 79.8671 24.9958 80.1302 24.9958C80.3846 24.9958 80.6007 24.9484 80.7781 24.8538C80.9586 24.7562 81.0918 24.629 81.1775 24.4722H82.1359C82.0648 24.7325 81.9376 24.9617 81.7543 25.1599C81.571 25.3551 81.3403 25.5075 81.0621 25.6169C80.784 25.7234 80.4703 25.7766 80.1215 25.7766ZM81.266 22.8484C81.266 22.6058 81.2158 22.3884 81.1155 22.1962C81.0179 22.0009 80.8772 21.8501 80.6939 21.7436C80.5134 21.6342 80.3048 21.5795 80.0682 21.5795C79.8228 21.5795 79.604 21.6371 79.4116 21.7525C79.2223 21.8649 79.073 22.0187 78.9636 22.2139C78.8541 22.4091 78.7921 22.6206 78.7771 22.8484H81.266ZM83.3361 20.8607H84.2499V21.6504H84.3032C84.4067 21.3813 84.5722 21.1728 84.8002 21.0249C85.0278 20.874 85.3 20.7986 85.6164 20.7986C85.9328 20.7986 86.2023 20.8726 86.4239 21.0204C86.6459 21.1684 86.8083 21.3783 86.9118 21.6504H86.9651C87.0805 21.3872 87.2638 21.1802 87.5155 21.0293C87.7699 20.8755 88.0685 20.7986 88.4115 20.7986C88.7074 20.7986 88.9661 20.8607 89.1882 20.985C89.4129 21.1062 89.5872 21.2911 89.7116 21.5396C89.8388 21.788 89.9024 22.0912 89.9024 22.4491V25.679H88.9527V22.5378C88.9527 22.2272 88.8685 21.9965 88.6999 21.8457C88.5316 21.6919 88.3139 21.615 88.0476 21.615C87.8497 21.615 87.6782 21.6579 87.5332 21.7436C87.3882 21.8264 87.2772 21.9433 87.2002 22.0941C87.1263 22.245 87.0896 22.4166 87.0896 22.6088V25.679H86.1489V22.4846C86.1489 22.31 86.1118 22.1577 86.0379 22.0276C85.9641 21.8945 85.8605 21.7924 85.7274 21.7214C85.5943 21.6504 85.4418 21.615 85.2703 21.615C85.0929 21.615 84.9286 21.6623 84.7781 21.757C84.6272 21.8486 84.5075 21.9773 84.4186 22.1429C84.3297 22.3086 84.2854 22.4964 84.2854 22.7064V25.679H83.3361V20.8607ZM91.2444 20.8607H92.1673V21.6416H92.2471C92.3301 21.4966 92.4202 21.365 92.5177 21.2467C92.6185 21.1284 92.7603 21.0249 92.944 20.9361C93.1301 20.8444 93.3592 20.7986 93.6314 20.7986C94.0221 20.7986 94.3694 20.8977 94.674 21.0959C94.9817 21.2941 95.2215 21.581 95.393 21.9566C95.5672 22.3293 95.6545 22.7715 95.6545 23.2832C95.6545 23.789 95.5688 24.2311 95.3973 24.6098C95.2259 24.9854 94.9877 25.2738 94.6831 25.4749C94.3785 25.6731 94.0308 25.7737 93.6405 25.7766C93.2589 25.7737 92.963 25.6894 92.7532 25.5237C92.543 25.3581 92.3743 25.1584 92.2471 24.9248H92.1942V27.4892H91.2444V20.8607ZM92.1764 23.2654C92.1764 23.6056 92.225 23.9043 92.3226 24.1617C92.4201 24.416 92.5624 24.6142 92.7484 24.7562C92.9381 24.8981 93.1641 24.9691 93.4276 24.9691C93.6966 24.9691 93.9257 24.8952 94.115 24.7473C94.3074 24.5994 94.4523 24.3983 94.5499 24.1439C94.6475 23.8866 94.6965 23.5938 94.6965 23.2654C94.6965 22.943 94.6475 22.6576 94.5499 22.4091C94.4551 22.1577 94.3133 21.961 94.124 21.8191C93.9348 21.6771 93.7025 21.6061 93.4276 21.6061C93.1613 21.6061 92.9333 21.6741 92.7441 21.8102C92.5576 21.9433 92.4158 22.1355 92.3182 22.387C92.2234 22.6354 92.1764 22.9282 92.1764 23.2654ZM98.8336 25.7766C98.384 25.7766 97.9878 25.6731 97.6444 25.466C97.3043 25.259 97.0412 24.9691 96.8547 24.5965C96.6714 24.2208 96.5798 23.786 96.5798 23.292C96.5798 22.7981 96.6714 22.3633 96.8547 21.9876C97.0412 21.609 97.3043 21.3162 97.6444 21.1092C97.9878 20.9021 98.384 20.7986 98.8336 20.7986C99.2804 20.7986 99.6739 20.9021 100.014 21.1092C100.354 21.3162 100.616 21.609 100.799 21.9876C100.985 22.3633 101.079 22.7981 101.079 23.292C101.079 23.786 100.985 24.2208 100.799 24.5965C100.616 24.9691 100.354 25.259 100.014 25.466C99.6739 25.6731 99.2804 25.7766 98.8336 25.7766ZM97.5291 23.292C97.5291 23.6085 97.5781 23.8955 97.6757 24.1528C97.7732 24.4071 97.9198 24.6098 98.115 24.7606C98.3101 24.9114 98.5495 24.9869 98.8336 24.9869C99.1117 24.9869 99.3468 24.9114 99.5392 24.7606C99.7343 24.6098 99.8793 24.4071 99.9737 24.1528C100.072 23.8955 100.12 23.6085 100.12 23.292C100.12 22.9756 100.072 22.6887 99.9737 22.4313C99.8793 22.171 99.7343 21.964 99.5392 21.8102C99.3468 21.6564 99.1117 21.5795 98.8336 21.5795C98.5495 21.5795 98.3101 21.6564 98.115 21.8102C97.9198 21.964 97.7732 22.171 97.6757 22.4313C97.5781 22.6887 97.5291 22.9756 97.5291 23.292ZM102.208 20.8607H103.122V21.6239H103.175C103.264 21.3695 103.417 21.1669 103.636 21.016C103.858 20.8651 104.108 20.7897 104.386 20.7897C104.525 20.7897 104.663 20.7957 104.799 20.8075V21.7126C104.746 21.7007 104.669 21.6889 104.568 21.6771C104.471 21.6653 104.379 21.6593 104.293 21.6593C104.077 21.6593 103.884 21.7067 103.712 21.8013C103.54 21.893 103.404 22.0217 103.304 22.1873C103.206 22.35 103.158 22.5348 103.158 22.7419V25.679H102.208V20.8607ZM105.431 24.3214C105.428 23.8215 105.595 23.4651 105.932 23.2521C106.273 23.0392 106.706 22.9135 107.233 22.875C107.916 22.8365 108.337 22.8144 108.497 22.8085L108.492 22.4224C108.496 22.1474 108.413 21.9359 108.244 21.788C108.078 21.6371 107.836 21.5617 107.517 21.5617C107.247 21.5617 107.027 21.6179 106.855 21.7303C106.684 21.8398 106.573 21.9876 106.523 22.174H105.582C105.612 21.9078 105.711 21.6711 105.88 21.4641C106.048 21.2541 106.276 21.0914 106.563 20.9761C106.849 20.8578 107.179 20.7986 107.552 20.7986C107.857 20.7986 108.15 20.8459 108.43 20.9406C108.714 21.0323 108.954 21.2038 109.149 21.4552C109.345 21.7037 109.442 22.0439 109.442 22.4757V25.679H108.519V25.0224H108.484C108.374 25.2324 108.2 25.4128 107.96 25.5637C107.72 25.7116 107.419 25.7855 107.055 25.7855C106.747 25.7855 106.469 25.7278 106.221 25.6124C105.976 25.4971 105.782 25.33 105.64 25.1111C105.501 24.8893 105.431 24.626 105.431 24.3214ZM106.354 24.3302C106.354 24.555 106.437 24.7281 106.602 24.8493C106.771 24.9677 106.993 25.0283 107.268 25.0313C107.517 25.0313 107.734 24.981 107.92 24.8804C108.106 24.7798 108.25 24.6467 108.351 24.4811C108.451 24.3125 108.502 24.1321 108.502 23.9398L108.497 23.5006L107.366 23.576C107.043 23.5997 106.793 23.6736 106.616 23.7978C106.441 23.9221 106.354 24.0996 106.354 24.3302ZM110.784 20.8607H111.698V21.6239H111.751C111.84 21.3695 111.994 21.1669 112.213 21.016C112.435 20.8651 112.685 20.7897 112.963 20.7897C113.102 20.7897 113.239 20.7957 113.375 20.8075V21.7126C113.322 21.7007 113.245 21.6889 113.145 21.6771C113.047 21.6653 112.955 21.6593 112.87 21.6593C112.654 21.6593 112.46 21.7067 112.288 21.8013C112.117 21.893 111.981 22.0217 111.88 22.1873C111.783 22.35 111.734 22.5348 111.734 22.7419V25.679H110.784V20.8607ZM115.019 27.4892C114.762 27.4833 114.593 27.4744 114.514 27.4626V26.6728C114.561 26.6758 114.703 26.6817 114.939 26.6906C115.064 26.6876 115.164 26.6743 115.241 26.6507C115.321 26.63 115.399 26.5737 115.476 26.4821C115.556 26.3933 115.632 26.2528 115.702 26.0606L115.818 25.7411L114.052 20.8607H115.064L116.279 24.5965H116.332L117.548 20.8607H118.568L116.581 26.3179C116.439 26.7054 116.241 26.9967 115.986 27.1919C115.732 27.3871 115.41 27.4862 115.019 27.4892ZM122.034 19.2546H123.01V22.316H123.09L125.778 19.2546H127.003L124.412 22.1474L127.012 25.679H125.832L123.764 22.8129L123.01 23.6825V25.679H122.034V19.2546ZM129.614 25.7766C129.164 25.7766 128.768 25.6731 128.425 25.466C128.085 25.259 127.822 24.9691 127.636 24.5965C127.452 24.2208 127.36 23.786 127.36 23.292C127.36 22.7981 127.452 22.3633 127.636 21.9876C127.822 21.609 128.085 21.3162 128.425 21.1092C128.768 20.9021 129.164 20.7986 129.614 20.7986C130.061 20.7986 130.454 20.9021 130.794 21.1092C131.135 21.3162 131.396 21.609 131.579 21.9876C131.766 22.3633 131.859 22.7981 131.859 23.292C131.859 23.786 131.766 24.2208 131.579 24.5965C131.396 24.9691 131.135 25.259 130.794 25.466C130.454 25.6731 130.061 25.7766 129.614 25.7766ZM128.31 23.292C128.31 23.6085 128.359 23.8955 128.456 24.1528C128.554 24.4071 128.7 24.6098 128.895 24.7606C129.091 24.9114 129.33 24.9869 129.614 24.9869C129.892 24.9869 130.127 24.9114 130.32 24.7606C130.515 24.6098 130.66 24.4071 130.755 24.1528C130.852 23.8955 130.901 23.6085 130.901 23.292C130.901 22.9756 130.852 22.6887 130.755 22.4313C130.66 22.171 130.515 21.964 130.32 21.8102C130.127 21.6564 129.892 21.5795 129.614 21.5795C129.33 21.5795 129.091 21.6564 128.895 21.8102C128.7 21.964 128.554 22.171 128.456 22.4313C128.359 22.6887 128.31 22.9756 128.31 23.292ZM132.988 20.8607H133.902V21.6239H133.956C134.044 21.3695 134.198 21.1669 134.417 21.016C134.639 20.8651 134.889 20.7897 135.167 20.7897C135.306 20.7897 135.444 20.7957 135.579 20.8075V21.7126C135.526 21.7007 135.449 21.6889 135.349 21.6771C135.251 21.6653 135.16 21.6593 135.074 21.6593C134.858 21.6593 134.664 21.7067 134.492 21.8013C134.321 21.893 134.185 22.0217 134.084 22.1873C133.987 22.35 133.938 22.5348 133.938 22.7419V25.679H132.988V20.8607ZM138.403 25.7766C137.936 25.7766 137.529 25.6746 137.183 25.4705C136.837 25.2664 136.573 24.978 136.389 24.6053C136.206 24.2326 136.114 23.7978 136.114 23.3009C136.114 22.8099 136.206 22.3751 136.389 21.9965C136.573 21.6179 136.833 21.3236 137.17 21.1136C137.507 20.9036 137.898 20.7986 138.341 20.7986C138.729 20.7986 139.084 20.8829 139.406 21.0515C139.729 21.2201 139.988 21.4863 140.183 21.8501C140.381 22.211 140.48 22.668 140.48 23.2211V23.5582H137.055C137.064 23.8599 137.126 24.1188 137.241 24.3347C137.356 24.5506 137.515 24.7147 137.716 24.8272C137.917 24.9396 138.149 24.9958 138.412 24.9958C138.667 24.9958 138.883 24.9484 139.06 24.8538C139.24 24.7562 139.374 24.629 139.459 24.4722H140.418C140.347 24.7325 140.219 24.9617 140.036 25.1599C139.853 25.3551 139.622 25.5075 139.344 25.6169C139.066 25.7234 138.753 25.7766 138.403 25.7766ZM139.548 22.8484C139.548 22.6058 139.498 22.3884 139.397 22.1962C139.3 22.0009 139.159 21.8501 138.976 21.7436C138.795 21.6342 138.587 21.5795 138.35 21.5795C138.105 21.5795 137.886 21.6371 137.693 21.7525C137.504 21.8649 137.355 22.0187 137.245 22.2139C137.136 22.4091 137.074 22.6206 137.059 22.8484H139.548ZM141.396 24.3214C141.393 23.8215 141.56 23.4651 141.898 23.2521C142.238 23.0392 142.671 22.9135 143.197 22.875C143.881 22.8365 144.302 22.8144 144.462 22.8085L144.458 22.4224C144.46 22.1474 144.377 21.9359 144.209 21.788C144.043 21.6371 143.801 21.5617 143.481 21.5617C143.212 21.5617 142.992 21.6179 142.821 21.7303C142.649 21.8398 142.538 21.9876 142.488 22.174H141.547C141.576 21.9078 141.676 21.6711 141.844 21.4641C142.013 21.2541 142.241 21.0914 142.527 20.9761C142.815 20.8578 143.144 20.7986 143.517 20.7986C143.822 20.7986 144.114 20.8459 144.395 20.9406C144.679 21.0323 144.919 21.2038 145.114 21.4552C145.309 21.7037 145.407 22.0439 145.407 22.4757V25.679H144.484V25.0224H144.449C144.339 25.2324 144.165 25.4128 143.925 25.5637C143.685 25.7116 143.384 25.7855 143.02 25.7855C142.712 25.7855 142.434 25.7278 142.186 25.6124C141.94 25.4971 141.747 25.33 141.605 25.1111C141.465 24.8893 141.396 24.626 141.396 24.3214ZM142.319 24.3302C142.319 24.555 142.402 24.7281 142.567 24.8493C142.736 24.9677 142.958 25.0283 143.233 25.0313C143.481 25.0313 143.699 24.981 143.885 24.8804C144.072 24.7798 144.215 24.6467 144.315 24.4811C144.416 24.3125 144.466 24.1321 144.466 23.9398L144.462 23.5006L143.331 23.576C143.008 23.5997 142.758 23.6736 142.581 23.7978C142.406 23.9221 142.319 24.0996 142.319 24.3302ZM147.699 25.679H146.749V20.8607H147.663V21.6504H147.717C147.832 21.3813 148.009 21.1728 148.249 21.0249C148.491 20.874 148.787 20.7986 149.136 20.7986C149.467 20.7986 149.756 20.8681 150.001 21.0071C150.25 21.1462 150.44 21.3517 150.574 21.6239C150.71 21.896 150.778 22.2272 150.778 22.6177V25.679H149.837V22.733C149.834 22.381 149.742 22.1075 149.562 21.9122C149.384 21.7141 149.136 21.615 148.817 21.615C148.598 21.615 148.404 21.6623 148.236 21.757C148.067 21.8516 147.935 21.9906 147.841 22.174C147.746 22.3544 147.699 22.5703 147.699 22.8218V25.679ZM158.121 20.9495C158.091 20.6537 157.957 20.423 157.717 20.2573C157.477 20.0917 157.171 20.0089 156.799 20.0089C156.541 20.0089 156.315 20.0503 156.12 20.1331C155.928 20.213 155.778 20.3254 155.672 20.4703C155.565 20.6152 155.512 20.7779 155.512 20.9583C155.512 21.2305 155.624 21.4405 155.849 21.5883C156.074 21.7363 156.352 21.8487 156.683 21.9255L157.304 22.0941C158.538 22.3929 159.156 22.9963 159.159 23.9043C159.156 24.2681 159.06 24.592 158.87 24.876C158.684 25.1599 158.41 25.3832 158.05 25.5459C157.692 25.7056 157.266 25.7855 156.772 25.7855C156.296 25.7855 155.88 25.7101 155.525 25.5592C155.173 25.4054 154.897 25.1865 154.696 24.9026C154.497 24.6186 154.388 24.2829 154.367 23.8955H155.343C155.37 24.2327 155.515 24.49 155.778 24.6675C156.044 24.842 156.376 24.9307 156.772 24.9336C157.044 24.9336 157.287 24.8907 157.499 24.805C157.716 24.7162 157.884 24.5935 158.006 24.4367C158.13 24.277 158.192 24.0936 158.192 23.8866C158.192 23.7091 158.14 23.5597 158.036 23.4385C157.933 23.3172 157.794 23.2181 157.619 23.1412C157.448 23.0613 157.233 22.9874 156.976 22.9193L156.213 22.7153C155.675 22.5674 155.261 22.3544 154.971 22.0764C154.684 21.7984 154.539 21.4434 154.536 21.0116C154.536 20.6477 154.635 20.3268 154.833 20.0488C155.034 19.7678 155.308 19.5504 155.654 19.3966C156.003 19.2428 156.393 19.1659 156.825 19.1659C157.254 19.1659 157.637 19.2428 157.974 19.3966C158.311 19.5475 158.576 19.7589 158.768 20.0311C158.961 20.3002 159.061 20.6063 159.07 20.9495H158.121ZM162.578 21.615H161.593V24.2592C161.595 24.5077 161.647 24.6778 161.748 24.7695C161.848 24.8582 161.989 24.9041 162.169 24.907C162.311 24.907 162.471 24.8981 162.648 24.8804V25.7056C162.477 25.7293 162.279 25.7411 162.054 25.7411C161.797 25.7411 161.561 25.6938 161.349 25.5992C161.136 25.5045 160.965 25.361 160.838 25.1688C160.711 24.9736 160.649 24.7355 160.652 24.4545V21.615H159.942V20.8607H160.652V19.7072H161.593V20.8607H162.578V21.615ZM166.759 20.8607H167.7V25.679H166.777V24.8449H166.724C166.608 25.1141 166.426 25.3315 166.178 25.4971C165.932 25.6598 165.635 25.7411 165.286 25.7411C164.973 25.7411 164.696 25.6716 164.457 25.5326C164.217 25.3936 164.031 25.188 163.897 24.9159C163.764 24.6408 163.698 24.3095 163.698 23.9221V20.8607H164.647V23.8067C164.647 24.0226 164.689 24.2119 164.771 24.3746C164.854 24.5373 164.968 24.663 165.113 24.7517C165.261 24.8375 165.431 24.8804 165.624 24.8804C165.81 24.8804 165.99 24.836 166.165 24.7473C166.339 24.6556 166.481 24.5195 166.591 24.3391C166.703 24.1557 166.759 23.9339 166.759 23.6736V20.8607ZM170.852 25.7766C170.465 25.7737 170.119 25.6731 169.814 25.4749C169.509 25.2738 169.27 24.9854 169.095 24.6098C168.924 24.2311 168.838 23.789 168.838 23.2832C168.838 22.7715 168.925 22.3293 169.1 21.9566C169.274 21.581 169.514 21.2941 169.818 21.0959C170.126 20.8977 170.474 20.7986 170.861 20.7986C171.136 20.7986 171.365 20.8444 171.549 20.9361C171.735 21.0249 171.877 21.1284 171.975 21.2467C172.075 21.3621 172.168 21.4937 172.254 21.6416H172.298V19.2546H173.248V25.679H172.325V24.9248H172.254C172.171 25.0697 172.077 25.2028 171.97 25.3241C171.867 25.4424 171.722 25.5474 171.536 25.6391C171.349 25.7308 171.121 25.7766 170.852 25.7766ZM169.805 23.2654C169.802 23.5938 169.849 23.8866 169.947 24.1439C170.045 24.3983 170.188 24.5994 170.377 24.7473C170.567 24.8952 170.796 24.9691 171.065 24.9691C171.329 24.9691 171.555 24.8981 171.744 24.7562C171.933 24.6142 172.077 24.4145 172.174 24.1572C172.275 23.8999 172.325 23.6026 172.325 23.2654C172.325 22.9282 172.276 22.6354 172.179 22.387C172.081 22.1385 171.938 21.9462 171.749 21.8102C171.559 21.6741 171.331 21.6061 171.065 21.6061C170.793 21.6061 170.562 21.6771 170.373 21.8191C170.184 21.961 170.04 22.1577 169.943 22.4091C169.848 22.6576 169.802 22.943 169.805 23.2654ZM174.679 20.8607H175.628V25.679H174.679V20.8607ZM175.149 20.1154C175.043 20.1154 174.944 20.0902 174.852 20.0399C174.763 19.9896 174.691 19.9216 174.634 19.8358C174.582 19.7501 174.555 19.6569 174.555 19.5563C174.555 19.4558 174.582 19.3626 174.634 19.2768C174.691 19.191 174.765 19.123 174.856 19.0727C174.951 19.0225 175.052 18.9973 175.158 18.9973C175.265 18.9973 175.364 19.0225 175.455 19.0727C175.547 19.123 175.619 19.191 175.673 19.2768C175.726 19.3626 175.752 19.4558 175.752 19.5563C175.752 19.6598 175.724 19.7545 175.668 19.8403C175.615 19.926 175.543 19.9941 175.451 20.0444C175.359 20.0917 175.259 20.1154 175.149 20.1154ZM179.056 25.7766C178.589 25.7766 178.182 25.6746 177.836 25.4705C177.49 25.2664 177.225 24.978 177.042 24.6053C176.858 24.2326 176.767 23.7978 176.767 23.3009C176.767 22.8099 176.858 22.3751 177.042 21.9965C177.225 21.6179 177.485 21.3236 177.823 21.1136C178.16 20.9036 178.55 20.7986 178.994 20.7986C179.381 20.7986 179.736 20.8829 180.059 21.0515C180.381 21.2201 180.64 21.4863 180.835 21.8501C181.033 22.211 181.132 22.668 181.132 23.2211V23.5582H177.707C177.716 23.8599 177.778 24.1188 177.893 24.3347C178.009 24.5506 178.167 24.7147 178.368 24.8272C178.569 24.9396 178.802 24.9958 179.065 24.9958C179.319 24.9958 179.535 24.9484 179.713 24.8538C179.893 24.7562 180.026 24.629 180.112 24.4722H181.07C180.999 24.7325 180.872 24.9617 180.689 25.1599C180.505 25.3551 180.274 25.5075 179.997 25.6169C179.719 25.7234 179.405 25.7766 179.056 25.7766ZM180.201 22.8484C180.201 22.6058 180.15 22.3884 180.05 22.1962C179.952 22.0009 179.812 21.8501 179.628 21.7436C179.448 21.6342 179.239 21.5795 179.003 21.5795C178.757 21.5795 178.538 21.6371 178.346 21.7525C178.157 21.8649 178.008 22.0187 177.898 22.2139C177.789 22.4091 177.726 22.6206 177.712 22.8484H180.201ZM184.977 22.174C184.933 21.9758 184.832 21.822 184.675 21.7126C184.521 21.6002 184.317 21.544 184.063 21.544C183.885 21.544 183.727 21.5721 183.588 21.6283C183.449 21.6845 183.34 21.7614 183.26 21.859C183.18 21.9566 183.14 22.0661 183.14 22.1873C183.14 22.3322 183.199 22.4565 183.318 22.56C183.439 22.6635 183.631 22.7448 183.894 22.804L184.657 22.9815C185.101 23.082 185.431 23.2403 185.647 23.4562C185.866 23.6692 185.977 23.9457 185.979 24.2859C185.977 24.5758 185.895 24.8346 185.735 25.0623C185.579 25.2871 185.353 25.4631 185.057 25.5903C184.761 25.7145 184.412 25.7766 184.01 25.7766C183.436 25.7766 182.98 25.6553 182.643 25.4128C182.306 25.1673 182.108 24.8183 182.049 24.3657H183.016C183.101 24.7976 183.424 25.0135 183.983 25.0135C184.296 25.0135 184.545 24.9558 184.728 24.8405C184.915 24.7222 185.009 24.5609 185.012 24.3569C185.009 24.2001 184.947 24.0714 184.826 23.9709C184.708 23.8673 184.521 23.786 184.267 23.7269L183.513 23.5671C183.081 23.4725 182.753 23.3127 182.528 23.088C182.303 22.8602 182.19 22.5792 182.19 22.245C182.19 21.961 182.267 21.7096 182.421 21.4907C182.578 21.2719 182.797 21.1018 183.078 20.9805C183.362 20.8593 183.687 20.7986 184.054 20.7986C184.406 20.7986 184.715 20.8548 184.981 20.9672C185.247 21.0796 185.458 21.2393 185.611 21.4464C185.765 21.6534 185.858 21.896 185.891 22.174H184.977Z" fill="white"/>
<mask id="mask0_77_148" style="mask-type:luminance" maskUnits="userSpaceOnUse" x="0" y="0" width="31" height="32">
<path d="M30.8552 0H0.5V31.647H30.8552V0Z" fill="white"/>
</mask>
<g mask="url(#mask0_77_148)">
<path d="M18.2606 3.84343C17.7644 2.73129 16.0965 3.4918 16.0965 3.4918C17.504 4.39131 18.2606 3.84343 18.2606 3.84343ZM15.5107 3.67988C15.6816 3.67988 15.828 3.54086 15.828 3.36096C15.828 3.18105 15.6897 3.04203 15.5107 3.04203C15.3317 3.04203 15.1934 3.18105 15.1934 3.36096C15.1934 3.54086 15.3317 3.67988 15.5107 3.67988ZM19.3265 3.95793C19.3265 3.95793 18.7244 3.94974 18.1712 4.27682L19.9448 4.30135L20.0099 4.25229C20.0099 4.25229 19.1231 1.84812 16.7718 1.55373C16.7718 1.55373 17.3332 3.33642 19.3265 3.95793ZM20.5713 4.42402C20.5713 4.29318 20.4655 4.1869 20.3353 4.1869C20.2051 4.1869 20.0994 4.29318 20.0994 4.42402C20.0994 4.55486 20.2051 4.66118 20.3353 4.66118C20.4655 4.66118 20.5713 4.55486 20.5713 4.42402ZM11.0929 4.30135L12.8665 4.27682C12.3133 3.94156 11.7112 3.95793 11.7112 3.95793C13.6964 3.33642 14.2659 1.55373 14.2659 1.55373C11.9146 1.84812 11.0278 4.25229 11.0278 4.25229L11.0929 4.30135ZM10.5234 4.55486C10.5234 4.68571 10.6291 4.79202 10.7593 4.79202C10.8895 4.79202 10.9953 4.68571 10.9953 4.55486C10.9953 4.42402 10.8895 4.31771 10.7593 4.31771C10.6291 4.31771 10.5234 4.42402 10.5234 4.55486ZM10.6698 6.45207C9.39246 5.53616 7.52121 6.24762 7.52121 6.24762C9.18094 4.98011 9.16467 2.95208 9.16467 2.95208C7.05745 4.0397 7.04931 6.60745 7.04931 6.60745C9.62843 7.37612 10.6698 6.45207 10.6698 6.45207ZM11.3776 5.95322L11.3939 5.08642C10.4339 4.8002 9.46571 4.98829 9.46571 4.98829C11.3125 4.03153 11.6543 2.02802 11.6543 2.02802C9.39246 2.73129 8.93688 5.24998 8.93688 5.24998C9.97826 5.78149 10.7918 5.93687 11.3776 5.95322ZM21.6045 4.84109C21.6045 4.84109 20.8316 4.60393 19.8635 4.93922V5.83056C20.4574 5.82238 21.0594 5.67518 22.1415 5.0946C22.1415 5.0946 21.6289 2.58409 19.3509 1.93807C19.3428 1.93807 19.7251 3.92521 21.6045 4.84109ZM12.7689 3.94974C12.7689 3.94974 13.5499 4.46491 14.9168 3.51633C14.9168 3.51633 13.2245 2.82124 12.7689 3.94974ZM24.6311 15.987H23.6385V17.2464H24.6311V15.987ZM21.9625 7.34341L21.4499 7.9567L24.2243 10.7452L24.7857 10.181L21.9625 7.34341ZM27.3567 7.26163L24.8182 4.71024L22.5402 7.19621L24.981 9.61675L27.3567 7.26163ZM6.64251 6.97541C6.64251 7.10625 6.74827 7.21256 6.87845 7.21256C7.00862 7.21256 7.11442 7.10625 7.11442 6.97541C7.11442 6.84456 7.00862 6.73825 6.87845 6.73825C6.74827 6.73825 6.64251 6.84456 6.64251 6.97541ZM25.4529 9.66582C25.8922 9.78848 26.4292 9.88662 27.08 9.91115C27.08 9.91115 27.3811 9.01981 27.2509 7.93217L26.3966 8.75812C26.4861 8.97892 26.6081 9.19968 26.7546 9.41231C26.7546 9.41231 26.5187 9.21604 26.1363 9.00346L25.4529 9.66582ZM24.6881 22.1611H23.6955V23.4204H24.6881V22.1611ZM23.2398 5.8142L23.8175 5.22544C23.5734 4.39949 23.0772 3.40185 21.8567 2.80489C21.8486 2.80489 21.7998 4.57122 23.2398 5.8142ZM28.3981 14.6377C28.3981 14.7686 28.5038 14.8749 28.634 14.8749C28.7642 14.8749 28.87 14.7686 28.87 14.6377C28.87 14.5069 28.7642 14.4006 28.634 14.4006C28.5038 14.4006 28.3981 14.5069 28.3981 14.6377ZM25.3064 2.91937C26.0468 3.28736 26.6488 2.90302 26.6488 2.90302C27.4787 2.49414 28.0726 3.05839 28.0726 3.05839C28.6503 3.50815 28.5526 4.10513 28.5526 4.10513C28.5526 4.56304 28.4225 4.59575 28.4225 4.59575C28.1458 4.78384 28.2191 4.46491 28.2191 4.46491L28.2842 4.24411C28.3899 3.21376 27.4706 3.06657 27.4706 3.06657C26.4942 2.89484 26.2502 3.80254 26.2502 3.80254C26.1851 4.05606 26.1851 4.27682 26.2095 4.47309L24.9891 3.24647L25.046 4.285L27.7716 7.02447H28.7479L27.7553 6.01865C28.276 6.1822 28.7316 6.19856 28.7316 6.19856C30.1229 6.11678 30.2693 4.77566 30.2693 4.77566C30.6354 3.37731 29.3174 2.24881 29.3174 2.24881C28.4387 1.48831 27.1126 1.43106 27.1126 1.43106C25.225 1.21027 24.5498 0 24.5498 0C24.3301 0.556069 24.387 1.36565 24.387 1.36565C24.5172 2.62498 25.3064 2.91937 25.3064 2.91937ZM28.7316 14.2534C28.7316 14.2534 30.3181 12.2417 29.3419 10.0665C29.3419 10.0665 28.0726 11.6448 28.5771 13.6728C28.5771 13.6728 27.56 11.9473 25.9898 11.8574C25.998 11.8574 26.242 13.2312 28.7316 14.2534ZM27.1288 10.5572C27.259 10.5572 27.3648 10.4508 27.3648 10.32C27.3648 10.1892 27.259 10.0829 27.1288 10.0829C26.9987 10.0829 26.8929 10.1892 26.8929 10.32C26.8929 10.459 26.9987 10.5572 27.1288 10.5572ZM22.3856 6.73007L23.1015 5.98594C22.4914 5.84691 21.3523 5.64247 20.433 6.3294C20.433 6.33758 20.9048 6.87727 22.3856 6.73007ZM28.0971 12.0128C28.0971 12.0128 29.3093 9.75577 27.975 7.78501C27.975 7.78501 26.9987 9.55951 27.8448 11.4649C27.8448 11.4649 26.5431 9.94386 24.9891 10.132C24.9891 10.132 25.4691 11.4404 28.0971 12.0128ZM19.7821 29.251C19.7821 29.3818 19.8879 29.4881 20.018 29.4881C20.1482 29.4881 20.254 29.3818 20.254 29.251C20.254 29.1201 20.1482 29.0138 20.018 29.0138C19.8879 29.0138 19.7821 29.1201 19.7821 29.251ZM20.9618 29.022C20.9618 29.022 22.2961 27.869 22.3042 26.4379L21.8324 26.4542C21.4012 26.8304 20.7747 27.64 20.4248 29.2673C20.4248 29.2673 22.6704 30.4858 24.6311 29.1447C24.623 29.1528 22.8656 28.1715 20.9618 29.022ZM18.7651 29.7579C18.7651 29.7579 20.4818 28.7358 20.5713 27.1575C20.5713 27.1575 19.2045 27.4028 18.1874 29.9051C18.1874 29.9051 20.1889 31.4998 22.3531 30.5185C22.3531 30.5267 20.7828 29.251 18.7651 29.7579ZM16.4626 30.2486C18.2444 29.4227 18.6431 28.0243 18.6431 28.0243C17.26 28.1225 16.0721 30.2159 16.0721 30.2159C17.6261 31.8105 19.6356 31.6061 19.6356 31.6061C18.7081 30.3876 16.4626 30.2486 16.4626 30.2486ZM15.47 29.5208V30.1096C15.2015 29.6843 14.1439 28.1306 12.9479 28.0489C12.9479 28.0489 13.3547 29.4391 15.1446 30.2568C15.1446 30.2568 12.8991 30.404 11.9879 31.6388C11.9879 31.6388 13.9405 31.8187 15.4781 30.2895V31.2463H16.0721V30.2159V29.5208H15.47ZM23.6955 24.0828V25.3421L29.3093 30.0196H30.4321L24.7206 24.0828H23.6955ZM22.9958 27.918C22.9958 27.918 23.5084 27.3047 23.7524 26.4379L22.7924 26.4215C22.6378 26.8958 22.5239 27.4928 22.4995 28.2533C22.4995 28.2533 24.566 28.9402 26.2176 27.7381L25.583 27.2229C24.8833 27.1821 23.9152 27.2883 22.9958 27.918ZM11.8658 29.3409C11.8658 29.2101 11.76 29.1038 11.6299 29.1038C11.4997 29.1038 11.3939 29.2101 11.3939 29.3409C11.3939 29.4718 11.4997 29.5781 11.6299 29.5781C11.76 29.5781 11.8658 29.4718 11.8658 29.3409ZM27.5519 22.7416C27.5519 22.7416 27.8774 20.7627 26.7302 19.6833C26.7302 19.6833 26.0386 20.8936 27.2916 23.2814C27.2916 23.2814 29.7893 22.7662 30.4402 20.4765C30.4402 20.4765 28.4632 20.8608 27.5519 22.7416ZM25.2413 26.9286L24.4114 26.2498C24.4277 26.4624 24.4603 26.6832 24.4928 26.9204C24.4928 26.9204 24.7938 26.9613 25.2413 26.9286ZM23.9884 27.2311C24.1185 27.2311 24.2243 27.1248 24.2243 26.994C24.2243 26.8631 24.1185 26.7568 23.9884 26.7568C23.8582 26.7568 23.7524 26.8631 23.7524 26.994C23.7524 27.1248 23.8582 27.2311 23.9884 27.2311ZM4.3075 23.7802C4.3075 23.911 4.41326 24.0173 4.54343 24.0173C4.67361 24.0173 4.7794 23.911 4.7794 23.7802C4.7794 23.6493 4.67361 23.5431 4.54343 23.5431C4.41326 23.5431 4.3075 23.6493 4.3075 23.7802ZM2.59081 19.2008C4.54343 17.3363 4.26682 15.9707 4.26682 15.9707C2.84303 16.6249 2.51759 18.6039 2.51759 18.6039C2.25724 16.5267 0.499871 15.5209 0.499871 15.5209C0.385968 17.9087 2.59081 19.2008 2.59081 19.2008ZM2.59895 19.5279C2.59895 19.6587 2.70472 19.7651 2.83489 19.7651C2.96507 19.7651 3.07083 19.6587 3.07083 19.5279C3.07083 19.3971 2.96507 19.2907 2.83489 19.2907C2.70472 19.2907 2.59895 19.3971 2.59895 19.5279ZM5.95096 4.75113L4.12851 2.90302C2.99761 1.77452 1.66331 2.51867 1.66331 2.51867L5.25127 6.1086C5.4872 5.19273 5.95096 4.75113 5.95096 4.75113ZM4.55157 5.8878L1.45991 2.78035C1.45991 2.78035 0.166298 3.71259 1.17516 5.8878H4.55157ZM3.20914 21.4496C4.81192 19.2744 4.3075 17.9742 4.3075 17.9742C3.01388 18.8737 3.03829 20.8772 3.03829 20.8772C2.41996 18.8819 0.524279 18.195 0.524279 18.195C0.809038 20.5583 3.20914 21.4496 3.20914 21.4496ZM4.64109 27.6073C4.64109 27.6073 5.0072 27.3865 5.53603 27.3129L4.95023 27.1739L2.3386 29.9379C2.3386 29.9379 2.0457 30.3713 2.32233 30.6493C2.32233 30.6493 2.58267 30.8619 2.94879 30.6166L5.49533 28.376C5.23499 28.2451 4.67361 27.779 4.64109 27.6073ZM9.59588 26.487H9.26229C9.24601 27.9753 10.6698 29.1447 10.6698 29.1447C8.74973 28.3351 7.00862 29.3573 7.00862 29.3573C9.00194 30.6493 11.2149 29.3818 11.2149 29.3818C10.7837 27.5746 10.0271 26.7977 9.59588 26.487ZM4.20173 23.5513C5.40585 21.1307 4.68174 19.9449 4.68174 19.9449C3.56713 21.0489 3.93324 23.0197 3.93324 23.0197C2.98134 21.1634 0.988028 20.82 0.988028 20.82C1.68772 23.0933 4.20173 23.5513 4.20173 23.5513ZM11.0197 27.272C11.1499 28.8421 12.8828 29.8234 12.8828 29.8234C10.857 29.3655 9.31926 30.6739 9.31926 30.6739C11.4997 31.5979 13.4686 29.9624 13.4686 29.9624C12.3865 27.4846 11.0197 27.272 11.0197 27.272ZM5.42213 8.26746C8.09887 8.57821 8.96125 7.48243 8.96125 7.48243C7.54563 6.80367 5.82892 7.8259 5.82892 7.8259C7.24459 6.28851 6.87845 4.29318 6.87845 4.29318C4.99092 5.7406 5.42213 8.26746 5.42213 8.26746ZM5.54416 25.4566C6.30892 22.8643 5.38958 21.8176 5.38958 21.8176C4.47837 23.1015 5.1862 24.9741 5.1862 24.9741C3.92511 23.3059 1.90739 23.3223 1.90739 23.3223C2.99761 25.4402 5.54416 25.4566 5.54416 25.4566ZM25.0949 23.3304C25.0949 23.3304 24.9321 23.5104 24.8752 23.772L25.3715 24.2872C25.3389 23.9683 25.2576 23.6412 25.0949 23.3304ZM8.46497 12.9532L9.38432 13.7628H11.4509C11.3532 13.5992 11.3858 12.9695 11.3858 12.9695L8.46497 12.9532ZM13.5906 6.8691V5.70789H17.1867V7.36794H18.3746V8.56186H17.2193V9.09337H18.3746V10.3854H17.2193V14.2697H16.2267L14.8598 12.8877L13.6069 14.1471L12.7038 13.2394L14.7866 11.146L15.8606 12.2254V6.8691H13.5906ZM11.7437 12.4298C11.7437 15.1856 13.4605 16.4531 15.5758 16.4531C17.6993 16.4531 19.416 15.1856 19.416 12.4298V4.5794H11.7437C11.7437 4.5794 11.7437 9.68217 11.7437 12.4298ZM8.91246 7.89946C8.91246 7.89946 8.68463 8.24292 7.79783 8.43101L8.91246 9.46955V7.89946ZM18.7244 19.3643C18.9766 19.3643 18.9766 19.1763 18.9766 18.98V17.1891H19.4892V19.0863C19.4892 19.3643 19.4567 19.8305 18.7163 19.8305C18.2363 19.8305 17.9515 19.6097 17.9515 19.119V17.1891H18.4641V18.8737C18.4722 19.0618 18.4478 19.3643 18.7244 19.3643ZM20.0425 20.3538V20.8363H19.5217V21.4005H19.9773V21.883H19.5217V22.4718H20.0506V22.9543H19.0173V20.3538H20.0425ZM19.9041 17.181H20.4818L20.6282 17.5407C20.6689 17.6716 20.7259 17.8024 20.7502 17.9333H20.7584C20.7828 17.8024 20.8316 17.6716 20.8723 17.5407L21.0269 17.181H21.5801L21.0269 18.4403L21.6208 19.7814H21.0269L20.8642 19.3725C20.8154 19.2417 20.7828 19.1108 20.7502 18.98H20.7421C20.7015 19.1108 20.677 19.2335 20.6282 19.3725L20.4736 19.7814H19.896L20.4411 18.4403L19.9041 17.181ZM21.4581 22.9543L21.3605 22.5127H20.8398L20.7502 22.9543H20.2458L20.8479 20.3538H21.3849L22.0032 22.9543H21.4581ZM18.1874 22.9543L18.0654 21.0816H18.0573L17.9759 21.7276L17.7562 22.9624H17.3576L17.1054 21.7195L17.0158 21.1389V21.0898L16.9426 22.9624H16.3975L16.6253 20.362H17.3006L17.5528 21.8994H17.561L17.7644 20.362H18.4478L18.7163 22.9624H18.1874V22.9543ZM16.5277 17.181H17.0403V19.2989H17.5772V19.7814H16.5277V17.181ZM15.8687 16.7802V25.6038C15.8687 25.6038 16.365 25.1049 17.0565 25.1049H22.4995V14.1634H19.5624C19.5706 14.1634 18.7326 16.7475 15.8687 16.7802ZM13.672 17.9169C13.672 17.7288 13.5825 17.5816 13.3221 17.5898H13.257V18.2849L13.3466 18.2931C13.5743 18.2931 13.672 18.1295 13.672 17.9169ZM21.1001 21.0244L21.035 21.4169L20.9293 22.112H21.2873L21.157 21.4169L21.1001 21.0244ZM7.31779 9.42866C7.22831 9.50226 6.56931 10.0992 5.57672 10.2219L5.91841 10.5408L9.48198 10.5244L8.37549 9.41231L7.81411 8.84808C7.81411 8.85626 7.42355 9.36324 7.31779 9.42866ZM27.2021 23.5104C27.2021 23.3795 27.0963 23.2732 26.9661 23.2732C26.836 23.2732 26.7302 23.3795 26.7302 23.5104C26.7302 23.6412 26.836 23.7475 26.9661 23.7475C27.0963 23.7475 27.2021 23.6412 27.2021 23.5104ZM28.5771 19.4707C28.7072 19.4707 28.813 19.3643 28.813 19.2335C28.813 19.1027 28.7072 18.9963 28.5771 18.9963C28.4469 18.9963 28.3411 19.1027 28.3411 19.2335C28.3411 19.3643 28.4469 19.4707 28.5771 19.4707ZM27.0638 17.7043C27.0638 17.7043 26.5919 19.0127 28.2435 21.1552C28.2435 21.1552 30.6192 20.2066 30.8551 17.8351C30.8551 17.8351 28.9757 18.563 28.4062 20.5746C28.4062 20.5746 28.3736 18.5711 27.0638 17.7043ZM28.8618 18.3013C28.8618 18.3013 28.4957 16.3305 27.0475 15.709C27.0475 15.709 26.8034 17.0828 28.8048 18.8982C28.8048 18.8982 30.9772 17.5571 30.8063 15.1774C30.8063 15.1693 29.0815 16.216 28.8618 18.3013ZM26.063 21.5723C26.063 21.5723 25.1681 22.6435 25.998 25.2113C25.998 25.2113 28.5526 25.1377 29.5778 22.9952C29.5778 22.9952 27.56 23.0279 26.3397 24.7288C26.3397 24.7288 26.9987 22.8316 26.063 21.5723ZM28.9269 15.9707C28.9269 15.9707 28.2272 14.098 26.6977 13.7301C26.6977 13.7301 26.6977 15.1284 28.9757 16.5676C28.9757 16.5676 30.8877 14.8667 30.3019 12.5525C30.3019 12.5525 28.7805 13.8854 28.9269 15.9707ZM27.2916 26.2907C27.6821 26.0454 28.0564 25.7183 28.3655 25.2603C28.3655 25.2603 27.5113 25.1458 26.5187 25.4893L27.2916 26.2907ZM12.4353 21.4005L12.3784 21.008H12.3702L12.3133 21.4005L12.2075 22.0956H12.5655L12.4353 21.4005ZM4.85261 6.02682C3.24169 7.76865 4.1041 10.1892 4.1041 10.1892C6.78896 10.0256 7.45611 8.79901 7.45611 8.79901C5.94282 8.38195 4.42954 9.68217 4.42954 9.68217C5.5523 7.92399 4.85261 6.02682 4.85261 6.02682ZM14.933 26.9204H16.4789C16.4789 26.9204 16.5846 26.2416 17.0158 26.2416H23.4433V14.8749L22.8005 14.1961V25.4648H17.0403C17.0403 25.4648 16.2674 25.5302 15.6572 26.2743C15.6572 26.2743 15.1853 25.5629 14.1764 25.4975H8.57073V14.2943L7.87918 14.9894V26.2416H14.1601C14.1601 26.2416 14.933 26.2743 14.933 26.9204ZM2.89998 14.9485C2.89998 14.8177 2.79421 14.7113 2.66403 14.7113C2.53386 14.7113 2.42809 14.8177 2.42809 14.9485C2.42809 15.0793 2.53386 15.1856 2.66403 15.1856C2.79421 15.1856 2.89998 15.0793 2.89998 14.9485ZM2.68844 13.9753C3.14406 11.931 1.84231 10.3936 1.84231 10.3936C0.922941 12.5852 2.55013 14.5641 2.55013 14.5641C5.01533 13.4847 5.22685 12.1109 5.22685 12.1109C3.66476 12.2336 2.68844 13.9753 2.68844 13.9753ZM0.955487 12.9041C0.426648 15.2265 2.37114 16.8866 2.37114 16.8866C4.61668 15.3901 4.58412 13.9999 4.58412 13.9999C3.0627 14.4006 2.40368 16.2896 2.40368 16.2896C2.50132 14.1961 0.955487 12.9041 0.955487 12.9041ZM3.51017 8.26746C3.51017 8.26746 3.37186 7.42519 4.25055 6.16585H1.2972C1.2972 6.16585 1.42737 6.50931 3.51017 8.26746ZM11.3125 12.6588V12.3317L9.78298 10.7943H6.18689L8.22091 12.6588H11.3125ZM7.61069 25.7183C7.61883 25.8246 7.64325 25.6937 7.64325 25.6937V24.1564L7.39104 24.4426C7.52935 24.8187 7.57814 25.383 7.61069 25.7183ZM3.82748 10.598C3.82748 10.7289 3.93324 10.8352 4.06342 10.8352C4.19359 10.8352 4.29936 10.7289 4.29936 10.598C4.29936 10.4672 4.19359 10.3609 4.06342 10.3609C3.93324 10.3609 3.82748 10.4672 3.82748 10.598ZM7.59442 27.4355C7.72459 27.4355 7.83039 27.3292 7.83039 27.1984C7.83039 27.0676 7.72459 26.9613 7.59442 26.9613C7.46424 26.9613 7.35849 27.0676 7.35849 27.1984C7.35849 27.3292 7.46424 27.4355 7.59442 27.4355ZM9.23787 9.81302L11.3207 11.8737V10.2791L9.23787 8.18568V9.81302ZM7.61883 22.0384H6.62624V23.2977H7.61883V22.0384ZM21.4012 8.50461L19.7821 10.271L19.7983 13.1004C19.7983 13.1004 19.7496 13.5665 19.6519 13.7955H20.6933L23.6629 10.8107L21.4012 8.50461ZM12.6387 17.1646V17.6471H12.118V18.2113H12.5736V18.6938H12.118V19.2826H12.6469V19.7651H11.6136V17.1728L10.8976 19.7732H10.4827L9.73419 17.1728H10.2793L10.5885 18.4239C10.6373 18.5711 10.6535 18.7183 10.678 18.8655H10.6861C10.7105 18.7102 10.7268 18.5711 10.7674 18.4158L11.0766 17.1728H12.6387V17.1646ZM13.2814 22.9379H12.7363L12.6387 22.4963H12.118L12.0204 22.9379H11.516L12.118 20.3375H12.655L13.2814 22.9379ZM12.7445 17.1646H13.257C13.5825 17.1646 14.1683 17.1973 14.1683 17.9087C14.1683 18.195 14.0544 18.4403 13.8021 18.5793L14.2496 19.7651H13.7127L13.2652 18.563H13.257V19.7651H12.7445V17.1646ZM14.3554 17.1646H14.868V19.7651H14.3554V17.1646ZM13.973 22.9788C13.8266 22.9788 13.6476 22.9379 13.5337 22.848V22.3573C13.6557 22.4391 13.7696 22.4963 13.9242 22.4963C14.0869 22.4963 14.2171 22.3819 14.2171 22.2101C14.2171 22.0139 14.0544 21.9321 13.9161 21.8258C13.6232 21.6295 13.436 21.4332 13.436 21.0571C13.436 20.6482 13.672 20.2884 14.1113 20.2884C14.274 20.2884 14.4205 20.3375 14.5669 20.4192V20.9181C14.4612 20.8281 14.3391 20.7545 14.2008 20.7545C14.0381 20.7545 13.9405 20.8527 13.9405 21.008C13.9405 21.4332 14.7215 21.4578 14.7215 22.1611C14.7134 22.6272 14.453 22.9788 13.973 22.9788ZM11.4265 20.82H11.0197V22.9379H10.5071V20.82H10.1084V20.3375H11.4265V20.82ZM8.87177 14.1634V25.1131H14.2659C14.8761 25.1295 15.5026 25.612 15.5026 25.612V16.8457C12.2319 16.7721 11.5729 14.1634 11.5729 14.1634H8.87177ZM9.1077 28.4087C9.05891 27.5746 8.90432 26.9694 8.71718 26.4788H7.75714C8.01749 27.3946 8.60329 28.0816 8.60329 28.0816C6.85407 26.9531 4.95837 27.6563 4.95837 27.6563C6.70762 29.2755 9.1077 28.4087 9.1077 28.4087ZM5.86148 10.8761L5.38144 10.4263C4.218 10.7207 3.37186 11.7592 3.37186 11.7592C3.91697 10.4508 3.62408 9.21604 3.38 8.57003L3.03015 8.28381C2.0213 10.2056 3.13592 12.3153 3.13592 12.3153C4.68988 11.931 5.47906 11.3095 5.86148 10.8761ZM3.24982 25.6201C4.68174 27.5173 7.19576 27.0839 7.19576 27.0839C7.50493 24.3935 6.42286 23.5267 6.42286 23.5267C5.74758 24.9496 6.76455 26.675 6.76455 26.675C5.23499 25.2603 3.24982 25.6201 3.24982 25.6201ZM7.58628 16.0852H6.59369V17.3445H7.58628V16.0852Z" fill="white"/>
</g>
</g>
<defs>
<clipPath id="clip0_77_148">
<rect width="186.074" height="32" fill="white" transform="translate(0.5)"/>
</clipPath>
</defs>
</svg>
