<svg width="32" height="29" viewBox="0 0 32 29" fill="none" xmlns="http://www.w3.org/2000/svg">
<rect x="9" y="8" width="14" height="13" fill="white"/>
<path d="M30.5387 6.89504C30.1887 5.57837 29.161 4.54504 27.8554 4.19504C25.4887 3.55615 15.9999 3.55615 15.9999 3.55615C15.9999 3.55615 6.51097 3.55615 4.1443 4.19504C2.83875 4.54504 1.81097 5.57837 1.46097 6.89504C0.827637 9.27837 0.827637 14.245 0.827637 14.245C0.827637 14.245 0.827637 19.2117 1.46097 21.595C1.81097 22.9117 2.83875 23.9006 4.1443 24.2506C6.51097 24.8895 15.9999 24.8895 15.9999 24.8895C15.9999 24.8895 25.4887 24.8895 27.8554 24.2506C29.161 23.9006 30.1887 22.9062 30.5387 21.595C31.1721 19.2117 31.1721 14.245 31.1721 14.245C31.1721 14.245 31.1721 9.27837 30.5387 6.89504ZM12.8999 18.7562V9.73393L20.8276 14.245L12.8999 18.7562Z" fill="#F60002"/>
</svg>
