<svg width="200" height="28" viewBox="0 0 200 28" fill="none" xmlns="http://www.w3.org/2000/svg">
<g clip-path="url(#clip0_72_1283)">
<path d="M0 9.22733C0.550138 8.95226 1.2003 8.67719 1.90048 8.45213C2.60065 8.20207 3.35084 8.00202 4.12603 7.82697C4.92623 7.65193 5.72643 7.50189 6.52663 7.40187C7.35184 7.30184 8.12703 7.25183 8.90223 7.25183C10.7027 7.25183 12.178 7.50189 13.3283 8.00202C14.4786 8.50214 15.3288 9.25233 15.879 10.3026C16.4291 11.3278 16.7292 12.6282 16.7292 14.1786V26.8567H12.7282V14.7037C12.7282 14.2286 12.6782 13.7535 12.5531 13.2783C12.4281 12.8032 12.2281 12.3781 11.903 11.978C11.5779 11.5779 11.1278 11.2778 10.5276 11.0528C9.92748 10.8277 9.15229 10.7027 8.17704 10.7027C7.50188 10.7027 6.77669 10.7777 6.05151 10.9027C5.32633 11.0278 4.65116 11.2028 4.001 11.4279V24.3061H0V9.22733Z" fill="white"/>
<path d="M21.6053 4.62615V1.00024H25.8814V4.62615H21.6053ZM21.7054 26.8317V7.77694H25.7064L25.7564 26.8317H21.7054Z" fill="white"/>
<path d="M30.7577 9.22733C31.3078 8.95226 31.958 8.67719 32.6582 8.45213C33.3583 8.20207 34.1085 8.00202 34.8837 7.82697C35.6839 7.65193 36.4841 7.50189 37.2843 7.40187C38.1095 7.30184 38.8847 7.25183 39.6599 7.25183C41.4604 7.25183 42.9357 7.50189 44.086 8.00202C45.2363 8.50214 46.0865 9.25233 46.6367 10.3026C47.1868 11.3278 47.4869 12.6282 47.4869 14.1786V26.8567H43.4859V14.7037C43.4859 14.2286 43.4359 13.7535 43.3108 13.2783C43.1858 12.8032 42.9857 12.3781 42.6607 11.978C42.3356 11.5779 41.8855 11.2778 41.2853 11.0528C40.6852 10.8277 39.91 10.7027 38.9347 10.7027C38.2596 10.7027 37.5344 10.7777 36.8092 10.9027C36.084 11.0278 35.4089 11.2028 34.7587 11.4279V26.8567H30.7577V9.22733Z" fill="white"/>
<path d="M60.6151 27.4068C58.7397 27.4068 57.0892 27.0317 55.7139 26.2565C54.3386 25.4813 53.2633 24.3561 52.5131 22.8557C51.7629 21.3553 51.3878 19.5299 51.3878 17.3543C51.3878 14.0285 52.163 11.5029 53.7384 9.77743C55.3138 8.05199 57.4893 7.20178 60.29 7.20178C62.3406 7.20178 64.016 7.65189 65.2913 8.57713C66.5666 9.50236 67.4918 10.7777 68.067 12.4031C68.6421 14.0535 68.9172 15.954 68.8922 18.1545H53.7634L53.6384 15.1788H65.7664L64.8162 16.129C64.7412 14.1785 64.3411 12.7282 63.5909 11.8279C62.8407 10.9277 61.6904 10.4776 60.115 10.4776C59.0897 10.4776 58.2395 10.6777 57.5143 11.1028C56.8142 11.5279 56.264 12.228 55.8889 13.2283C55.5138 14.2285 55.3388 15.6039 55.3388 17.3793C55.3388 19.5049 55.8389 21.1303 56.8392 22.2555C57.8394 23.3558 59.2898 23.906 61.2403 23.906C62.1155 23.906 62.9157 23.8309 63.6659 23.6809C64.4161 23.5309 65.1162 23.3308 65.7414 23.0808C66.3666 22.8307 66.9167 22.6056 67.3918 22.3806V26.0815C66.4916 26.4566 65.4913 26.7817 64.3661 27.0067C63.2658 27.2818 61.9905 27.4068 60.6151 27.4068Z" fill="white"/>
<path d="M80.8952 27.4069C77.7945 27.4069 75.4939 26.5316 73.9685 24.7812C72.4431 23.0308 71.6929 20.5301 71.6929 17.2543C71.6929 13.8035 72.4681 11.2528 74.0435 9.65241C75.6189 8.02701 77.8695 7.22681 80.8202 7.22681C82.9207 7.22681 84.6712 7.62691 86.0465 8.4021C87.4219 9.17729 88.4471 10.3276 89.0973 11.828C89.7474 13.3283 90.0975 15.1538 90.0975 17.2793C90.0975 20.5051 89.2973 23.0058 87.7219 24.7812C86.1215 26.5066 83.846 27.4069 80.8952 27.4069ZM80.8702 24.006C82.1705 24.006 83.1958 23.7309 83.971 23.1558C84.7462 22.5806 85.2963 21.7804 85.6214 20.7802C85.9715 19.7549 86.1465 18.6047 86.1465 17.2793C86.1465 15.804 85.9715 14.5786 85.6214 13.5784C85.2713 12.5781 84.6962 11.853 83.946 11.3528C83.1708 10.8527 82.1705 10.6027 80.8952 10.6027C79.6199 10.6027 78.5947 10.8777 77.8445 11.4029C77.0693 11.928 76.5441 12.7032 76.1941 13.7034C75.869 14.7037 75.6939 15.904 75.6939 17.2793C75.6939 19.3798 76.094 21.0553 76.8692 22.2306C77.6444 23.4059 78.9948 24.006 80.8702 24.006Z" fill="white"/>
<path d="M93.9985 9.22733C94.5486 8.95226 95.1988 8.67719 95.899 8.45213C96.5991 8.20207 97.3493 8.00202 98.1245 7.82697C98.9247 7.65193 99.7249 7.50189 100.525 7.40187C101.35 7.30184 102.126 7.25183 102.901 7.25183C104.701 7.25183 106.177 7.50189 107.327 8.00202C108.477 8.50214 109.327 9.25233 109.877 10.3026C110.428 11.3278 110.728 12.6282 110.728 14.1786V26.8567H106.727V14.7037C106.727 14.2286 106.677 13.7535 106.552 13.2783C106.427 12.8032 106.227 12.3781 105.901 11.978C105.576 11.5779 105.126 11.2778 104.526 11.0528C103.926 10.8277 103.151 10.7027 102.176 10.7027C101.5 10.7027 100.775 10.7777 100.05 10.9027C99.3248 11.0278 98.6496 11.2028 97.9995 11.4279V26.8567H93.9985V9.22733Z" fill="white"/>
<path d="M123.831 27.4068C121.955 27.4068 120.305 27.0317 118.93 26.2565C117.554 25.4813 116.479 24.3561 115.729 22.8557C114.979 21.3553 114.604 19.5299 114.604 17.3543C114.604 14.0285 115.379 11.5029 116.954 9.77743C118.53 8.05199 120.705 7.20178 123.506 7.20178C125.556 7.20178 127.232 7.65189 128.507 8.57713C129.782 9.50236 130.708 10.7777 131.283 12.4031C131.858 14.0535 132.133 15.954 132.108 18.1545H117.029L116.904 15.1788H129.032L128.082 16.129C128.007 14.1785 127.607 12.7282 126.857 11.8279C126.107 10.9277 124.956 10.4776 123.381 10.4776C122.356 10.4776 121.505 10.6777 120.78 11.1028C120.08 11.5279 119.53 12.228 119.155 13.2283C118.78 14.2285 118.605 15.6039 118.605 17.3793C118.605 19.5049 119.105 21.1303 120.105 22.2555C121.105 23.3558 122.556 23.906 124.506 23.906C125.381 23.906 126.182 23.8309 126.932 23.6809C127.682 23.5309 128.382 23.3308 129.007 23.0808C129.632 22.8307 130.183 22.6056 130.658 22.3806V26.0815C129.757 26.4566 128.757 26.7817 127.632 27.0067C126.507 27.2818 125.231 27.4068 123.831 27.4068Z" fill="white"/>
<path d="M139.91 26.8317H135.934V0.42511H139.91V26.8317Z" fill="white"/>
<path d="M151.738 27.4068C150.738 27.4068 149.787 27.3068 148.887 27.1318C147.987 26.9567 147.137 26.6066 146.387 26.1565C145.636 25.7064 145.036 25.0813 144.586 24.2561C144.136 23.4559 143.911 22.4556 143.911 21.2553C143.911 19.83 144.186 18.6547 144.761 17.7544C145.311 16.8292 146.112 16.154 147.162 15.7039C148.212 15.2538 149.462 15.0288 150.913 15.0288C151.888 15.0288 152.738 15.1038 153.538 15.2538C154.314 15.4038 155.014 15.6039 155.639 15.879C156.264 16.154 156.789 16.4541 157.214 16.7792L157.639 19.4048C157.089 19.0298 156.339 18.7047 155.389 18.4296C154.439 18.1545 153.438 18.0295 152.338 18.0295C150.888 18.0295 149.787 18.2796 149.037 18.8047C148.287 19.3048 147.912 20.08 147.912 21.1053C147.912 21.8805 148.137 22.4806 148.562 22.9557C148.987 23.4309 149.537 23.7809 150.188 23.981C150.838 24.206 151.513 24.3061 152.238 24.3061C153.738 24.3061 154.839 24.206 155.564 24.006C156.264 23.8059 156.639 23.3308 156.639 22.6056V14.6036C156.639 13.2533 156.239 12.2781 155.414 11.6529C154.589 11.0277 153.438 10.7277 151.938 10.7277C150.863 10.7277 149.762 10.9027 148.612 11.2528C147.462 11.6029 146.537 12.078 145.786 12.6782V8.92723C146.487 8.45211 147.537 8.05201 148.887 7.75193C150.238 7.45186 151.663 7.30182 153.113 7.30182C153.813 7.30182 154.539 7.37684 155.264 7.50187C155.989 7.65191 156.664 7.85196 157.314 8.15203C157.939 8.45211 158.515 8.8272 159.015 9.32732C159.515 9.82745 159.89 10.4276 160.19 11.1278C160.465 11.828 160.615 12.6782 160.615 13.6534V22.8057C160.615 24.056 160.215 25.0062 159.44 25.6814C158.665 26.3566 157.614 26.8067 156.289 27.0568C154.914 27.2818 153.413 27.4068 151.738 27.4068Z" fill="white"/>
<path d="M173.518 27.4069C172.468 27.4069 171.468 27.3318 170.493 27.2068C169.517 27.0818 168.667 26.8567 167.892 26.5316C167.117 26.2066 166.517 25.7814 166.092 25.2063C165.641 24.6562 165.416 23.931 165.416 23.0308V0H169.392V10.3526L168.367 9.05226C168.842 8.67717 169.467 8.35209 170.193 8.10203C170.918 7.85196 171.643 7.65191 172.418 7.50188C173.168 7.35184 173.818 7.27682 174.344 7.27682C177.244 7.27682 179.42 8.12703 180.87 9.85246C182.321 11.5779 183.046 13.9785 183.046 17.0793C183.046 19.1548 182.771 20.8802 182.221 22.2306C181.67 23.5809 180.945 24.6312 180.045 25.3813C179.145 26.1315 178.12 26.6567 176.994 26.9567C175.844 27.2568 174.694 27.4069 173.518 27.4069ZM173.343 23.931C174.844 23.931 175.994 23.6309 176.819 23.0058C177.644 22.4056 178.195 21.5804 178.495 20.5801C178.795 19.5799 178.945 18.4546 178.945 17.2043C178.945 15.7789 178.745 14.5786 178.37 13.6284C177.994 12.6532 177.419 11.928 176.644 11.4029C175.869 10.9027 174.894 10.6277 173.693 10.6277C173.043 10.6277 172.318 10.7277 171.543 10.9027C170.768 11.0778 170.043 11.3528 169.392 11.7529V22.0555C169.392 22.5556 169.592 22.9557 169.992 23.2308C170.393 23.5059 170.893 23.7059 171.493 23.7809C172.118 23.881 172.718 23.931 173.343 23.931Z" fill="white"/>
<path d="M192.448 27.4068C191.073 27.4068 189.922 27.2568 188.947 26.9567C187.997 26.6567 187.047 26.3066 186.147 25.8815V22.1055C186.797 22.5056 187.447 22.8807 188.097 23.1808C188.722 23.5059 189.397 23.7559 190.097 23.931C190.798 24.106 191.573 24.206 192.448 24.206C193.548 24.206 194.399 23.981 195.024 23.5309C195.649 23.0808 195.949 22.5056 195.949 21.8054C195.949 21.2303 195.749 20.7552 195.349 20.4301C194.949 20.105 194.449 19.83 193.848 19.5799C193.248 19.3548 192.598 19.1298 191.948 18.9047C191.273 18.7297 190.573 18.5046 189.897 18.2796C189.222 18.0295 188.572 17.7044 187.997 17.2793C187.422 16.8542 186.972 16.3291 186.622 15.6539C186.272 15.0037 186.096 14.1785 186.096 13.2033C186.096 12.128 186.322 11.2278 186.747 10.4776C187.172 9.72743 187.747 9.12727 188.447 8.65216C189.147 8.17704 189.922 7.82695 190.773 7.6269C191.623 7.40184 192.448 7.30182 193.273 7.30182C194.624 7.32683 195.724 7.50187 196.574 7.80194C197.424 8.10202 198.25 8.47711 199.075 8.90222L199.125 12.3281C198.2 11.853 197.349 11.4279 196.524 11.0778C195.699 10.7277 194.774 10.5526 193.698 10.5526C192.698 10.5526 191.873 10.7277 191.223 11.1028C190.573 11.4779 190.223 12.003 190.223 12.7282C190.223 13.3283 190.398 13.8285 190.773 14.1785C191.148 14.5286 191.623 14.8037 192.223 15.0288C192.823 15.2288 193.473 15.4289 194.149 15.6289C194.774 15.829 195.449 16.054 196.124 16.2541C196.799 16.4791 197.449 16.7792 198.024 17.1793C198.6 17.5794 199.075 18.1295 199.45 18.7797C199.825 19.4299 200 20.3051 200 21.3803C199.975 22.8057 199.6 23.956 198.875 24.8562C198.15 25.7564 197.199 26.4066 196.024 26.8067C194.899 27.2068 193.698 27.4068 192.448 27.4068Z" fill="white"/>
</g>
<defs>
<clipPath id="clip0_72_1283">
<rect width="200" height="28" fill="white"/>
</clipPath>
</defs>
</svg>
